%TF.GenerationSoftware,KiCad,Pcbnew,9.0.8*%
%TF.CreationDate,2026-04-06T21:20:48-07:00*%
%TF.ProjectId,Cave_Radio_PDB,43617665-5f52-4616-9469-6f5f5044422e,rev?*%
%TF.SameCoordinates,Original*%
%TF.FileFunction,Copper,L2,Bot*%
%TF.FilePolarity,Positive*%
%FSLAX46Y46*%
G04 Gerber Fmt 4.6, Leading zero omitted, Abs format (unit mm)*
G04 Created by KiCad (PCBNEW 9.0.8) date 2026-04-06 21:20:48*
%MOMM*%
%LPD*%
G01*
G04 APERTURE LIST*
G04 Aperture macros list*
%AMRoundRect*
0 Rectangle with rounded corners*
0 $1 Rounding radius*
0 $2 $3 $4 $5 $6 $7 $8 $9 X,Y pos of 4 corners*
0 Add a 4 corners polygon primitive as box body*
4,1,4,$2,$3,$4,$5,$6,$7,$8,$9,$2,$3,0*
0 Add four circle primitives for the rounded corners*
1,1,$1+$1,$2,$3*
1,1,$1+$1,$4,$5*
1,1,$1+$1,$6,$7*
1,1,$1+$1,$8,$9*
0 Add four rect primitives between the rounded corners*
20,1,$1+$1,$2,$3,$4,$5,0*
20,1,$1+$1,$4,$5,$6,$7,0*
20,1,$1+$1,$6,$7,$8,$9,0*
20,1,$1+$1,$8,$9,$2,$3,0*%
G04 Aperture macros list end*
%TA.AperFunction,ComponentPad*%
%ADD10C,3.600000*%
%TD*%
%TA.AperFunction,ConnectorPad*%
%ADD11C,5.600000*%
%TD*%
%TA.AperFunction,ComponentPad*%
%ADD12R,1.524000X1.524000*%
%TD*%
%TA.AperFunction,ComponentPad*%
%ADD13C,1.524000*%
%TD*%
%TA.AperFunction,HeatsinkPad*%
%ADD14C,0.500000*%
%TD*%
%TA.AperFunction,HeatsinkPad*%
%ADD15R,0.500000X1.600000*%
%TD*%
%TA.AperFunction,HeatsinkPad*%
%ADD16R,2.500000X1.500000*%
%TD*%
%TA.AperFunction,ComponentPad*%
%ADD17R,3.000000X3.000000*%
%TD*%
%TA.AperFunction,ComponentPad*%
%ADD18C,3.000000*%
%TD*%
%TA.AperFunction,HeatsinkPad*%
%ADD19RoundRect,0.250000X1.110000X1.075000X-1.110000X1.075000X-1.110000X-1.075000X1.110000X-1.075000X0*%
%TD*%
%TA.AperFunction,HeatsinkPad*%
%ADD20RoundRect,0.250000X0.515000X1.075000X-0.515000X1.075000X-0.515000X-1.075000X0.515000X-1.075000X0*%
%TD*%
%TA.AperFunction,ViaPad*%
%ADD21C,0.500000*%
%TD*%
%TA.AperFunction,Conductor*%
%ADD22C,0.250000*%
%TD*%
%TA.AperFunction,Conductor*%
%ADD23C,0.350000*%
%TD*%
G04 APERTURE END LIST*
D10*
%TO.P,H1,1,1*%
%TO.N,GND*%
X139000000Y-59250000D03*
D11*
X139000000Y-59250000D03*
%TD*%
D10*
%TO.P,H3,1,1*%
%TO.N,GND*%
X95000000Y-88750000D03*
D11*
X95000000Y-88750000D03*
%TD*%
D12*
%TO.P,J6,1,Pin_1*%
%TO.N,/USB/PD_EN*%
X119768600Y-64537776D03*
D13*
%TO.P,J6,2,Pin_2*%
%TO.N,LDO_3V3*%
X117228600Y-64537776D03*
%TD*%
D14*
%TO.P,U3,7,GND*%
%TO.N,GND*%
X115738332Y-73216959D03*
D15*
X115738332Y-72666959D03*
D14*
X115738332Y-72116959D03*
%TD*%
D12*
%TO.P,J8,1,Pin_1*%
%TO.N,Net-(J1-Pin_2)*%
X113747200Y-64537776D03*
D13*
%TO.P,J8,2,Pin_2*%
%TO.N,Net-(J8-Pin_2)*%
X111207200Y-64537776D03*
%TD*%
D14*
%TO.P,U6,13,PGND*%
%TO.N,GND*%
X104134131Y-70394270D03*
X103134131Y-70394270D03*
X102134131Y-70394270D03*
D16*
X103134131Y-70894270D03*
D14*
X104134131Y-71394270D03*
X103134131Y-71394270D03*
X102134131Y-71394270D03*
%TD*%
D13*
%TO.P,TP3,1,Pin_1*%
%TO.N,Net-(TP3-Pin_1)*%
X125976000Y-86750000D03*
%TD*%
D17*
%TO.P,J1,1,Pin_1*%
%TO.N,GND*%
X107160100Y-64000000D03*
D18*
%TO.P,J1,2,Pin_2*%
%TO.N,Net-(J1-Pin_2)*%
X103223100Y-64000000D03*
%TD*%
D14*
%TO.P,U7,13,PGND*%
%TO.N,GND*%
X104134131Y-85244470D03*
X103134131Y-85244470D03*
X102134131Y-85244470D03*
D16*
X103134131Y-85744470D03*
D14*
X104134131Y-86244470D03*
X103134131Y-86244470D03*
X102134131Y-86244470D03*
%TD*%
D12*
%TO.P,J7,1,Pin_1*%
%TO.N,GND*%
X133750000Y-80481400D03*
D13*
%TO.P,J7,2,Pin_2*%
%TO.N,9V*%
X133750000Y-83021400D03*
%TD*%
D10*
%TO.P,H2,1,1*%
%TO.N,GND*%
X95000000Y-59250000D03*
D11*
X95000000Y-59250000D03*
%TD*%
D12*
%TO.P,J5,1,Pin_1*%
%TO.N,GND*%
X133500000Y-70767500D03*
D13*
%TO.P,J5,2,Pin_2*%
%TO.N,/USB/D+*%
X133500000Y-68227500D03*
%TO.P,J5,3,Pin_3*%
%TO.N,/USB/D-*%
X133500000Y-65687500D03*
%TD*%
D14*
%TO.P,U4,7,GND*%
%TO.N,GND*%
X125691482Y-68980382D03*
D15*
X125691482Y-69530382D03*
D14*
X125691482Y-70080382D03*
%TD*%
D13*
%TO.P,TP2,1,Pin_1*%
%TO.N,Net-(TP2-Pin_1)*%
X128500000Y-86750000D03*
%TD*%
D14*
%TO.P,U1,39,GND*%
%TO.N,GND*%
X125115073Y-77276657D03*
X126225073Y-76201657D03*
X126225073Y-77276657D03*
D19*
X126225073Y-77276657D03*
D14*
X126225073Y-78351657D03*
X127335073Y-77276657D03*
%TO.P,U1,40,DRAIN*%
%TO.N,Net-(U1-DRAIN-Pad15)*%
X128750073Y-76201657D03*
X128750073Y-77276657D03*
D20*
X128750073Y-77276657D03*
D14*
X128750073Y-78351657D03*
%TD*%
D13*
%TO.P,TP1,1,Pin_1*%
%TO.N,3V3_EEPROM*%
X131024000Y-86750000D03*
%TD*%
D10*
%TO.P,H4,1,1*%
%TO.N,GND*%
X139000000Y-88750000D03*
D11*
X139000000Y-88750000D03*
%TD*%
D21*
%TO.N,LDO_3V3*%
X120851241Y-77954495D03*
X131000000Y-83627500D03*
X120743552Y-72624073D03*
X123000000Y-76500000D03*
%TO.N,GND*%
X126790073Y-80000000D03*
X114001011Y-85650225D03*
X126050410Y-79976628D03*
X124202075Y-71557965D03*
X105092500Y-73899800D03*
X131400000Y-63500000D03*
X105092500Y-88750000D03*
X121368135Y-82112500D03*
X129366035Y-72716719D03*
X133310000Y-63500000D03*
X101033956Y-67899277D03*
X111000000Y-78000000D03*
X113262549Y-70740439D03*
X125349802Y-72782965D03*
X99561510Y-64066482D03*
X123000000Y-85649800D03*
X116625832Y-71404459D03*
X122372500Y-71692680D03*
X121728215Y-77860883D03*
X131000000Y-66750000D03*
X97058100Y-71637500D03*
X135997200Y-74781558D03*
X119632859Y-77000000D03*
X103500000Y-78000000D03*
X99591510Y-61891360D03*
X97100200Y-78500000D03*
X97100200Y-81500000D03*
X98042060Y-65002681D03*
X126944149Y-81356269D03*
X100500000Y-78000000D03*
X118224838Y-70750000D03*
X123090000Y-59500000D03*
X95319888Y-69720769D03*
X117000000Y-85649800D03*
X139073446Y-76958569D03*
X130688424Y-73414157D03*
X116998989Y-77999575D03*
X97253961Y-67429582D03*
X134442058Y-74000000D03*
X128777192Y-71559897D03*
X96495811Y-67429582D03*
X133310000Y-59500000D03*
X120000000Y-85649800D03*
X125000000Y-63500000D03*
X134393170Y-77897910D03*
X134500000Y-75750000D03*
X124191482Y-68880382D03*
X134500000Y-76500000D03*
X124191482Y-69530382D03*
X124191482Y-70180382D03*
X97000000Y-64106250D03*
X114000000Y-78000000D03*
X101646456Y-82136977D03*
X108000000Y-78000000D03*
X127590073Y-80000000D03*
X123090000Y-63500000D03*
X139073446Y-75958569D03*
X97236233Y-69720769D03*
X93637500Y-63770000D03*
X139073446Y-74958569D03*
%TO.N,VBUS*%
X125500000Y-64000000D03*
X130545189Y-75176577D03*
X128021135Y-73997634D03*
X130227672Y-74755906D03*
X130500000Y-64500000D03*
X130500000Y-63500000D03*
X127521135Y-74497634D03*
X126000000Y-64500000D03*
X127521135Y-73497634D03*
X130234542Y-75592323D03*
X126000000Y-63500000D03*
X131000000Y-64000000D03*
%TO.N,3V3*%
X121750000Y-73246347D03*
X124250000Y-75750000D03*
%TO.N,5V*%
X100552741Y-69052428D03*
X106734956Y-74406802D03*
%TO.N,/USB/CC1*%
X130500000Y-65125003D03*
X130369578Y-69051774D03*
%TO.N,9V*%
X106750000Y-89250000D03*
X100586194Y-82067958D03*
%TO.N,/USB/PD_EN*%
X123809733Y-78689083D03*
X121250000Y-72250000D03*
%TO.N,Net-(J8-Pin_2)*%
X95319888Y-67407255D03*
X97944479Y-67366679D03*
%TO.N,Net-(J1-Pin_2)*%
X96273125Y-69720769D03*
%TO.N,3V3_EEPROM*%
X130949763Y-77560015D03*
X132820670Y-78510410D03*
%TO.N,Net-(TP3-Pin_1)*%
X129412756Y-83034483D03*
%TO.N,GND*%
X131500000Y-91250000D03*
X121000000Y-68750000D03*
X125500000Y-59750000D03*
X121000000Y-70250000D03*
X139000000Y-68750000D03*
X110500000Y-91250000D03*
X136000000Y-77750000D03*
X124000000Y-64250000D03*
X128500000Y-56750000D03*
X121000000Y-61250000D03*
X112000000Y-65750000D03*
X106000000Y-59750000D03*
X113500000Y-65750000D03*
X113500000Y-68750000D03*
X118000000Y-62750000D03*
X127000000Y-59750000D03*
X110500000Y-58250000D03*
X139000000Y-82250000D03*
X119500000Y-62750000D03*
X118000000Y-80750000D03*
X110500000Y-67250000D03*
X115000000Y-67250000D03*
X130000000Y-91250000D03*
X106000000Y-76250000D03*
X116500000Y-58250000D03*
X112000000Y-62750000D03*
X110500000Y-65750000D03*
X106000000Y-56750000D03*
X133000000Y-73250000D03*
X124000000Y-59750000D03*
X140500000Y-68750000D03*
X122500000Y-68750000D03*
X115000000Y-61250000D03*
X136000000Y-67250000D03*
X122500000Y-91250000D03*
X100000000Y-58250000D03*
X131500000Y-80750000D03*
X115000000Y-56750000D03*
X136000000Y-71750000D03*
X122500000Y-65750000D03*
X115000000Y-64250000D03*
X142000000Y-67250000D03*
X94000000Y-62750000D03*
X125500000Y-91250000D03*
X116500000Y-62750000D03*
X142000000Y-76250000D03*
X140500000Y-74750000D03*
X119500000Y-91250000D03*
X115000000Y-80750000D03*
X100000000Y-56750000D03*
X136000000Y-83750000D03*
X121000000Y-64250000D03*
X115000000Y-68750000D03*
X98500000Y-59750000D03*
X142000000Y-80750000D03*
X134500000Y-73250000D03*
X113500000Y-61250000D03*
X118000000Y-61250000D03*
X109000000Y-91250000D03*
X127000000Y-58250000D03*
X122500000Y-59750000D03*
X136000000Y-85250000D03*
X137500000Y-82250000D03*
X137500000Y-73250000D03*
X113500000Y-91250000D03*
X127000000Y-56750000D03*
X119500000Y-65750000D03*
X118000000Y-77750000D03*
X100000000Y-59750000D03*
X112000000Y-80750000D03*
X106000000Y-85250000D03*
X136000000Y-70250000D03*
X116500000Y-61250000D03*
X128500000Y-59750000D03*
X103000000Y-61250000D03*
X106000000Y-80750000D03*
X142000000Y-74750000D03*
X98500000Y-61250000D03*
X116500000Y-56750000D03*
X106000000Y-79250000D03*
X118000000Y-67250000D03*
X137500000Y-68750000D03*
X101500000Y-61250000D03*
X112000000Y-67250000D03*
X115000000Y-91250000D03*
X133000000Y-91250000D03*
X122500000Y-64250000D03*
X124000000Y-91250000D03*
X118000000Y-91250000D03*
X115000000Y-62750000D03*
X104500000Y-61250000D03*
X100000000Y-61250000D03*
X112000000Y-61250000D03*
X134500000Y-74750000D03*
X113500000Y-62750000D03*
X127000000Y-61250000D03*
X112000000Y-68750000D03*
X107500000Y-80750000D03*
X139000000Y-67250000D03*
X106000000Y-58250000D03*
X109000000Y-67250000D03*
X131500000Y-73250000D03*
X107500000Y-91250000D03*
X128500000Y-91250000D03*
X139000000Y-73250000D03*
X106000000Y-82250000D03*
X112000000Y-70250000D03*
X131500000Y-56750000D03*
X125500000Y-56750000D03*
X140500000Y-76250000D03*
X124000000Y-67250000D03*
X131500000Y-70250000D03*
X125500000Y-58250000D03*
X137500000Y-71750000D03*
X118000000Y-68750000D03*
X92500000Y-64250000D03*
X121000000Y-67250000D03*
X116500000Y-70250000D03*
X110500000Y-80750000D03*
X130000000Y-59750000D03*
X119500000Y-61250000D03*
X128500000Y-61250000D03*
X121000000Y-62750000D03*
X115000000Y-70250000D03*
X134500000Y-59750000D03*
X137500000Y-67250000D03*
X109000000Y-77750000D03*
X104500000Y-58250000D03*
X134500000Y-64250000D03*
X140500000Y-80750000D03*
X110500000Y-56750000D03*
X130000000Y-58250000D03*
X110500000Y-62750000D03*
X131500000Y-58250000D03*
X116500000Y-59750000D03*
X116500000Y-80750000D03*
X136000000Y-82250000D03*
X140500000Y-67250000D03*
X109000000Y-61250000D03*
X136000000Y-68750000D03*
X106000000Y-61250000D03*
X124000000Y-65750000D03*
X121000000Y-59750000D03*
X112000000Y-91250000D03*
X128500000Y-58250000D03*
X106000000Y-86750000D03*
X122500000Y-70250000D03*
X137500000Y-80750000D03*
X139000000Y-80750000D03*
X113500000Y-80750000D03*
X131500000Y-68750000D03*
X140500000Y-62750000D03*
X104500000Y-56750000D03*
X137500000Y-64250000D03*
X133000000Y-64250000D03*
X116500000Y-67250000D03*
X109000000Y-64250000D03*
X119500000Y-80750000D03*
X137500000Y-85250000D03*
X119500000Y-77750000D03*
X110500000Y-59750000D03*
X107500000Y-61250000D03*
X136000000Y-79250000D03*
X121000000Y-65750000D03*
X119500000Y-59750000D03*
X142000000Y-73250000D03*
X106000000Y-73250000D03*
X104500000Y-59750000D03*
X115000000Y-77750000D03*
X134500000Y-91250000D03*
X106000000Y-89750000D03*
X137500000Y-65750000D03*
X139000000Y-62750000D03*
X116500000Y-68750000D03*
X137500000Y-79250000D03*
X136000000Y-65750000D03*
X137500000Y-77750000D03*
X140500000Y-73250000D03*
X137500000Y-62750000D03*
X98500000Y-56750000D03*
X106000000Y-71750000D03*
X131500000Y-59750000D03*
X121000000Y-91250000D03*
X106000000Y-91250000D03*
X115000000Y-65750000D03*
X136000000Y-80750000D03*
X137500000Y-70250000D03*
X113500000Y-67250000D03*
X98500000Y-58250000D03*
X136000000Y-64250000D03*
X92500000Y-62750000D03*
X127000000Y-91250000D03*
X142000000Y-82250000D03*
X116500000Y-65750000D03*
X142000000Y-68750000D03*
X137500000Y-83750000D03*
X119500000Y-79250000D03*
X131500000Y-71750000D03*
X130000000Y-56750000D03*
X122500000Y-67250000D03*
X121000000Y-58250000D03*
X142000000Y-62750000D03*
X112000000Y-77750000D03*
X109000000Y-80750000D03*
X110500000Y-61250000D03*
X116500000Y-91250000D03*
X121000000Y-56750000D03*
X140500000Y-82250000D03*
X115000000Y-59750000D03*
X142000000Y-70250000D03*
X106000000Y-77750000D03*
X106000000Y-88250000D03*
X136000000Y-73250000D03*
X130000000Y-61250000D03*
X136000000Y-62750000D03*
X115000000Y-58250000D03*
%TD*%
D22*
%TO.N,LDO_3V3*%
X125378938Y-82500000D02*
X120851241Y-77972303D01*
X120851241Y-77972303D02*
X120851241Y-77954495D01*
X120743552Y-72624073D02*
X120743552Y-73676241D01*
X120743552Y-73676241D02*
X123000000Y-75932689D01*
X131000000Y-83627500D02*
X129872500Y-82500000D01*
X129872500Y-82500000D02*
X125378938Y-82500000D01*
X123000000Y-75932689D02*
X123000000Y-76500000D01*
D23*
%TO.N,3V3*%
X124250000Y-75746347D02*
X121750000Y-73246347D01*
X124250000Y-75750000D02*
X124250000Y-75746347D01*
D22*
%TO.N,5V*%
X106734956Y-74406802D02*
X104196663Y-74406802D01*
X100552741Y-70762880D02*
X100552741Y-69052428D01*
X104196663Y-74406802D02*
X100552741Y-70762880D01*
%TO.N,/USB/CC1*%
X130500000Y-68921352D02*
X130369578Y-69051774D01*
X130500000Y-65125003D02*
X130500000Y-68921352D01*
%TO.N,9V*%
X106750000Y-89250000D02*
X104189661Y-89250000D01*
X100586194Y-85646533D02*
X100586194Y-82067958D01*
X104189661Y-89250000D02*
X100586194Y-85646533D01*
%TO.N,/USB/PD_EN*%
X121250000Y-73500000D02*
X123809733Y-76059733D01*
X123809733Y-76059733D02*
X123809733Y-78689083D01*
X121250000Y-72250000D02*
X121250000Y-73500000D01*
%TO.N,Net-(J8-Pin_2)*%
X95319888Y-67407255D02*
X95802503Y-66924640D01*
X95802503Y-66924640D02*
X97502440Y-66924640D01*
X97502440Y-66924640D02*
X97944479Y-67366679D01*
%TO.N,Net-(J1-Pin_2)*%
X97029126Y-69220769D02*
X98002331Y-69220769D01*
X96273125Y-69720769D02*
X96529126Y-69720769D01*
X98002331Y-69220769D02*
X103223100Y-64000000D01*
X96529126Y-69720769D02*
X97029126Y-69220769D01*
%TO.N,3V3_EEPROM*%
X130949763Y-77560015D02*
X130949763Y-77699763D01*
X131750000Y-78500000D02*
X132810260Y-78500000D01*
X130949763Y-77699763D02*
X131750000Y-78500000D01*
X132810260Y-78500000D02*
X132820670Y-78510410D01*
%TO.N,Net-(TP3-Pin_1)*%
X129412756Y-83034483D02*
X125976000Y-86471239D01*
X125976000Y-86471239D02*
X125976000Y-86750000D01*
%TD*%
%TA.AperFunction,Conductor*%
%TO.N,GND*%
G36*
X139002421Y-55750619D02*
G01*
X139031158Y-55752030D01*
X139338173Y-55767113D01*
X139347815Y-55768063D01*
X139677915Y-55817029D01*
X139687421Y-55818919D01*
X140011144Y-55900008D01*
X140020415Y-55902820D01*
X140334625Y-56015246D01*
X140343594Y-56018961D01*
X140645263Y-56161640D01*
X140653826Y-56166218D01*
X140940049Y-56337773D01*
X140948127Y-56343171D01*
X141216150Y-56541951D01*
X141223660Y-56548114D01*
X141470921Y-56772218D01*
X141477781Y-56779078D01*
X141524035Y-56830111D01*
X141701885Y-57026339D01*
X141708048Y-57033849D01*
X141906828Y-57301872D01*
X141912226Y-57309950D01*
X142083781Y-57596173D01*
X142088361Y-57604741D01*
X142231036Y-57906402D01*
X142234754Y-57915378D01*
X142347175Y-58229571D01*
X142349995Y-58238868D01*
X142431077Y-58562567D01*
X142432972Y-58572096D01*
X142481934Y-58902170D01*
X142482887Y-58911838D01*
X142499381Y-59247577D01*
X142499500Y-59252435D01*
X142499500Y-88747564D01*
X142499381Y-88752422D01*
X142482887Y-89088161D01*
X142481934Y-89097829D01*
X142432972Y-89427903D01*
X142431077Y-89437432D01*
X142349995Y-89761131D01*
X142347175Y-89770428D01*
X142234754Y-90084621D01*
X142231036Y-90093597D01*
X142088361Y-90395258D01*
X142083781Y-90403826D01*
X141912226Y-90690049D01*
X141906828Y-90698127D01*
X141708048Y-90966150D01*
X141701885Y-90973660D01*
X141477786Y-91220916D01*
X141470916Y-91227786D01*
X141223660Y-91451885D01*
X141216150Y-91458048D01*
X140948127Y-91656828D01*
X140940049Y-91662226D01*
X140653826Y-91833781D01*
X140645258Y-91838361D01*
X140343597Y-91981036D01*
X140334621Y-91984754D01*
X140020428Y-92097175D01*
X140011131Y-92099995D01*
X139687432Y-92181077D01*
X139677903Y-92182972D01*
X139347829Y-92231934D01*
X139338161Y-92232887D01*
X139002422Y-92249381D01*
X138997564Y-92249500D01*
X95002436Y-92249500D01*
X94997578Y-92249381D01*
X94661838Y-92232887D01*
X94652170Y-92231934D01*
X94322096Y-92182972D01*
X94312567Y-92181077D01*
X93988868Y-92099995D01*
X93979571Y-92097175D01*
X93665378Y-91984754D01*
X93656402Y-91981036D01*
X93354741Y-91838361D01*
X93346173Y-91833781D01*
X93059950Y-91662226D01*
X93051872Y-91656828D01*
X92783849Y-91458048D01*
X92776339Y-91451885D01*
X92529083Y-91227786D01*
X92522218Y-91220921D01*
X92298114Y-90973660D01*
X92291951Y-90966150D01*
X92093171Y-90698127D01*
X92087773Y-90690049D01*
X91958223Y-90473908D01*
X91916216Y-90403823D01*
X91911638Y-90395258D01*
X91768963Y-90093597D01*
X91765245Y-90084621D01*
X91652820Y-89770415D01*
X91650008Y-89761144D01*
X91568919Y-89437421D01*
X91567029Y-89427915D01*
X91518063Y-89097815D01*
X91517113Y-89088173D01*
X91500619Y-88752421D01*
X91500500Y-88747564D01*
X91500500Y-82018523D01*
X100210694Y-82018523D01*
X100210694Y-82117393D01*
X100221816Y-82158900D01*
X100236285Y-82212900D01*
X100281983Y-82292049D01*
X100285719Y-82298520D01*
X100331699Y-82344500D01*
X100359475Y-82399015D01*
X100360694Y-82414502D01*
X100360694Y-85593690D01*
X100360693Y-85593704D01*
X100360693Y-85601678D01*
X100360693Y-85691388D01*
X100384968Y-85749993D01*
X100395024Y-85774269D01*
X100458458Y-85837703D01*
X100458459Y-85837703D01*
X103998490Y-89377734D01*
X103998491Y-89377736D01*
X104061925Y-89441170D01*
X104061926Y-89441170D01*
X104061927Y-89441171D01*
X104086199Y-89451225D01*
X104086200Y-89451225D01*
X104144806Y-89475501D01*
X104144807Y-89475501D01*
X104246039Y-89475501D01*
X104246047Y-89475500D01*
X106403456Y-89475500D01*
X106461647Y-89494407D01*
X106473453Y-89504490D01*
X106519438Y-89550475D01*
X106519440Y-89550476D01*
X106605058Y-89599908D01*
X106605056Y-89599908D01*
X106605060Y-89599909D01*
X106605062Y-89599910D01*
X106700565Y-89625500D01*
X106700567Y-89625500D01*
X106799433Y-89625500D01*
X106799435Y-89625500D01*
X106894938Y-89599910D01*
X106894940Y-89599908D01*
X106894942Y-89599908D01*
X106920377Y-89585222D01*
X106980562Y-89550475D01*
X107050475Y-89480562D01*
X107099910Y-89394938D01*
X107125500Y-89299435D01*
X107125500Y-89200565D01*
X107099910Y-89105062D01*
X107099908Y-89105059D01*
X107099908Y-89105057D01*
X107057818Y-89032157D01*
X107050475Y-89019438D01*
X106980562Y-88949525D01*
X106975316Y-88946496D01*
X106894941Y-88900091D01*
X106894943Y-88900091D01*
X106857885Y-88890161D01*
X106799435Y-88874500D01*
X106700565Y-88874500D01*
X106642114Y-88890161D01*
X106605057Y-88900091D01*
X106519440Y-88949523D01*
X106519438Y-88949524D01*
X106519438Y-88949525D01*
X106473457Y-88995505D01*
X106418943Y-89023281D01*
X106403456Y-89024500D01*
X104324074Y-89024500D01*
X104265883Y-89005593D01*
X104254070Y-88995504D01*
X102366672Y-87108106D01*
X102338895Y-87053589D01*
X102348466Y-86993157D01*
X102361883Y-86973241D01*
X102406278Y-86922047D01*
X102810105Y-86922047D01*
X102810105Y-86922048D01*
X102915365Y-86965648D01*
X103060259Y-86994469D01*
X103060263Y-86994470D01*
X103207999Y-86994470D01*
X103208002Y-86994469D01*
X103352895Y-86965648D01*
X103352901Y-86965646D01*
X103458154Y-86922047D01*
X103810105Y-86922047D01*
X103810105Y-86922048D01*
X103915365Y-86965648D01*
X104060259Y-86994469D01*
X104060263Y-86994470D01*
X104207999Y-86994470D01*
X104208002Y-86994469D01*
X104352895Y-86965648D01*
X104352901Y-86965646D01*
X104458154Y-86922047D01*
X104134130Y-86598023D01*
X103810105Y-86922047D01*
X103458154Y-86922047D01*
X103134130Y-86598023D01*
X102810105Y-86922047D01*
X102406278Y-86922047D01*
X102430371Y-86894264D01*
X101760686Y-86224579D01*
X102034131Y-86224579D01*
X102034131Y-86264361D01*
X102049355Y-86301115D01*
X102077486Y-86329246D01*
X102114240Y-86344470D01*
X102154022Y-86344470D01*
X102190776Y-86329246D01*
X102218907Y-86301115D01*
X102234131Y-86264361D01*
X102234131Y-86244470D01*
X102487684Y-86244470D01*
X102634130Y-86390915D01*
X102780577Y-86244469D01*
X102760687Y-86224579D01*
X103034131Y-86224579D01*
X103034131Y-86264361D01*
X103049355Y-86301115D01*
X103077486Y-86329246D01*
X103114240Y-86344470D01*
X103154022Y-86344470D01*
X103190776Y-86329246D01*
X103218907Y-86301115D01*
X103234131Y-86264361D01*
X103234131Y-86244470D01*
X103487684Y-86244470D01*
X103634130Y-86390915D01*
X103780577Y-86244469D01*
X103760687Y-86224579D01*
X104034131Y-86224579D01*
X104034131Y-86264361D01*
X104049355Y-86301115D01*
X104077486Y-86329246D01*
X104114240Y-86344470D01*
X104154022Y-86344470D01*
X104190776Y-86329246D01*
X104218907Y-86301115D01*
X104234131Y-86264361D01*
X104234131Y-86244469D01*
X104487684Y-86244469D01*
X104811708Y-86568493D01*
X104855307Y-86463240D01*
X104855309Y-86463234D01*
X104884130Y-86318341D01*
X104884131Y-86318337D01*
X104884131Y-86170602D01*
X104884130Y-86170598D01*
X104855309Y-86025704D01*
X104811709Y-85920444D01*
X104811708Y-85920444D01*
X104487684Y-86244469D01*
X104234131Y-86244469D01*
X104234131Y-86224579D01*
X104218907Y-86187825D01*
X104190776Y-86159694D01*
X104154022Y-86144470D01*
X104114240Y-86144470D01*
X104077486Y-86159694D01*
X104049355Y-86187825D01*
X104034131Y-86224579D01*
X103760687Y-86224579D01*
X103634131Y-86098023D01*
X103487684Y-86244470D01*
X103234131Y-86244470D01*
X103234131Y-86224579D01*
X103218907Y-86187825D01*
X103190776Y-86159694D01*
X103154022Y-86144470D01*
X103114240Y-86144470D01*
X103077486Y-86159694D01*
X103049355Y-86187825D01*
X103034131Y-86224579D01*
X102760687Y-86224579D01*
X102634131Y-86098023D01*
X102487684Y-86244470D01*
X102234131Y-86244470D01*
X102234131Y-86224579D01*
X102218907Y-86187825D01*
X102190776Y-86159694D01*
X102154022Y-86144470D01*
X102114240Y-86144470D01*
X102077486Y-86159694D01*
X102049355Y-86187825D01*
X102034131Y-86224579D01*
X101760686Y-86224579D01*
X101456551Y-85920444D01*
X101431962Y-85979809D01*
X101392226Y-86026335D01*
X101332731Y-86040619D01*
X101276203Y-86017204D01*
X101270494Y-86011928D01*
X101003036Y-85744470D01*
X101987684Y-85744470D01*
X102134130Y-85890915D01*
X102280576Y-85744470D01*
X102987684Y-85744470D01*
X103134130Y-85890915D01*
X103280576Y-85744470D01*
X103987684Y-85744470D01*
X104134130Y-85890915D01*
X104280577Y-85744469D01*
X104134131Y-85598023D01*
X103987684Y-85744470D01*
X103280576Y-85744470D01*
X103280577Y-85744469D01*
X103134131Y-85598023D01*
X102987684Y-85744470D01*
X102280576Y-85744470D01*
X102280577Y-85744469D01*
X102134131Y-85598023D01*
X101987684Y-85744470D01*
X101003036Y-85744470D01*
X100840690Y-85582124D01*
X100812913Y-85527607D01*
X100811694Y-85512120D01*
X100811694Y-85170598D01*
X101384131Y-85170598D01*
X101384131Y-85318341D01*
X101412953Y-85463236D01*
X101412953Y-85463238D01*
X101456551Y-85568494D01*
X101780577Y-85244469D01*
X101760687Y-85224579D01*
X102034131Y-85224579D01*
X102034131Y-85264361D01*
X102049355Y-85301115D01*
X102077486Y-85329246D01*
X102114240Y-85344470D01*
X102154022Y-85344470D01*
X102190776Y-85329246D01*
X102218907Y-85301115D01*
X102234131Y-85264361D01*
X102234131Y-85244470D01*
X102487684Y-85244470D01*
X102634130Y-85390915D01*
X102780577Y-85244469D01*
X102760687Y-85224579D01*
X103034131Y-85224579D01*
X103034131Y-85264361D01*
X103049355Y-85301115D01*
X103077486Y-85329246D01*
X103114240Y-85344470D01*
X103154022Y-85344470D01*
X103190776Y-85329246D01*
X103218907Y-85301115D01*
X103234131Y-85264361D01*
X103234131Y-85244470D01*
X103487684Y-85244470D01*
X103634130Y-85390915D01*
X103780577Y-85244469D01*
X103760687Y-85224579D01*
X104034131Y-85224579D01*
X104034131Y-85264361D01*
X104049355Y-85301115D01*
X104077486Y-85329246D01*
X104114240Y-85344470D01*
X104154022Y-85344470D01*
X104190776Y-85329246D01*
X104218907Y-85301115D01*
X104234131Y-85264361D01*
X104234131Y-85244469D01*
X104487684Y-85244469D01*
X104811708Y-85568493D01*
X104855307Y-85463240D01*
X104855309Y-85463234D01*
X104884130Y-85318341D01*
X104884131Y-85318337D01*
X104884131Y-85170602D01*
X104884130Y-85170598D01*
X104855309Y-85025704D01*
X104811709Y-84920444D01*
X104811708Y-84920444D01*
X104487684Y-85244469D01*
X104234131Y-85244469D01*
X104234131Y-85224579D01*
X104218907Y-85187825D01*
X104190776Y-85159694D01*
X104154022Y-85144470D01*
X104114240Y-85144470D01*
X104077486Y-85159694D01*
X104049355Y-85187825D01*
X104034131Y-85224579D01*
X103760687Y-85224579D01*
X103634131Y-85098023D01*
X103487684Y-85244470D01*
X103234131Y-85244470D01*
X103234131Y-85224579D01*
X103218907Y-85187825D01*
X103190776Y-85159694D01*
X103154022Y-85144470D01*
X103114240Y-85144470D01*
X103077486Y-85159694D01*
X103049355Y-85187825D01*
X103034131Y-85224579D01*
X102760687Y-85224579D01*
X102634131Y-85098023D01*
X102487684Y-85244470D01*
X102234131Y-85244470D01*
X102234131Y-85224579D01*
X102218907Y-85187825D01*
X102190776Y-85159694D01*
X102154022Y-85144470D01*
X102114240Y-85144470D01*
X102077486Y-85159694D01*
X102049355Y-85187825D01*
X102034131Y-85224579D01*
X101760687Y-85224579D01*
X101456552Y-84920444D01*
X101456551Y-84920444D01*
X101412953Y-85025701D01*
X101412953Y-85025703D01*
X101384131Y-85170598D01*
X100811694Y-85170598D01*
X100811694Y-84566890D01*
X101810105Y-84566890D01*
X101810105Y-84566891D01*
X102134130Y-84890915D01*
X102458155Y-84566890D01*
X102810105Y-84566890D01*
X102810105Y-84566891D01*
X103134130Y-84890915D01*
X103458155Y-84566890D01*
X103810105Y-84566890D01*
X103810105Y-84566891D01*
X104134130Y-84890915D01*
X104458155Y-84566890D01*
X104352898Y-84523292D01*
X104208002Y-84494470D01*
X104060259Y-84494470D01*
X103915364Y-84523292D01*
X103915362Y-84523292D01*
X103810105Y-84566890D01*
X103458155Y-84566890D01*
X103352898Y-84523292D01*
X103208002Y-84494470D01*
X103060259Y-84494470D01*
X102915364Y-84523292D01*
X102915362Y-84523292D01*
X102810105Y-84566890D01*
X102458155Y-84566890D01*
X102352898Y-84523292D01*
X102208002Y-84494470D01*
X102060259Y-84494470D01*
X101915364Y-84523292D01*
X101915362Y-84523292D01*
X101810105Y-84566890D01*
X100811694Y-84566890D01*
X100811694Y-82414502D01*
X100830601Y-82356311D01*
X100840684Y-82344504D01*
X100886669Y-82298520D01*
X100936104Y-82212896D01*
X100961694Y-82117393D01*
X100961694Y-82018523D01*
X100936104Y-81923020D01*
X100936102Y-81923017D01*
X100936102Y-81923015D01*
X100886670Y-81837398D01*
X100886669Y-81837396D01*
X100816756Y-81767483D01*
X100816753Y-81767481D01*
X100731135Y-81718049D01*
X100731137Y-81718049D01*
X100694079Y-81708119D01*
X100635629Y-81692458D01*
X100536759Y-81692458D01*
X100478308Y-81708119D01*
X100441251Y-81718049D01*
X100355634Y-81767481D01*
X100285717Y-81837398D01*
X100236285Y-81923015D01*
X100236284Y-81923020D01*
X100210694Y-82018523D01*
X91500500Y-82018523D01*
X91500500Y-77905060D01*
X120475741Y-77905060D01*
X120475741Y-78003930D01*
X120481831Y-78026657D01*
X120501332Y-78099437D01*
X120550764Y-78185054D01*
X120550766Y-78185057D01*
X120620679Y-78254970D01*
X120649220Y-78271448D01*
X120706299Y-78304403D01*
X120706297Y-78304403D01*
X120706301Y-78304404D01*
X120706303Y-78304405D01*
X120801806Y-78329995D01*
X120849020Y-78329995D01*
X120907211Y-78348902D01*
X120919024Y-78358991D01*
X125187767Y-82627734D01*
X125187768Y-82627736D01*
X125251202Y-82691170D01*
X125285533Y-82705390D01*
X125334084Y-82725501D01*
X125423793Y-82725501D01*
X125423795Y-82725500D01*
X128986084Y-82725500D01*
X129044275Y-82744407D01*
X129080239Y-82793907D01*
X129080239Y-82855093D01*
X129071821Y-82874000D01*
X129062846Y-82889543D01*
X129037256Y-82985049D01*
X129037256Y-83050069D01*
X129018349Y-83108260D01*
X129008260Y-83120073D01*
X126248405Y-85879927D01*
X126193888Y-85907704D01*
X126159087Y-85907021D01*
X126060951Y-85887500D01*
X126060949Y-85887500D01*
X125891051Y-85887500D01*
X125891048Y-85887500D01*
X125724418Y-85920646D01*
X125724416Y-85920646D01*
X125567455Y-85985661D01*
X125426191Y-86080050D01*
X125306050Y-86200191D01*
X125211661Y-86341455D01*
X125146646Y-86498416D01*
X125146646Y-86498418D01*
X125113500Y-86665048D01*
X125113500Y-86834951D01*
X125146646Y-87001581D01*
X125146646Y-87001583D01*
X125211661Y-87158544D01*
X125211662Y-87158546D01*
X125211663Y-87158547D01*
X125306053Y-87299812D01*
X125426188Y-87419947D01*
X125567453Y-87514337D01*
X125724418Y-87579354D01*
X125891051Y-87612500D01*
X125891052Y-87612500D01*
X126060948Y-87612500D01*
X126060949Y-87612500D01*
X126227582Y-87579354D01*
X126384547Y-87514337D01*
X126525812Y-87419947D01*
X126645947Y-87299812D01*
X126740337Y-87158547D01*
X126805354Y-87001582D01*
X126838500Y-86834949D01*
X126838500Y-86665051D01*
X126838499Y-86665048D01*
X127637500Y-86665048D01*
X127637500Y-86834951D01*
X127670646Y-87001581D01*
X127670646Y-87001583D01*
X127735661Y-87158544D01*
X127735662Y-87158546D01*
X127735663Y-87158547D01*
X127830053Y-87299812D01*
X127950188Y-87419947D01*
X128091453Y-87514337D01*
X128248418Y-87579354D01*
X128415051Y-87612500D01*
X128415052Y-87612500D01*
X128584948Y-87612500D01*
X128584949Y-87612500D01*
X128751582Y-87579354D01*
X128908547Y-87514337D01*
X129049812Y-87419947D01*
X129169947Y-87299812D01*
X129264337Y-87158547D01*
X129329354Y-87001582D01*
X129362500Y-86834949D01*
X129362500Y-86665051D01*
X129362499Y-86665048D01*
X130161500Y-86665048D01*
X130161500Y-86834951D01*
X130194646Y-87001581D01*
X130194646Y-87001583D01*
X130259661Y-87158544D01*
X130259662Y-87158546D01*
X130259663Y-87158547D01*
X130354053Y-87299812D01*
X130474188Y-87419947D01*
X130615453Y-87514337D01*
X130772418Y-87579354D01*
X130939051Y-87612500D01*
X130939052Y-87612500D01*
X131108948Y-87612500D01*
X131108949Y-87612500D01*
X131275582Y-87579354D01*
X131432547Y-87514337D01*
X131573812Y-87419947D01*
X131693947Y-87299812D01*
X131788337Y-87158547D01*
X131853354Y-87001582D01*
X131886500Y-86834949D01*
X131886500Y-86665051D01*
X131853354Y-86498418D01*
X131788337Y-86341453D01*
X131693947Y-86200188D01*
X131573812Y-86080053D01*
X131471855Y-86011928D01*
X131432544Y-85985661D01*
X131275582Y-85920646D01*
X131108951Y-85887500D01*
X131108949Y-85887500D01*
X130939051Y-85887500D01*
X130939048Y-85887500D01*
X130772418Y-85920646D01*
X130772416Y-85920646D01*
X130615455Y-85985661D01*
X130474191Y-86080050D01*
X130354050Y-86200191D01*
X130259661Y-86341455D01*
X130194646Y-86498416D01*
X130194646Y-86498418D01*
X130161500Y-86665048D01*
X129362499Y-86665048D01*
X129329354Y-86498418D01*
X129264337Y-86341453D01*
X129169947Y-86200188D01*
X129049812Y-86080053D01*
X128947855Y-86011928D01*
X128908544Y-85985661D01*
X128751582Y-85920646D01*
X128584951Y-85887500D01*
X128584949Y-85887500D01*
X128415051Y-85887500D01*
X128415048Y-85887500D01*
X128248418Y-85920646D01*
X128248416Y-85920646D01*
X128091455Y-85985661D01*
X127950191Y-86080050D01*
X127830050Y-86200191D01*
X127735661Y-86341455D01*
X127670646Y-86498416D01*
X127670646Y-86498418D01*
X127637500Y-86665048D01*
X126838499Y-86665048D01*
X126805354Y-86498418D01*
X126740337Y-86341453D01*
X126659045Y-86219790D01*
X126642437Y-86160902D01*
X126663615Y-86103498D01*
X126671349Y-86094793D01*
X128364687Y-84401456D01*
X138449500Y-84401456D01*
X138449500Y-84598543D01*
X138487949Y-84791834D01*
X138487949Y-84791836D01*
X138563367Y-84973913D01*
X138563368Y-84973914D01*
X138672861Y-85137782D01*
X138812218Y-85277139D01*
X138976086Y-85386632D01*
X139158165Y-85462051D01*
X139351459Y-85500500D01*
X139351460Y-85500500D01*
X141048540Y-85500500D01*
X141048541Y-85500500D01*
X141241835Y-85462051D01*
X141423914Y-85386632D01*
X141587782Y-85277139D01*
X141727139Y-85137782D01*
X141836632Y-84973914D01*
X141912051Y-84791835D01*
X141950500Y-84598541D01*
X141950500Y-84401459D01*
X141912051Y-84208165D01*
X141836632Y-84026086D01*
X141727139Y-83862218D01*
X141587782Y-83722861D01*
X141423914Y-83613368D01*
X141423915Y-83613368D01*
X141423913Y-83613367D01*
X141241835Y-83537949D01*
X141048543Y-83499500D01*
X141048541Y-83499500D01*
X139351459Y-83499500D01*
X139351456Y-83499500D01*
X139158165Y-83537949D01*
X139158163Y-83537949D01*
X138976086Y-83613367D01*
X138812218Y-83722861D01*
X138812214Y-83722864D01*
X138672864Y-83862214D01*
X138672861Y-83862218D01*
X138563367Y-84026086D01*
X138487949Y-84208163D01*
X138487949Y-84208165D01*
X138449500Y-84401456D01*
X128364687Y-84401456D01*
X129327164Y-83438979D01*
X129381681Y-83411202D01*
X129397168Y-83409983D01*
X129462189Y-83409983D01*
X129462191Y-83409983D01*
X129557694Y-83384393D01*
X129557696Y-83384391D01*
X129557698Y-83384391D01*
X129583133Y-83369705D01*
X129643318Y-83334958D01*
X129713231Y-83265045D01*
X129762666Y-83179421D01*
X129788256Y-83083918D01*
X129788256Y-82985048D01*
X129788256Y-82978559D01*
X129789714Y-82978559D01*
X129799507Y-82925696D01*
X129843885Y-82883575D01*
X129904546Y-82875583D01*
X129956518Y-82902923D01*
X130595504Y-83541909D01*
X130623281Y-83596426D01*
X130624500Y-83611913D01*
X130624500Y-83676935D01*
X130636806Y-83722861D01*
X130650091Y-83772442D01*
X130699523Y-83858059D01*
X130699525Y-83858062D01*
X130769438Y-83927975D01*
X130769440Y-83927976D01*
X130855058Y-83977408D01*
X130855056Y-83977408D01*
X130855060Y-83977409D01*
X130855062Y-83977410D01*
X130950565Y-84003000D01*
X130950567Y-84003000D01*
X131049433Y-84003000D01*
X131049435Y-84003000D01*
X131144938Y-83977410D01*
X131144940Y-83977408D01*
X131144942Y-83977408D01*
X131170377Y-83962722D01*
X131230562Y-83927975D01*
X131300475Y-83858062D01*
X131349910Y-83772438D01*
X131375500Y-83676935D01*
X131375500Y-83578065D01*
X131349910Y-83482562D01*
X131349908Y-83482559D01*
X131349908Y-83482557D01*
X131300476Y-83396940D01*
X131300475Y-83396938D01*
X131230562Y-83327025D01*
X131230559Y-83327023D01*
X131144941Y-83277591D01*
X131144943Y-83277591D01*
X131107885Y-83267661D01*
X131049435Y-83252000D01*
X130984413Y-83252000D01*
X130926222Y-83233093D01*
X130914409Y-83223004D01*
X130627853Y-82936448D01*
X132887500Y-82936448D01*
X132887500Y-83106351D01*
X132920646Y-83272981D01*
X132920646Y-83272983D01*
X132985661Y-83429944D01*
X132985662Y-83429946D01*
X132985663Y-83429947D01*
X133080053Y-83571212D01*
X133200188Y-83691347D01*
X133341453Y-83785737D01*
X133498418Y-83850754D01*
X133665051Y-83883900D01*
X133665052Y-83883900D01*
X133834948Y-83883900D01*
X133834949Y-83883900D01*
X134001582Y-83850754D01*
X134158547Y-83785737D01*
X134299812Y-83691347D01*
X134419947Y-83571212D01*
X134514337Y-83429947D01*
X134579354Y-83272982D01*
X134612500Y-83106349D01*
X134612500Y-82936451D01*
X134579354Y-82769818D01*
X134514337Y-82612853D01*
X134419947Y-82471588D01*
X134299812Y-82351453D01*
X134289403Y-82344498D01*
X134158544Y-82257061D01*
X134001582Y-82192046D01*
X133834951Y-82158900D01*
X133834949Y-82158900D01*
X133665051Y-82158900D01*
X133665048Y-82158900D01*
X133498418Y-82192046D01*
X133498416Y-82192046D01*
X133341455Y-82257061D01*
X133200191Y-82351450D01*
X133080050Y-82471591D01*
X132985661Y-82612855D01*
X132920646Y-82769816D01*
X132920646Y-82769818D01*
X132887500Y-82936448D01*
X130627853Y-82936448D01*
X130063670Y-82372265D01*
X130063670Y-82372264D01*
X130000236Y-82308830D01*
X130000234Y-82308829D01*
X130000233Y-82308828D01*
X129971467Y-82296913D01*
X129971465Y-82296912D01*
X129959723Y-82292049D01*
X129917355Y-82274499D01*
X129827645Y-82274499D01*
X129827643Y-82274500D01*
X125513351Y-82274500D01*
X125455160Y-82255593D01*
X125443347Y-82245504D01*
X124489067Y-81291224D01*
X132487999Y-81291224D01*
X132494401Y-81350770D01*
X132494403Y-81350781D01*
X132544646Y-81485488D01*
X132544647Y-81485490D01*
X132630807Y-81600584D01*
X132630815Y-81600592D01*
X132745909Y-81686752D01*
X132745911Y-81686753D01*
X132880618Y-81736996D01*
X132880629Y-81736998D01*
X132940176Y-81743400D01*
X133499999Y-81743400D01*
X133500000Y-81743399D01*
X133500000Y-80923651D01*
X133553919Y-80954781D01*
X133683120Y-80989400D01*
X133816880Y-80989400D01*
X133946081Y-80954781D01*
X134000000Y-80923651D01*
X134000000Y-81743399D01*
X134000001Y-81743400D01*
X134559824Y-81743400D01*
X134619370Y-81736998D01*
X134619381Y-81736996D01*
X134754088Y-81686753D01*
X134754090Y-81686752D01*
X134869184Y-81600592D01*
X134869192Y-81600584D01*
X134955352Y-81485490D01*
X134955353Y-81485488D01*
X135005596Y-81350781D01*
X135005598Y-81350770D01*
X135012000Y-81291224D01*
X135012000Y-80731401D01*
X135011999Y-80731400D01*
X134192251Y-80731400D01*
X134223381Y-80677481D01*
X134258000Y-80548280D01*
X134258000Y-80414520D01*
X134223381Y-80285319D01*
X134192251Y-80231400D01*
X135011999Y-80231400D01*
X135012000Y-80231399D01*
X135012000Y-79671575D01*
X135005598Y-79612029D01*
X135005596Y-79612018D01*
X134955353Y-79477311D01*
X134955352Y-79477309D01*
X134869192Y-79362215D01*
X134869184Y-79362207D01*
X134754090Y-79276047D01*
X134754088Y-79276046D01*
X134619381Y-79225803D01*
X134619370Y-79225801D01*
X134559824Y-79219400D01*
X134000001Y-79219400D01*
X134000000Y-79219401D01*
X134000000Y-80039148D01*
X133946081Y-80008019D01*
X133816880Y-79973400D01*
X133683120Y-79973400D01*
X133553919Y-80008019D01*
X133500000Y-80039148D01*
X133500000Y-79219401D01*
X133499999Y-79219400D01*
X132940176Y-79219400D01*
X132880629Y-79225801D01*
X132880618Y-79225803D01*
X132745911Y-79276046D01*
X132745909Y-79276047D01*
X132630815Y-79362207D01*
X132630807Y-79362215D01*
X132544647Y-79477309D01*
X132544646Y-79477311D01*
X132494403Y-79612018D01*
X132494401Y-79612029D01*
X132488000Y-79671575D01*
X132488000Y-80231399D01*
X132488001Y-80231400D01*
X133307749Y-80231400D01*
X133276619Y-80285319D01*
X133242000Y-80414520D01*
X133242000Y-80548280D01*
X133276619Y-80677481D01*
X133307749Y-80731400D01*
X132488001Y-80731400D01*
X132488000Y-80731401D01*
X132488000Y-81291224D01*
X132487999Y-81291224D01*
X124489067Y-81291224D01*
X121255737Y-78057894D01*
X121227960Y-78003377D01*
X121226741Y-77987890D01*
X121226741Y-77905061D01*
X121215260Y-77862214D01*
X121201151Y-77809557D01*
X121201149Y-77809554D01*
X121201149Y-77809552D01*
X121151717Y-77723935D01*
X121151716Y-77723933D01*
X121081803Y-77654020D01*
X121081800Y-77654018D01*
X120996182Y-77604586D01*
X120996184Y-77604586D01*
X120959126Y-77594656D01*
X120900676Y-77578995D01*
X120801806Y-77578995D01*
X120743355Y-77594656D01*
X120706298Y-77604586D01*
X120620681Y-77654018D01*
X120550764Y-77723935D01*
X120501332Y-77809552D01*
X120487024Y-77862948D01*
X120475741Y-77905060D01*
X91500500Y-77905060D01*
X91500500Y-69671334D01*
X95897625Y-69671334D01*
X95897625Y-69770204D01*
X95914875Y-69834582D01*
X95923216Y-69865711D01*
X95968929Y-69944886D01*
X95972650Y-69951331D01*
X96042563Y-70021244D01*
X96042565Y-70021245D01*
X96128183Y-70070677D01*
X96128181Y-70070677D01*
X96128185Y-70070678D01*
X96128187Y-70070679D01*
X96223690Y-70096269D01*
X96223692Y-70096269D01*
X96322558Y-70096269D01*
X96322560Y-70096269D01*
X96418063Y-70070679D01*
X96418065Y-70070677D01*
X96418067Y-70070677D01*
X96469962Y-70040715D01*
X96503687Y-70021244D01*
X96568049Y-69956881D01*
X96600162Y-69935424D01*
X96632586Y-69921994D01*
X96656862Y-69911939D01*
X96720296Y-69848505D01*
X96720296Y-69848504D01*
X96734218Y-69834582D01*
X96734219Y-69834579D01*
X97093535Y-69475265D01*
X97148051Y-69447488D01*
X97163538Y-69446269D01*
X97945945Y-69446269D01*
X97945953Y-69446270D01*
X97957476Y-69446270D01*
X98047185Y-69446270D01*
X98047186Y-69446270D01*
X98109896Y-69420294D01*
X98130067Y-69411939D01*
X98193501Y-69348505D01*
X98193501Y-69348503D01*
X98539011Y-69002993D01*
X100177241Y-69002993D01*
X100177241Y-69101863D01*
X100199808Y-69186085D01*
X100202832Y-69197370D01*
X100251888Y-69282336D01*
X100252266Y-69282990D01*
X100298246Y-69328970D01*
X100326022Y-69383485D01*
X100327241Y-69398972D01*
X100327241Y-70710037D01*
X100327240Y-70710051D01*
X100327240Y-70718025D01*
X100327240Y-70807735D01*
X100349808Y-70862218D01*
X100361571Y-70890616D01*
X100425005Y-70954050D01*
X100425006Y-70954050D01*
X104005492Y-74534536D01*
X104005493Y-74534538D01*
X104068927Y-74597972D01*
X104068928Y-74597972D01*
X104068929Y-74597973D01*
X104093201Y-74608027D01*
X104093202Y-74608027D01*
X104151808Y-74632303D01*
X104151809Y-74632303D01*
X104253041Y-74632303D01*
X104253049Y-74632302D01*
X106388412Y-74632302D01*
X106446603Y-74651209D01*
X106458409Y-74661292D01*
X106504394Y-74707277D01*
X106504396Y-74707278D01*
X106590014Y-74756710D01*
X106590012Y-74756710D01*
X106590016Y-74756711D01*
X106590018Y-74756712D01*
X106685521Y-74782302D01*
X106685523Y-74782302D01*
X106784389Y-74782302D01*
X106784391Y-74782302D01*
X106879894Y-74756712D01*
X106879896Y-74756710D01*
X106879898Y-74756710D01*
X106905333Y-74742024D01*
X106965518Y-74707277D01*
X107035431Y-74637364D01*
X107084866Y-74551740D01*
X107110456Y-74456237D01*
X107110456Y-74357367D01*
X107084866Y-74261864D01*
X107084864Y-74261861D01*
X107084864Y-74261859D01*
X107042774Y-74188959D01*
X107035431Y-74176240D01*
X106965518Y-74106327D01*
X106965515Y-74106325D01*
X106879897Y-74056893D01*
X106879899Y-74056893D01*
X106842841Y-74046963D01*
X106784391Y-74031302D01*
X106685521Y-74031302D01*
X106627070Y-74046963D01*
X106590013Y-74056893D01*
X106504396Y-74106325D01*
X106504394Y-74106326D01*
X106504394Y-74106327D01*
X106458413Y-74152307D01*
X106403899Y-74180083D01*
X106388412Y-74181302D01*
X104331076Y-74181302D01*
X104272885Y-74162395D01*
X104261072Y-74152306D01*
X104003302Y-73894536D01*
X115414306Y-73894536D01*
X115414306Y-73894537D01*
X115519566Y-73938137D01*
X115664460Y-73966958D01*
X115664464Y-73966959D01*
X115812200Y-73966959D01*
X115812203Y-73966958D01*
X115957096Y-73938137D01*
X115957102Y-73938135D01*
X116062355Y-73894536D01*
X115738331Y-73570512D01*
X115414306Y-73894536D01*
X104003302Y-73894536D01*
X103251853Y-73143087D01*
X114988332Y-73143087D01*
X114988332Y-73290830D01*
X115017154Y-73435725D01*
X115017154Y-73435727D01*
X115060752Y-73540983D01*
X115384778Y-73216958D01*
X115364888Y-73197068D01*
X115638332Y-73197068D01*
X115638332Y-73236850D01*
X115653556Y-73273604D01*
X115681687Y-73301735D01*
X115718441Y-73316959D01*
X115758223Y-73316959D01*
X115794977Y-73301735D01*
X115823108Y-73273604D01*
X115838332Y-73236850D01*
X115838332Y-73216958D01*
X116091885Y-73216958D01*
X116415909Y-73540982D01*
X116459508Y-73435729D01*
X116459510Y-73435723D01*
X116488331Y-73290830D01*
X116488332Y-73290826D01*
X116488332Y-73143091D01*
X116488331Y-73143087D01*
X116459510Y-72998193D01*
X116415910Y-72892933D01*
X116415909Y-72892933D01*
X116091885Y-73216958D01*
X115838332Y-73216958D01*
X115838332Y-73197068D01*
X115823108Y-73160314D01*
X115794977Y-73132183D01*
X115758223Y-73116959D01*
X115718441Y-73116959D01*
X115681687Y-73132183D01*
X115653556Y-73160314D01*
X115638332Y-73197068D01*
X115364888Y-73197068D01*
X115060753Y-72892933D01*
X115060752Y-72892933D01*
X115017154Y-72998190D01*
X115017154Y-72998192D01*
X114988332Y-73143087D01*
X103251853Y-73143087D01*
X102775725Y-72666959D01*
X115541885Y-72666959D01*
X115738331Y-72863404D01*
X115934777Y-72666959D01*
X115905971Y-72638153D01*
X115905969Y-72638150D01*
X115842457Y-72574638D01*
X120368052Y-72574638D01*
X120368052Y-72673508D01*
X120390619Y-72757730D01*
X120393643Y-72769015D01*
X120443075Y-72854632D01*
X120443077Y-72854635D01*
X120489057Y-72900615D01*
X120516833Y-72955130D01*
X120518052Y-72970617D01*
X120518052Y-73631383D01*
X120518051Y-73631386D01*
X120518051Y-73721096D01*
X120541665Y-73778103D01*
X120549099Y-73796052D01*
X120552383Y-73803979D01*
X120615816Y-73867411D01*
X120615817Y-73867411D01*
X122745504Y-75997098D01*
X122749130Y-76004215D01*
X122755593Y-76008911D01*
X122762756Y-76030959D01*
X122773281Y-76051615D01*
X122774500Y-76067102D01*
X122774500Y-76153456D01*
X122755593Y-76211647D01*
X122745509Y-76223453D01*
X122710661Y-76258302D01*
X122699523Y-76269440D01*
X122650091Y-76355057D01*
X122650090Y-76355062D01*
X122624500Y-76450565D01*
X122624500Y-76549435D01*
X122633827Y-76584244D01*
X122650091Y-76644942D01*
X122699523Y-76730559D01*
X122699525Y-76730562D01*
X122769438Y-76800475D01*
X122769440Y-76800476D01*
X122855058Y-76849908D01*
X122855056Y-76849908D01*
X122855060Y-76849909D01*
X122855062Y-76849910D01*
X122950565Y-76875500D01*
X122950567Y-76875500D01*
X123049433Y-76875500D01*
X123049435Y-76875500D01*
X123144938Y-76849910D01*
X123144940Y-76849908D01*
X123144942Y-76849908D01*
X123170377Y-76835222D01*
X123230562Y-76800475D01*
X123300475Y-76730562D01*
X123335222Y-76670377D01*
X123349908Y-76644942D01*
X123349908Y-76644940D01*
X123349910Y-76644938D01*
X123375500Y-76549435D01*
X123375500Y-76450565D01*
X123349910Y-76355062D01*
X123349908Y-76355059D01*
X123349908Y-76355057D01*
X123300476Y-76269440D01*
X123300475Y-76269438D01*
X123254494Y-76223457D01*
X123250869Y-76216342D01*
X123244407Y-76211647D01*
X123237243Y-76189598D01*
X123226719Y-76168943D01*
X123225500Y-76153456D01*
X123225500Y-76033413D01*
X123244407Y-75975222D01*
X123293907Y-75939258D01*
X123355093Y-75939258D01*
X123394504Y-75963409D01*
X123555237Y-76124142D01*
X123583014Y-76178659D01*
X123584233Y-76194146D01*
X123584233Y-78342539D01*
X123565326Y-78400730D01*
X123555242Y-78412536D01*
X123531346Y-78436433D01*
X123509256Y-78458523D01*
X123459824Y-78544140D01*
X123455616Y-78559845D01*
X123434233Y-78639648D01*
X123434233Y-78738518D01*
X123448519Y-78791834D01*
X123459824Y-78834025D01*
X123509256Y-78919642D01*
X123509258Y-78919645D01*
X123579171Y-78989558D01*
X123579173Y-78989559D01*
X123664791Y-79038991D01*
X123664789Y-79038991D01*
X123664793Y-79038992D01*
X123664795Y-79038993D01*
X123760298Y-79064583D01*
X123760300Y-79064583D01*
X123859166Y-79064583D01*
X123859168Y-79064583D01*
X123954671Y-79038993D01*
X123954673Y-79038991D01*
X123954675Y-79038991D01*
X123971573Y-79029234D01*
X125901047Y-79029234D01*
X125901047Y-79029235D01*
X126006307Y-79072835D01*
X126151201Y-79101656D01*
X126151205Y-79101657D01*
X126298941Y-79101657D01*
X126298944Y-79101656D01*
X126443837Y-79072835D01*
X126443843Y-79072833D01*
X126549096Y-79029234D01*
X126225072Y-78705210D01*
X125901047Y-79029234D01*
X123971573Y-79029234D01*
X123980110Y-79024305D01*
X124040295Y-78989558D01*
X124110208Y-78919645D01*
X124159643Y-78834021D01*
X124185233Y-78738518D01*
X124185233Y-78639648D01*
X124159643Y-78544145D01*
X124159641Y-78544142D01*
X124159641Y-78544140D01*
X124110209Y-78458523D01*
X124110208Y-78458521D01*
X124064227Y-78412540D01*
X124036452Y-78358026D01*
X124035233Y-78342539D01*
X124035233Y-78277785D01*
X125475073Y-78277785D01*
X125475073Y-78425528D01*
X125503895Y-78570423D01*
X125503895Y-78570425D01*
X125547493Y-78675681D01*
X125871519Y-78351656D01*
X125851629Y-78331766D01*
X126125073Y-78331766D01*
X126125073Y-78371548D01*
X126140297Y-78408302D01*
X126168428Y-78436433D01*
X126205182Y-78451657D01*
X126244964Y-78451657D01*
X126281718Y-78436433D01*
X126309849Y-78408302D01*
X126325073Y-78371548D01*
X126325073Y-78351657D01*
X126578627Y-78351657D01*
X126902650Y-78675680D01*
X126946249Y-78570427D01*
X126946251Y-78570421D01*
X126975072Y-78425528D01*
X126975073Y-78425524D01*
X126975073Y-78277789D01*
X126975072Y-78277785D01*
X126946251Y-78132892D01*
X126946249Y-78132885D01*
X126941910Y-78122412D01*
X126876914Y-78053369D01*
X126578627Y-78351657D01*
X126325073Y-78351657D01*
X126325073Y-78331766D01*
X126309849Y-78295012D01*
X126281718Y-78266881D01*
X126244964Y-78251657D01*
X126205182Y-78251657D01*
X126168428Y-78266881D01*
X126140297Y-78295012D01*
X126125073Y-78331766D01*
X125851629Y-78331766D01*
X125573231Y-78053368D01*
X125508236Y-78122410D01*
X125503894Y-78132891D01*
X125475073Y-78277785D01*
X124035233Y-78277785D01*
X124035233Y-77954234D01*
X124791047Y-77954234D01*
X124791047Y-77954235D01*
X124896307Y-77997835D01*
X125041201Y-78026656D01*
X125041205Y-78026657D01*
X125188941Y-78026657D01*
X125188944Y-78026656D01*
X125333837Y-77997835D01*
X125333839Y-77997834D01*
X125366196Y-77984431D01*
X125416188Y-77931326D01*
X125299019Y-77814157D01*
X126041126Y-77814157D01*
X126225072Y-77998102D01*
X126409019Y-77814156D01*
X126225073Y-77630210D01*
X126041126Y-77814157D01*
X125299019Y-77814157D01*
X125115072Y-77630210D01*
X124791047Y-77954234D01*
X124035233Y-77954234D01*
X124035233Y-77202785D01*
X124365073Y-77202785D01*
X124365073Y-77350528D01*
X124393895Y-77495423D01*
X124393895Y-77495425D01*
X124437493Y-77600681D01*
X124761519Y-77276656D01*
X124741629Y-77256766D01*
X125015073Y-77256766D01*
X125015073Y-77296548D01*
X125030297Y-77333302D01*
X125058428Y-77361433D01*
X125095182Y-77376657D01*
X125134964Y-77376657D01*
X125171718Y-77361433D01*
X125199849Y-77333302D01*
X125215073Y-77296548D01*
X125215073Y-77276657D01*
X125468626Y-77276657D01*
X125670072Y-77478102D01*
X125871519Y-77276656D01*
X125851629Y-77256766D01*
X126125073Y-77256766D01*
X126125073Y-77296548D01*
X126140297Y-77333302D01*
X126168428Y-77361433D01*
X126205182Y-77376657D01*
X126244964Y-77376657D01*
X126281718Y-77361433D01*
X126309849Y-77333302D01*
X126325073Y-77296548D01*
X126325073Y-77276657D01*
X126578626Y-77276657D01*
X126780072Y-77478102D01*
X126981519Y-77276656D01*
X126780073Y-77075210D01*
X126578626Y-77276657D01*
X126325073Y-77276657D01*
X126325073Y-77256766D01*
X126309849Y-77220012D01*
X126281718Y-77191881D01*
X126244964Y-77176657D01*
X126205182Y-77176657D01*
X126168428Y-77191881D01*
X126140297Y-77220012D01*
X126125073Y-77256766D01*
X125851629Y-77256766D01*
X125670073Y-77075210D01*
X125468626Y-77276657D01*
X125215073Y-77276657D01*
X125215073Y-77256766D01*
X125199849Y-77220012D01*
X125171718Y-77191881D01*
X125134964Y-77176657D01*
X125095182Y-77176657D01*
X125058428Y-77191881D01*
X125030297Y-77220012D01*
X125015073Y-77256766D01*
X124741629Y-77256766D01*
X124437494Y-76952631D01*
X124437493Y-76952631D01*
X124393895Y-77057888D01*
X124393895Y-77057890D01*
X124365073Y-77202785D01*
X124035233Y-77202785D01*
X124035233Y-76599077D01*
X124791047Y-76599077D01*
X124791047Y-76599078D01*
X125115072Y-76923102D01*
X125299017Y-76739157D01*
X126041126Y-76739157D01*
X126225072Y-76923102D01*
X126409019Y-76739156D01*
X126225073Y-76555210D01*
X126041126Y-76739157D01*
X125299017Y-76739157D01*
X125404468Y-76633706D01*
X125444065Y-76579031D01*
X125431481Y-76584244D01*
X125385829Y-76577013D01*
X125333840Y-76555479D01*
X125188944Y-76526657D01*
X125041201Y-76526657D01*
X124896306Y-76555479D01*
X124896304Y-76555479D01*
X124791047Y-76599077D01*
X124035233Y-76599077D01*
X124035233Y-76210218D01*
X124054140Y-76152027D01*
X124087506Y-76127785D01*
X125475073Y-76127785D01*
X125475073Y-76275528D01*
X125503895Y-76420423D01*
X125503895Y-76420425D01*
X125515178Y-76447664D01*
X125519978Y-76508661D01*
X125514444Y-76517691D01*
X125523892Y-76517676D01*
X125542568Y-76512803D01*
X125560372Y-76512803D01*
X125871519Y-76201656D01*
X125851629Y-76181766D01*
X126125073Y-76181766D01*
X126125073Y-76221548D01*
X126140297Y-76258302D01*
X126168428Y-76286433D01*
X126205182Y-76301657D01*
X126244964Y-76301657D01*
X126281718Y-76286433D01*
X126309849Y-76258302D01*
X126325073Y-76221548D01*
X126325073Y-76201656D01*
X126578626Y-76201656D01*
X126876913Y-76499943D01*
X126941910Y-76430900D01*
X126946250Y-76420423D01*
X126946251Y-76420421D01*
X126975072Y-76275528D01*
X126975073Y-76275524D01*
X126975073Y-76127789D01*
X126975072Y-76127785D01*
X126963606Y-76070140D01*
X126970798Y-76009379D01*
X127012330Y-75964449D01*
X127072340Y-75952512D01*
X127076190Y-75953045D01*
X127098996Y-75956657D01*
X127099000Y-75956657D01*
X127353511Y-75956657D01*
X127367782Y-75957691D01*
X127379869Y-75959451D01*
X127389633Y-75960874D01*
X127418839Y-75969898D01*
X127465280Y-75992601D01*
X127489229Y-76009056D01*
X127490851Y-76010565D01*
X127501624Y-76019886D01*
X127501626Y-76019887D01*
X127536762Y-76040012D01*
X127594704Y-76059668D01*
X127594708Y-76059668D01*
X127594709Y-76059669D01*
X127598751Y-76060362D01*
X127627236Y-76065251D01*
X127786849Y-76067308D01*
X127844791Y-76086964D01*
X127880114Y-76136923D01*
X127884573Y-76166300D01*
X127884573Y-76556588D01*
X127865666Y-76614779D01*
X127816166Y-76650743D01*
X127754980Y-76650743D01*
X127730572Y-76638904D01*
X127690330Y-76612015D01*
X127553843Y-76555480D01*
X127553837Y-76555478D01*
X127408944Y-76526657D01*
X127261201Y-76526657D01*
X127116307Y-76555478D01*
X127083947Y-76568882D01*
X127033955Y-76621985D01*
X127441846Y-77029876D01*
X127469623Y-77084393D01*
X127460052Y-77144825D01*
X127441846Y-77169883D01*
X127405783Y-77205946D01*
X127391718Y-77191881D01*
X127354964Y-77176657D01*
X127315182Y-77176657D01*
X127278428Y-77191881D01*
X127250297Y-77220012D01*
X127235073Y-77256766D01*
X127235073Y-77296548D01*
X127250297Y-77333302D01*
X127278428Y-77361433D01*
X127315182Y-77376657D01*
X127354964Y-77376657D01*
X127391718Y-77361433D01*
X127405783Y-77347367D01*
X127441846Y-77383431D01*
X127469623Y-77437947D01*
X127460051Y-77498379D01*
X127441845Y-77523438D01*
X127033955Y-77931326D01*
X127083948Y-77984431D01*
X127116307Y-77997835D01*
X127261201Y-78026656D01*
X127261205Y-78026657D01*
X127408941Y-78026657D01*
X127408944Y-78026656D01*
X127553837Y-77997835D01*
X127553843Y-77997833D01*
X127690331Y-77941297D01*
X127730571Y-77914410D01*
X127789459Y-77897801D01*
X127846862Y-77918978D01*
X127880856Y-77969851D01*
X127884573Y-77996725D01*
X127884573Y-78384917D01*
X127890490Y-78425528D01*
X127894500Y-78453052D01*
X127939031Y-78544140D01*
X127945875Y-78558140D01*
X128028590Y-78640855D01*
X128082358Y-78667140D01*
X128133677Y-78692229D01*
X128133678Y-78692229D01*
X128133680Y-78692230D01*
X128201813Y-78702157D01*
X128201816Y-78702157D01*
X129298330Y-78702157D01*
X129298333Y-78702157D01*
X129366466Y-78692230D01*
X129471556Y-78640855D01*
X129554271Y-78558140D01*
X129605646Y-78453050D01*
X129615573Y-78384917D01*
X129615573Y-77510580D01*
X130574263Y-77510580D01*
X130574263Y-77609450D01*
X130575313Y-77613367D01*
X130599854Y-77704957D01*
X130634941Y-77765728D01*
X130649288Y-77790577D01*
X130719201Y-77860490D01*
X130804825Y-77909925D01*
X130828644Y-77916307D01*
X130873024Y-77941929D01*
X131558829Y-78627734D01*
X131558830Y-78627736D01*
X131622264Y-78691170D01*
X131622265Y-78691170D01*
X131622266Y-78691171D01*
X131646538Y-78701225D01*
X131646539Y-78701225D01*
X131705145Y-78725501D01*
X131705146Y-78725501D01*
X131806378Y-78725501D01*
X131806386Y-78725500D01*
X132463716Y-78725500D01*
X132521907Y-78744407D01*
X132533713Y-78754490D01*
X132590108Y-78810885D01*
X132590110Y-78810886D01*
X132675728Y-78860318D01*
X132675726Y-78860318D01*
X132675730Y-78860319D01*
X132675732Y-78860320D01*
X132771235Y-78885910D01*
X132771237Y-78885910D01*
X132870103Y-78885910D01*
X132870105Y-78885910D01*
X132965608Y-78860320D01*
X132965610Y-78860318D01*
X132965612Y-78860318D01*
X133011159Y-78834021D01*
X133051232Y-78810885D01*
X133121145Y-78740972D01*
X133170580Y-78655348D01*
X133196170Y-78559845D01*
X133196170Y-78460975D01*
X133185785Y-78422217D01*
X133185785Y-78422215D01*
X133180222Y-78401456D01*
X138449500Y-78401456D01*
X138449500Y-78598543D01*
X138464844Y-78675680D01*
X138477343Y-78738518D01*
X138487949Y-78791834D01*
X138487949Y-78791836D01*
X138563367Y-78973913D01*
X138599699Y-79028288D01*
X138672861Y-79137782D01*
X138812218Y-79277139D01*
X138976086Y-79386632D01*
X139158165Y-79462051D01*
X139351459Y-79500500D01*
X139351460Y-79500500D01*
X141048540Y-79500500D01*
X141048541Y-79500500D01*
X141241835Y-79462051D01*
X141423914Y-79386632D01*
X141587782Y-79277139D01*
X141727139Y-79137782D01*
X141836632Y-78973914D01*
X141912051Y-78791835D01*
X141950500Y-78598541D01*
X141950500Y-78401459D01*
X141912051Y-78208165D01*
X141836632Y-78026086D01*
X141727139Y-77862218D01*
X141587782Y-77722861D01*
X141423914Y-77613368D01*
X141423915Y-77613368D01*
X141423913Y-77613367D01*
X141241835Y-77537949D01*
X141048543Y-77499500D01*
X141048541Y-77499500D01*
X139351459Y-77499500D01*
X139351456Y-77499500D01*
X139158165Y-77537949D01*
X139158163Y-77537949D01*
X138976086Y-77613367D01*
X138812218Y-77722861D01*
X138812214Y-77722864D01*
X138672864Y-77862214D01*
X138672861Y-77862218D01*
X138563367Y-78026086D01*
X138487949Y-78208163D01*
X138487949Y-78208165D01*
X138449500Y-78401456D01*
X133180222Y-78401456D01*
X133170580Y-78365472D01*
X133170578Y-78365468D01*
X133121146Y-78279850D01*
X133121145Y-78279848D01*
X133051232Y-78209935D01*
X133051229Y-78209933D01*
X132965611Y-78160501D01*
X132965613Y-78160501D01*
X132928555Y-78150571D01*
X132870105Y-78134910D01*
X132771235Y-78134910D01*
X132712784Y-78150571D01*
X132675727Y-78160501D01*
X132590108Y-78209934D01*
X132554538Y-78245504D01*
X132500021Y-78273281D01*
X132484535Y-78274500D01*
X131884413Y-78274500D01*
X131826222Y-78255593D01*
X131814409Y-78245504D01*
X131334633Y-77765728D01*
X131306856Y-77711211D01*
X131309010Y-77670104D01*
X131325263Y-77609450D01*
X131325263Y-77510580D01*
X131299673Y-77415077D01*
X131299671Y-77415074D01*
X131299671Y-77415072D01*
X131250239Y-77329455D01*
X131250238Y-77329453D01*
X131180325Y-77259540D01*
X131180322Y-77259538D01*
X131094704Y-77210106D01*
X131094706Y-77210106D01*
X131057648Y-77200176D01*
X130999198Y-77184515D01*
X130900328Y-77184515D01*
X130841877Y-77200176D01*
X130804820Y-77210106D01*
X130719203Y-77259538D01*
X130649286Y-77329455D01*
X130599854Y-77415072D01*
X130599853Y-77415077D01*
X130574263Y-77510580D01*
X129615573Y-77510580D01*
X129615573Y-76191167D01*
X129634480Y-76132976D01*
X129683980Y-76097012D01*
X129715848Y-76092175D01*
X130648364Y-76104198D01*
X130648365Y-76104197D01*
X130648371Y-76104198D01*
X130658392Y-76103506D01*
X130665555Y-76103012D01*
X130697424Y-76098175D01*
X130743605Y-76079221D01*
X130793105Y-76043257D01*
X130831430Y-75990507D01*
X130850337Y-75932316D01*
X130855500Y-75899715D01*
X130855500Y-75416628D01*
X130868763Y-75367129D01*
X130895099Y-75321515D01*
X130920689Y-75226012D01*
X130920689Y-75127142D01*
X130895099Y-75031639D01*
X130895098Y-75031637D01*
X130868763Y-74986022D01*
X130855500Y-74936523D01*
X130855500Y-73888664D01*
X130855500Y-73888657D01*
X130854201Y-73872155D01*
X130849356Y-73841562D01*
X130830506Y-73796052D01*
X130830504Y-73796050D01*
X130830503Y-73796046D01*
X130794546Y-73746557D01*
X130794544Y-73746555D01*
X130794542Y-73746552D01*
X130794538Y-73746549D01*
X130794536Y-73746547D01*
X130741796Y-73708229D01*
X130741794Y-73708228D01*
X130741792Y-73708227D01*
X130683601Y-73689320D01*
X130683598Y-73689319D01*
X130660719Y-73685695D01*
X130650587Y-73683541D01*
X130596791Y-73669127D01*
X130572915Y-73659237D01*
X130533925Y-73636726D01*
X130513432Y-73621002D01*
X130481580Y-73589150D01*
X130465852Y-73568653D01*
X130452112Y-73544855D01*
X130443340Y-73529662D01*
X130433450Y-73505784D01*
X130421797Y-73462290D01*
X130418424Y-73436669D01*
X130418424Y-73339227D01*
X130417131Y-73336690D01*
X130416327Y-73330254D01*
X130414353Y-73308760D01*
X130414353Y-73308759D01*
X130407605Y-73290830D01*
X130394646Y-73256395D01*
X130380446Y-73236850D01*
X130358686Y-73206900D01*
X130358684Y-73206898D01*
X130358682Y-73206895D01*
X130358678Y-73206892D01*
X130358676Y-73206890D01*
X130305936Y-73168572D01*
X130305934Y-73168571D01*
X130305932Y-73168570D01*
X130277848Y-73159445D01*
X130247736Y-73149661D01*
X130215143Y-73144500D01*
X130215140Y-73144500D01*
X127667076Y-73144500D01*
X127641454Y-73141127D01*
X127602788Y-73130766D01*
X127570570Y-73122134D01*
X127471700Y-73122134D01*
X127439481Y-73130766D01*
X127400816Y-73141127D01*
X127375194Y-73144500D01*
X127099000Y-73144500D01*
X127082498Y-73145799D01*
X127082493Y-73145799D01*
X127082490Y-73145800D01*
X127051908Y-73150643D01*
X127051905Y-73150643D01*
X127051905Y-73150644D01*
X127036735Y-73156927D01*
X127006389Y-73169496D01*
X126956900Y-73205453D01*
X126956890Y-73205463D01*
X126918572Y-73258203D01*
X126918571Y-73258205D01*
X126899661Y-73316403D01*
X126894500Y-73348996D01*
X126894500Y-73349000D01*
X126894500Y-75752157D01*
X126895154Y-75760462D01*
X126895800Y-75768666D01*
X126900643Y-75799250D01*
X126902229Y-75804873D01*
X126899711Y-75805582D01*
X126903672Y-75855988D01*
X126877414Y-75902868D01*
X126578626Y-76201656D01*
X126325073Y-76201656D01*
X126325073Y-76181766D01*
X126309849Y-76145012D01*
X126281718Y-76116881D01*
X126244964Y-76101657D01*
X126205182Y-76101657D01*
X126168428Y-76116881D01*
X126140297Y-76145012D01*
X126125073Y-76181766D01*
X125851629Y-76181766D01*
X125547494Y-75877631D01*
X125547493Y-75877631D01*
X125503895Y-75982888D01*
X125503895Y-75982890D01*
X125475073Y-76127785D01*
X124087506Y-76127785D01*
X124103640Y-76116063D01*
X124159855Y-76114592D01*
X124200565Y-76125500D01*
X124200566Y-76125500D01*
X124299433Y-76125500D01*
X124299435Y-76125500D01*
X124394938Y-76099910D01*
X124394940Y-76099908D01*
X124394942Y-76099908D01*
X124446501Y-76070140D01*
X124480562Y-76050475D01*
X124550475Y-75980562D01*
X124595332Y-75902868D01*
X124599908Y-75894942D01*
X124599908Y-75894940D01*
X124599910Y-75894938D01*
X124625500Y-75799435D01*
X124625500Y-75700565D01*
X124599910Y-75605062D01*
X124599908Y-75605059D01*
X124599908Y-75605057D01*
X124553153Y-75524077D01*
X125901047Y-75524077D01*
X125901047Y-75524078D01*
X126225072Y-75848102D01*
X126549097Y-75524077D01*
X126443840Y-75480479D01*
X126298944Y-75451657D01*
X126151201Y-75451657D01*
X126006306Y-75480479D01*
X126006304Y-75480479D01*
X125901047Y-75524077D01*
X124553153Y-75524077D01*
X124550476Y-75519440D01*
X124550475Y-75519438D01*
X124480562Y-75449525D01*
X124480559Y-75449523D01*
X124394941Y-75400091D01*
X124394943Y-75400091D01*
X124351748Y-75388517D01*
X124299435Y-75374500D01*
X124299433Y-75374500D01*
X124299426Y-75374498D01*
X124296281Y-75374084D01*
X124294230Y-75373106D01*
X124293167Y-75372821D01*
X124293219Y-75372623D01*
X124241057Y-75347741D01*
X124239204Y-75345936D01*
X122154496Y-73261228D01*
X122126719Y-73206711D01*
X122126453Y-73203332D01*
X122126347Y-73203346D01*
X122125500Y-73196914D01*
X122125500Y-73196912D01*
X122099910Y-73101409D01*
X122099908Y-73101406D01*
X122099908Y-73101404D01*
X122050476Y-73015787D01*
X122050475Y-73015785D01*
X121980562Y-72945872D01*
X121980559Y-72945870D01*
X121894941Y-72896438D01*
X121894943Y-72896438D01*
X121857885Y-72886508D01*
X121799435Y-72870847D01*
X121700565Y-72870847D01*
X121671917Y-72878523D01*
X121600122Y-72897760D01*
X121539021Y-72894557D01*
X121491471Y-72856052D01*
X121475500Y-72802133D01*
X121475500Y-72596544D01*
X121494407Y-72538353D01*
X121504490Y-72526546D01*
X121550475Y-72480562D01*
X121599910Y-72394938D01*
X121625500Y-72299435D01*
X121625500Y-72200565D01*
X121599910Y-72105062D01*
X121599908Y-72105059D01*
X121599908Y-72105057D01*
X121550476Y-72019440D01*
X121550475Y-72019438D01*
X121480562Y-71949525D01*
X121480559Y-71949523D01*
X121394941Y-71900091D01*
X121394943Y-71900091D01*
X121344906Y-71886684D01*
X121299435Y-71874500D01*
X121200565Y-71874500D01*
X121155094Y-71886684D01*
X121105057Y-71900091D01*
X121019440Y-71949523D01*
X120949523Y-72019440D01*
X120900091Y-72105057D01*
X120891572Y-72136850D01*
X120881725Y-72173604D01*
X120881298Y-72175196D01*
X120847974Y-72226511D01*
X120790852Y-72248437D01*
X120785671Y-72248573D01*
X120694117Y-72248573D01*
X120635666Y-72264234D01*
X120598609Y-72274164D01*
X120512992Y-72323596D01*
X120443075Y-72393513D01*
X120393643Y-72479130D01*
X120387917Y-72500500D01*
X120368052Y-72574638D01*
X115842457Y-72574638D01*
X115738332Y-72470512D01*
X115541885Y-72666959D01*
X102775725Y-72666959D01*
X102366672Y-72257906D01*
X102338895Y-72203389D01*
X102348466Y-72142957D01*
X102361883Y-72123041D01*
X102406278Y-72071847D01*
X102810105Y-72071847D01*
X102810105Y-72071848D01*
X102915365Y-72115448D01*
X103060259Y-72144269D01*
X103060263Y-72144270D01*
X103207999Y-72144270D01*
X103208002Y-72144269D01*
X103352895Y-72115448D01*
X103352901Y-72115446D01*
X103458154Y-72071847D01*
X103810105Y-72071847D01*
X103810105Y-72071848D01*
X103915365Y-72115448D01*
X104060259Y-72144269D01*
X104060263Y-72144270D01*
X104207999Y-72144270D01*
X104208002Y-72144269D01*
X104352895Y-72115448D01*
X104352901Y-72115446D01*
X104458154Y-72071847D01*
X104429394Y-72043087D01*
X114988332Y-72043087D01*
X114988332Y-72190830D01*
X115017154Y-72335725D01*
X115017154Y-72335727D01*
X115060752Y-72440983D01*
X115384778Y-72116958D01*
X115364888Y-72097068D01*
X115638332Y-72097068D01*
X115638332Y-72136850D01*
X115653556Y-72173604D01*
X115681687Y-72201735D01*
X115718441Y-72216959D01*
X115758223Y-72216959D01*
X115794977Y-72201735D01*
X115823108Y-72173604D01*
X115838332Y-72136850D01*
X115838332Y-72116958D01*
X116091885Y-72116958D01*
X116415909Y-72440982D01*
X116459508Y-72335729D01*
X116459510Y-72335723D01*
X116488331Y-72190830D01*
X116488332Y-72190826D01*
X116488332Y-72043091D01*
X116488331Y-72043087D01*
X116459510Y-71898193D01*
X116415910Y-71792933D01*
X116415909Y-71792933D01*
X116091885Y-72116958D01*
X115838332Y-72116958D01*
X115838332Y-72097068D01*
X115823108Y-72060314D01*
X115794977Y-72032183D01*
X115758223Y-72016959D01*
X115718441Y-72016959D01*
X115681687Y-72032183D01*
X115653556Y-72060314D01*
X115638332Y-72097068D01*
X115364888Y-72097068D01*
X115060753Y-71792933D01*
X115060752Y-71792933D01*
X115017154Y-71898190D01*
X115017154Y-71898192D01*
X114988332Y-72043087D01*
X104429394Y-72043087D01*
X104134130Y-71747823D01*
X103810105Y-72071847D01*
X103458154Y-72071847D01*
X103134130Y-71747823D01*
X102810105Y-72071847D01*
X102406278Y-72071847D01*
X102430371Y-72044064D01*
X101760686Y-71374379D01*
X102034131Y-71374379D01*
X102034131Y-71414161D01*
X102049355Y-71450915D01*
X102077486Y-71479046D01*
X102114240Y-71494270D01*
X102154022Y-71494270D01*
X102190776Y-71479046D01*
X102218907Y-71450915D01*
X102234131Y-71414161D01*
X102234131Y-71394270D01*
X102487684Y-71394270D01*
X102634130Y-71540715D01*
X102780577Y-71394269D01*
X102760687Y-71374379D01*
X103034131Y-71374379D01*
X103034131Y-71414161D01*
X103049355Y-71450915D01*
X103077486Y-71479046D01*
X103114240Y-71494270D01*
X103154022Y-71494270D01*
X103190776Y-71479046D01*
X103218907Y-71450915D01*
X103234131Y-71414161D01*
X103234131Y-71394270D01*
X103487684Y-71394270D01*
X103634130Y-71540715D01*
X103780577Y-71394269D01*
X103760687Y-71374379D01*
X104034131Y-71374379D01*
X104034131Y-71414161D01*
X104049355Y-71450915D01*
X104077486Y-71479046D01*
X104114240Y-71494270D01*
X104154022Y-71494270D01*
X104190776Y-71479046D01*
X104218907Y-71450915D01*
X104234131Y-71414161D01*
X104234131Y-71394269D01*
X104487684Y-71394269D01*
X104811708Y-71718293D01*
X104855307Y-71613040D01*
X104855309Y-71613034D01*
X104884130Y-71468141D01*
X104884131Y-71468137D01*
X104884131Y-71439379D01*
X115414306Y-71439379D01*
X115414306Y-71439380D01*
X115738331Y-71763404D01*
X115924411Y-71577324D01*
X132237999Y-71577324D01*
X132244401Y-71636870D01*
X132244403Y-71636881D01*
X132294646Y-71771588D01*
X132294647Y-71771590D01*
X132380807Y-71886684D01*
X132380815Y-71886692D01*
X132495909Y-71972852D01*
X132495911Y-71972853D01*
X132630618Y-72023096D01*
X132630629Y-72023098D01*
X132690176Y-72029500D01*
X133249999Y-72029500D01*
X133250000Y-72029499D01*
X133250000Y-71209751D01*
X133303919Y-71240881D01*
X133433120Y-71275500D01*
X133566880Y-71275500D01*
X133696081Y-71240881D01*
X133750000Y-71209751D01*
X133750000Y-72029499D01*
X133750001Y-72029500D01*
X134309824Y-72029500D01*
X134369370Y-72023098D01*
X134369381Y-72023096D01*
X134504088Y-71972853D01*
X134504090Y-71972852D01*
X134619184Y-71886692D01*
X134619192Y-71886684D01*
X134705352Y-71771590D01*
X134705353Y-71771588D01*
X134755596Y-71636881D01*
X134755598Y-71636870D01*
X134762000Y-71577324D01*
X134762000Y-71401456D01*
X138449500Y-71401456D01*
X138449500Y-71598543D01*
X138487949Y-71791834D01*
X138487949Y-71791836D01*
X138563367Y-71973913D01*
X138563368Y-71973914D01*
X138672861Y-72137782D01*
X138812218Y-72277139D01*
X138976086Y-72386632D01*
X139158165Y-72462051D01*
X139351459Y-72500500D01*
X139351460Y-72500500D01*
X141048540Y-72500500D01*
X141048541Y-72500500D01*
X141241835Y-72462051D01*
X141423914Y-72386632D01*
X141587782Y-72277139D01*
X141727139Y-72137782D01*
X141836632Y-71973914D01*
X141912051Y-71791835D01*
X141950500Y-71598541D01*
X141950500Y-71401459D01*
X141912051Y-71208165D01*
X141836632Y-71026086D01*
X141727139Y-70862218D01*
X141587782Y-70722861D01*
X141469689Y-70643954D01*
X141423913Y-70613367D01*
X141241835Y-70537949D01*
X141048543Y-70499500D01*
X141048541Y-70499500D01*
X139351459Y-70499500D01*
X139351456Y-70499500D01*
X139158165Y-70537949D01*
X139158163Y-70537949D01*
X138976086Y-70613367D01*
X138812218Y-70722861D01*
X138812214Y-70722864D01*
X138672864Y-70862214D01*
X138672863Y-70862216D01*
X138672861Y-70862218D01*
X138651445Y-70894270D01*
X138563367Y-71026086D01*
X138487949Y-71208163D01*
X138487949Y-71208165D01*
X138449500Y-71401456D01*
X134762000Y-71401456D01*
X134762000Y-71017501D01*
X134761999Y-71017500D01*
X133942251Y-71017500D01*
X133973381Y-70963581D01*
X134008000Y-70834380D01*
X134008000Y-70700620D01*
X133973381Y-70571419D01*
X133942251Y-70517500D01*
X134761999Y-70517500D01*
X134762000Y-70517499D01*
X134762000Y-69957675D01*
X134755598Y-69898129D01*
X134755596Y-69898118D01*
X134705353Y-69763411D01*
X134705352Y-69763409D01*
X134619192Y-69648315D01*
X134619184Y-69648307D01*
X134504090Y-69562147D01*
X134504088Y-69562146D01*
X134369381Y-69511903D01*
X134369370Y-69511901D01*
X134309824Y-69505500D01*
X133750001Y-69505500D01*
X133750000Y-69505501D01*
X133750000Y-70325248D01*
X133696081Y-70294119D01*
X133566880Y-70259500D01*
X133433120Y-70259500D01*
X133303919Y-70294119D01*
X133250000Y-70325248D01*
X133250000Y-69505501D01*
X133249999Y-69505500D01*
X132690176Y-69505500D01*
X132630629Y-69511901D01*
X132630618Y-69511903D01*
X132495911Y-69562146D01*
X132495909Y-69562147D01*
X132380815Y-69648307D01*
X132380807Y-69648315D01*
X132294647Y-69763409D01*
X132294646Y-69763411D01*
X132244403Y-69898118D01*
X132244401Y-69898129D01*
X132238000Y-69957675D01*
X132238000Y-70517499D01*
X132238001Y-70517500D01*
X133057749Y-70517500D01*
X133026619Y-70571419D01*
X132992000Y-70700620D01*
X132992000Y-70834380D01*
X133026619Y-70963581D01*
X133057749Y-71017500D01*
X132238001Y-71017500D01*
X132238000Y-71017501D01*
X132238000Y-71577324D01*
X132237999Y-71577324D01*
X115924411Y-71577324D01*
X116062356Y-71439379D01*
X115957099Y-71395781D01*
X115812203Y-71366959D01*
X115664460Y-71366959D01*
X115519565Y-71395781D01*
X115519563Y-71395781D01*
X115414306Y-71439379D01*
X104884131Y-71439379D01*
X104884131Y-71320402D01*
X104884130Y-71320398D01*
X104855309Y-71175504D01*
X104811709Y-71070244D01*
X104811708Y-71070244D01*
X104487684Y-71394269D01*
X104234131Y-71394269D01*
X104234131Y-71374379D01*
X104218907Y-71337625D01*
X104190776Y-71309494D01*
X104154022Y-71294270D01*
X104114240Y-71294270D01*
X104077486Y-71309494D01*
X104049355Y-71337625D01*
X104034131Y-71374379D01*
X103760687Y-71374379D01*
X103634131Y-71247823D01*
X103487684Y-71394270D01*
X103234131Y-71394270D01*
X103234131Y-71374379D01*
X103218907Y-71337625D01*
X103190776Y-71309494D01*
X103154022Y-71294270D01*
X103114240Y-71294270D01*
X103077486Y-71309494D01*
X103049355Y-71337625D01*
X103034131Y-71374379D01*
X102760687Y-71374379D01*
X102634131Y-71247823D01*
X102487684Y-71394270D01*
X102234131Y-71394270D01*
X102234131Y-71374379D01*
X102218907Y-71337625D01*
X102190776Y-71309494D01*
X102154022Y-71294270D01*
X102114240Y-71294270D01*
X102077486Y-71309494D01*
X102049355Y-71337625D01*
X102034131Y-71374379D01*
X101760686Y-71374379D01*
X101456551Y-71070244D01*
X101431962Y-71129609D01*
X101392226Y-71176135D01*
X101332731Y-71190419D01*
X101276203Y-71167004D01*
X101270494Y-71161728D01*
X101003036Y-70894270D01*
X101987684Y-70894270D01*
X102134130Y-71040715D01*
X102280576Y-70894270D01*
X102987684Y-70894270D01*
X103134130Y-71040715D01*
X103280576Y-70894270D01*
X103987684Y-70894270D01*
X104134130Y-71040715D01*
X104280577Y-70894269D01*
X104144267Y-70757959D01*
X125367456Y-70757959D01*
X125367456Y-70757960D01*
X125472716Y-70801560D01*
X125617610Y-70830381D01*
X125617614Y-70830382D01*
X125765350Y-70830382D01*
X125765353Y-70830381D01*
X125910246Y-70801560D01*
X125910252Y-70801558D01*
X126015505Y-70757959D01*
X125691481Y-70433935D01*
X125367456Y-70757959D01*
X104144267Y-70757959D01*
X104134131Y-70747823D01*
X103987684Y-70894270D01*
X103280576Y-70894270D01*
X103280577Y-70894269D01*
X103134131Y-70747823D01*
X102987684Y-70894270D01*
X102280576Y-70894270D01*
X102280577Y-70894269D01*
X102134131Y-70747823D01*
X101987684Y-70894270D01*
X101003036Y-70894270D01*
X100807237Y-70698471D01*
X100779460Y-70643954D01*
X100778241Y-70628467D01*
X100778241Y-70320398D01*
X101384131Y-70320398D01*
X101384131Y-70468141D01*
X101412953Y-70613036D01*
X101412953Y-70613038D01*
X101456551Y-70718294D01*
X101780577Y-70394269D01*
X101760687Y-70374379D01*
X102034131Y-70374379D01*
X102034131Y-70414161D01*
X102049355Y-70450915D01*
X102077486Y-70479046D01*
X102114240Y-70494270D01*
X102154022Y-70494270D01*
X102190776Y-70479046D01*
X102218907Y-70450915D01*
X102234131Y-70414161D01*
X102234131Y-70394270D01*
X102487684Y-70394270D01*
X102634130Y-70540715D01*
X102780577Y-70394269D01*
X102760687Y-70374379D01*
X103034131Y-70374379D01*
X103034131Y-70414161D01*
X103049355Y-70450915D01*
X103077486Y-70479046D01*
X103114240Y-70494270D01*
X103154022Y-70494270D01*
X103190776Y-70479046D01*
X103218907Y-70450915D01*
X103234131Y-70414161D01*
X103234131Y-70394270D01*
X103487684Y-70394270D01*
X103634130Y-70540715D01*
X103780577Y-70394269D01*
X103760687Y-70374379D01*
X104034131Y-70374379D01*
X104034131Y-70414161D01*
X104049355Y-70450915D01*
X104077486Y-70479046D01*
X104114240Y-70494270D01*
X104154022Y-70494270D01*
X104190776Y-70479046D01*
X104218907Y-70450915D01*
X104234131Y-70414161D01*
X104234131Y-70394269D01*
X104487684Y-70394269D01*
X104811708Y-70718293D01*
X104824470Y-70687487D01*
X104824470Y-70687486D01*
X104855307Y-70613040D01*
X104855309Y-70613034D01*
X104884130Y-70468141D01*
X104884131Y-70468137D01*
X104884131Y-70320402D01*
X104884130Y-70320398D01*
X104855309Y-70175504D01*
X104811709Y-70070244D01*
X104487684Y-70394269D01*
X104234131Y-70394269D01*
X104234131Y-70374379D01*
X104218907Y-70337625D01*
X104190776Y-70309494D01*
X104154022Y-70294270D01*
X104114240Y-70294270D01*
X104077486Y-70309494D01*
X104049355Y-70337625D01*
X104034131Y-70374379D01*
X103760687Y-70374379D01*
X103634131Y-70247823D01*
X103487684Y-70394270D01*
X103234131Y-70394270D01*
X103234131Y-70374379D01*
X103218907Y-70337625D01*
X103190776Y-70309494D01*
X103154022Y-70294270D01*
X103114240Y-70294270D01*
X103077486Y-70309494D01*
X103049355Y-70337625D01*
X103034131Y-70374379D01*
X102760687Y-70374379D01*
X102634131Y-70247823D01*
X102487684Y-70394270D01*
X102234131Y-70394270D01*
X102234131Y-70374379D01*
X102218907Y-70337625D01*
X102190776Y-70309494D01*
X102154022Y-70294270D01*
X102114240Y-70294270D01*
X102077486Y-70309494D01*
X102049355Y-70337625D01*
X102034131Y-70374379D01*
X101760687Y-70374379D01*
X101456552Y-70070244D01*
X101456551Y-70070244D01*
X101412953Y-70175501D01*
X101412953Y-70175503D01*
X101384131Y-70320398D01*
X100778241Y-70320398D01*
X100778241Y-69716690D01*
X101810105Y-69716690D01*
X101810105Y-69716691D01*
X102134130Y-70040715D01*
X102458155Y-69716690D01*
X102810105Y-69716690D01*
X102810105Y-69716691D01*
X103134130Y-70040715D01*
X103458155Y-69716690D01*
X103810105Y-69716690D01*
X103810105Y-69716691D01*
X104134130Y-70040715D01*
X104168335Y-70006510D01*
X124941482Y-70006510D01*
X124941482Y-70154253D01*
X124970304Y-70299148D01*
X124970304Y-70299150D01*
X125013902Y-70404406D01*
X125337928Y-70080381D01*
X125318038Y-70060491D01*
X125591482Y-70060491D01*
X125591482Y-70100273D01*
X125606706Y-70137027D01*
X125634837Y-70165158D01*
X125671591Y-70180382D01*
X125711373Y-70180382D01*
X125748127Y-70165158D01*
X125776258Y-70137027D01*
X125791482Y-70100273D01*
X125791482Y-70080381D01*
X126045035Y-70080381D01*
X126369059Y-70404405D01*
X126412658Y-70299152D01*
X126412660Y-70299146D01*
X126441481Y-70154253D01*
X126441482Y-70154249D01*
X126441482Y-70006514D01*
X126441480Y-70006502D01*
X126435084Y-69974347D01*
X126435081Y-69974335D01*
X126412660Y-69861616D01*
X126369060Y-69756356D01*
X126369059Y-69756356D01*
X126045035Y-70080381D01*
X125791482Y-70080381D01*
X125791482Y-70060491D01*
X125776258Y-70023737D01*
X125748127Y-69995606D01*
X125711373Y-69980382D01*
X125671591Y-69980382D01*
X125634837Y-69995606D01*
X125606706Y-70023737D01*
X125591482Y-70060491D01*
X125318038Y-70060491D01*
X125013903Y-69756356D01*
X125013902Y-69756356D01*
X124970304Y-69861613D01*
X124970304Y-69861615D01*
X124941482Y-70006510D01*
X104168335Y-70006510D01*
X104458155Y-69716690D01*
X104352898Y-69673092D01*
X104208002Y-69644270D01*
X104060259Y-69644270D01*
X103915364Y-69673092D01*
X103915362Y-69673092D01*
X103810105Y-69716690D01*
X103458155Y-69716690D01*
X103352898Y-69673092D01*
X103208002Y-69644270D01*
X103060259Y-69644270D01*
X102915364Y-69673092D01*
X102915362Y-69673092D01*
X102810105Y-69716690D01*
X102458155Y-69716690D01*
X102352898Y-69673092D01*
X102208002Y-69644270D01*
X102060259Y-69644270D01*
X101915364Y-69673092D01*
X101915362Y-69673092D01*
X101810105Y-69716690D01*
X100778241Y-69716690D01*
X100778241Y-69530382D01*
X125495035Y-69530382D01*
X125691481Y-69726827D01*
X125887928Y-69530381D01*
X125691482Y-69333935D01*
X125495035Y-69530382D01*
X100778241Y-69530382D01*
X100778241Y-69398972D01*
X100797148Y-69340781D01*
X100807231Y-69328974D01*
X100853216Y-69282990D01*
X100901622Y-69199148D01*
X100902649Y-69197370D01*
X100902649Y-69197368D01*
X100902651Y-69197366D01*
X100928241Y-69101863D01*
X100928241Y-69002993D01*
X100902651Y-68907490D01*
X100902649Y-68907487D01*
X100902649Y-68907485D01*
X100902086Y-68906510D01*
X124941482Y-68906510D01*
X124941482Y-69054253D01*
X124970304Y-69199148D01*
X124970304Y-69199150D01*
X125013902Y-69304406D01*
X125337928Y-68980381D01*
X125318038Y-68960491D01*
X125591482Y-68960491D01*
X125591482Y-69000273D01*
X125606706Y-69037027D01*
X125634837Y-69065158D01*
X125671591Y-69080382D01*
X125711373Y-69080382D01*
X125748127Y-69065158D01*
X125776258Y-69037027D01*
X125791482Y-69000273D01*
X125791482Y-68980381D01*
X126045035Y-68980381D01*
X126369059Y-69304405D01*
X126412658Y-69199152D01*
X126412660Y-69199146D01*
X126441481Y-69054253D01*
X126441482Y-69054249D01*
X126441482Y-68906514D01*
X126441481Y-68906510D01*
X126412660Y-68761616D01*
X126369060Y-68656356D01*
X126369059Y-68656356D01*
X126045035Y-68980381D01*
X125791482Y-68980381D01*
X125791482Y-68960491D01*
X125776258Y-68923737D01*
X125748127Y-68895606D01*
X125711373Y-68880382D01*
X125671591Y-68880382D01*
X125634837Y-68895606D01*
X125606706Y-68923737D01*
X125591482Y-68960491D01*
X125318038Y-68960491D01*
X125013903Y-68656356D01*
X125013902Y-68656356D01*
X124970304Y-68761613D01*
X124970304Y-68761615D01*
X124941482Y-68906510D01*
X100902086Y-68906510D01*
X100853217Y-68821868D01*
X100853216Y-68821866D01*
X100783303Y-68751953D01*
X100783300Y-68751951D01*
X100697682Y-68702519D01*
X100697684Y-68702519D01*
X100645378Y-68688504D01*
X100602176Y-68676928D01*
X100503306Y-68676928D01*
X100460104Y-68688504D01*
X100407798Y-68702519D01*
X100322181Y-68751951D01*
X100252264Y-68821868D01*
X100202832Y-68907485D01*
X100197737Y-68926500D01*
X100177241Y-69002993D01*
X98539011Y-69002993D01*
X99239202Y-68302802D01*
X125367456Y-68302802D01*
X125367456Y-68302803D01*
X125691481Y-68626827D01*
X126015506Y-68302802D01*
X125910249Y-68259204D01*
X125765353Y-68230382D01*
X125617610Y-68230382D01*
X125472715Y-68259204D01*
X125472713Y-68259204D01*
X125367456Y-68302802D01*
X99239202Y-68302802D01*
X102202189Y-65339815D01*
X102256704Y-65312040D01*
X102317136Y-65321611D01*
X102330382Y-65329729D01*
X102381858Y-65367129D01*
X102384255Y-65368870D01*
X102608721Y-65483241D01*
X102848315Y-65561090D01*
X102848316Y-65561090D01*
X102848319Y-65561091D01*
X103097135Y-65600500D01*
X103097138Y-65600500D01*
X103349065Y-65600500D01*
X103597880Y-65561091D01*
X103597881Y-65561090D01*
X103597885Y-65561090D01*
X103638713Y-65547824D01*
X105160099Y-65547824D01*
X105166501Y-65607370D01*
X105166503Y-65607381D01*
X105216746Y-65742088D01*
X105216747Y-65742090D01*
X105302907Y-65857184D01*
X105302915Y-65857192D01*
X105418009Y-65943352D01*
X105418011Y-65943353D01*
X105552718Y-65993596D01*
X105552729Y-65993598D01*
X105612276Y-66000000D01*
X106910099Y-66000000D01*
X106910100Y-65999999D01*
X106910100Y-64762360D01*
X106926749Y-64769257D01*
X107081307Y-64800000D01*
X107238893Y-64800000D01*
X107393451Y-64769257D01*
X107410100Y-64762360D01*
X107410100Y-65999999D01*
X107410101Y-66000000D01*
X108707924Y-66000000D01*
X108767470Y-65993598D01*
X108767481Y-65993596D01*
X108902188Y-65943353D01*
X108902190Y-65943352D01*
X109017284Y-65857192D01*
X109017292Y-65857184D01*
X109103452Y-65742090D01*
X109103453Y-65742088D01*
X109153696Y-65607381D01*
X109153698Y-65607370D01*
X109160100Y-65547824D01*
X109160100Y-64452824D01*
X110344700Y-64452824D01*
X110344700Y-64622727D01*
X110377846Y-64789357D01*
X110377846Y-64789359D01*
X110442861Y-64946320D01*
X110529221Y-65075568D01*
X110537253Y-65087588D01*
X110657388Y-65207723D01*
X110798653Y-65302113D01*
X110955618Y-65367130D01*
X111122251Y-65400276D01*
X111122252Y-65400276D01*
X111292148Y-65400276D01*
X111292149Y-65400276D01*
X111458782Y-65367130D01*
X111615747Y-65302113D01*
X111757012Y-65207723D01*
X111877147Y-65087588D01*
X111971537Y-64946323D01*
X112036554Y-64789358D01*
X112069700Y-64622725D01*
X112069700Y-64452827D01*
X112036554Y-64286194D01*
X111971537Y-64129229D01*
X111877147Y-63987964D01*
X111757012Y-63867829D01*
X111737897Y-63855057D01*
X111720345Y-63843329D01*
X111615744Y-63773437D01*
X111597485Y-63765874D01*
X112884700Y-63765874D01*
X112884700Y-65309674D01*
X112890531Y-65338990D01*
X112912739Y-65372228D01*
X112912740Y-65372229D01*
X112912743Y-65372233D01*
X112945987Y-65394445D01*
X112975301Y-65400276D01*
X114519098Y-65400275D01*
X114548413Y-65394445D01*
X114581657Y-65372233D01*
X114603869Y-65338989D01*
X114609700Y-65309675D01*
X114609699Y-64452824D01*
X116366100Y-64452824D01*
X116366100Y-64622727D01*
X116399246Y-64789357D01*
X116399246Y-64789359D01*
X116464261Y-64946320D01*
X116550621Y-65075568D01*
X116558653Y-65087588D01*
X116678788Y-65207723D01*
X116820053Y-65302113D01*
X116977018Y-65367130D01*
X117143651Y-65400276D01*
X117143652Y-65400276D01*
X117313548Y-65400276D01*
X117313549Y-65400276D01*
X117480182Y-65367130D01*
X117637147Y-65302113D01*
X117778412Y-65207723D01*
X117898547Y-65087588D01*
X117992937Y-64946323D01*
X118057954Y-64789358D01*
X118091100Y-64622725D01*
X118091100Y-64452827D01*
X118057954Y-64286194D01*
X117992937Y-64129229D01*
X117898547Y-63987964D01*
X117778412Y-63867829D01*
X117759297Y-63855057D01*
X117741745Y-63843329D01*
X117637144Y-63773437D01*
X117618885Y-63765874D01*
X118906100Y-63765874D01*
X118906100Y-65309674D01*
X118911931Y-65338990D01*
X118934139Y-65372228D01*
X118934140Y-65372229D01*
X118934143Y-65372233D01*
X118967387Y-65394445D01*
X118996701Y-65400276D01*
X120540498Y-65400275D01*
X120569813Y-65394445D01*
X120603057Y-65372233D01*
X120625269Y-65338989D01*
X120631100Y-65309675D01*
X120631099Y-63950565D01*
X125124500Y-63950565D01*
X125124500Y-63956089D01*
X125124500Y-64049434D01*
X125141127Y-64111486D01*
X125144500Y-64137109D01*
X125144500Y-64651000D01*
X125145799Y-64667502D01*
X125145800Y-64667509D01*
X125148348Y-64683601D01*
X125150644Y-64698095D01*
X125160902Y-64722861D01*
X125169496Y-64743610D01*
X125205453Y-64793099D01*
X125205455Y-64793101D01*
X125205458Y-64793105D01*
X125205461Y-64793107D01*
X125205463Y-64793109D01*
X125258203Y-64831427D01*
X125258205Y-64831428D01*
X125258208Y-64831430D01*
X125316399Y-64850337D01*
X125316400Y-64850337D01*
X125316403Y-64850338D01*
X125348996Y-64855500D01*
X125349000Y-64855500D01*
X125862889Y-64855500D01*
X125888511Y-64858873D01*
X125900981Y-64862214D01*
X125950565Y-64875500D01*
X125950566Y-64875500D01*
X126049434Y-64875500D01*
X126049435Y-64875500D01*
X126099019Y-64862214D01*
X126111489Y-64858873D01*
X126137111Y-64855500D01*
X130054448Y-64855500D01*
X130112639Y-64874407D01*
X130148603Y-64923907D01*
X130150074Y-64980121D01*
X130124500Y-65075568D01*
X130124500Y-65174438D01*
X130133537Y-65208163D01*
X130150091Y-65269945D01*
X130199523Y-65355562D01*
X130199525Y-65355565D01*
X130245505Y-65401545D01*
X130273281Y-65456060D01*
X130274500Y-65471547D01*
X130274500Y-68615919D01*
X130255593Y-68674110D01*
X130225001Y-68701655D01*
X130139017Y-68751298D01*
X130069101Y-68821214D01*
X130019669Y-68906831D01*
X130005361Y-68960227D01*
X129994078Y-69002339D01*
X129994078Y-69101209D01*
X130016645Y-69185431D01*
X130019669Y-69196716D01*
X130069101Y-69282333D01*
X130069103Y-69282336D01*
X130139016Y-69352249D01*
X130139018Y-69352250D01*
X130224636Y-69401682D01*
X130224634Y-69401682D01*
X130224638Y-69401683D01*
X130224640Y-69401684D01*
X130320143Y-69427274D01*
X130320145Y-69427274D01*
X130419011Y-69427274D01*
X130419013Y-69427274D01*
X130514516Y-69401684D01*
X130514518Y-69401682D01*
X130514520Y-69401682D01*
X130543628Y-69384876D01*
X130600140Y-69352249D01*
X130670053Y-69282336D01*
X130704800Y-69222151D01*
X130719486Y-69196716D01*
X130719486Y-69196714D01*
X130719488Y-69196712D01*
X130745078Y-69101209D01*
X130745078Y-69002339D01*
X130728874Y-68941863D01*
X130725501Y-68916243D01*
X130725501Y-68895606D01*
X130725501Y-68876497D01*
X130725500Y-68876494D01*
X130725500Y-68142548D01*
X132637500Y-68142548D01*
X132637500Y-68312451D01*
X132670646Y-68479081D01*
X132670646Y-68479083D01*
X132735661Y-68636044D01*
X132819564Y-68761615D01*
X132830053Y-68777312D01*
X132950188Y-68897447D01*
X133091453Y-68991837D01*
X133091454Y-68991837D01*
X133091455Y-68991838D01*
X133111819Y-69000273D01*
X133248418Y-69056854D01*
X133415051Y-69090000D01*
X133415052Y-69090000D01*
X133584948Y-69090000D01*
X133584949Y-69090000D01*
X133751582Y-69056854D01*
X133908547Y-68991837D01*
X134049812Y-68897447D01*
X134169947Y-68777312D01*
X134264337Y-68636047D01*
X134329354Y-68479082D01*
X134362500Y-68312449D01*
X134362500Y-68142551D01*
X134329354Y-67975918D01*
X134264337Y-67818953D01*
X134169947Y-67677688D01*
X134049812Y-67557553D01*
X134041796Y-67552197D01*
X133908544Y-67463161D01*
X133751582Y-67398146D01*
X133584951Y-67365000D01*
X133584949Y-67365000D01*
X133415051Y-67365000D01*
X133415048Y-67365000D01*
X133248418Y-67398146D01*
X133248416Y-67398146D01*
X133091455Y-67463161D01*
X132950191Y-67557550D01*
X132830050Y-67677691D01*
X132735661Y-67818955D01*
X132670646Y-67975916D01*
X132670646Y-67975918D01*
X132637500Y-68142548D01*
X130725500Y-68142548D01*
X130725500Y-65602548D01*
X132637500Y-65602548D01*
X132637500Y-65772451D01*
X132670646Y-65939081D01*
X132670646Y-65939083D01*
X132735661Y-66096044D01*
X132735662Y-66096046D01*
X132735663Y-66096047D01*
X132830053Y-66237312D01*
X132950188Y-66357447D01*
X133091453Y-66451837D01*
X133248418Y-66516854D01*
X133415051Y-66550000D01*
X133415052Y-66550000D01*
X133584948Y-66550000D01*
X133584949Y-66550000D01*
X133751582Y-66516854D01*
X133908547Y-66451837D01*
X134049812Y-66357447D01*
X134169947Y-66237312D01*
X134264337Y-66096047D01*
X134329354Y-65939082D01*
X134362500Y-65772449D01*
X134362500Y-65602551D01*
X134329354Y-65435918D01*
X134315079Y-65401456D01*
X138449500Y-65401456D01*
X138449500Y-65598543D01*
X138451256Y-65607370D01*
X138484092Y-65772447D01*
X138487949Y-65791834D01*
X138487949Y-65791836D01*
X138563367Y-65973913D01*
X138563368Y-65973914D01*
X138672861Y-66137782D01*
X138812218Y-66277139D01*
X138976086Y-66386632D01*
X139158165Y-66462051D01*
X139351459Y-66500500D01*
X139351460Y-66500500D01*
X141048540Y-66500500D01*
X141048541Y-66500500D01*
X141241835Y-66462051D01*
X141423914Y-66386632D01*
X141587782Y-66277139D01*
X141727139Y-66137782D01*
X141836632Y-65973914D01*
X141912051Y-65791835D01*
X141950500Y-65598541D01*
X141950500Y-65401459D01*
X141912051Y-65208165D01*
X141836632Y-65026086D01*
X141727139Y-64862218D01*
X141587782Y-64722861D01*
X141437915Y-64622723D01*
X141423913Y-64613367D01*
X141241835Y-64537949D01*
X141048543Y-64499500D01*
X141048541Y-64499500D01*
X139351459Y-64499500D01*
X139351456Y-64499500D01*
X139158165Y-64537949D01*
X139158163Y-64537949D01*
X138976086Y-64613367D01*
X138812218Y-64722861D01*
X138812214Y-64722864D01*
X138672864Y-64862214D01*
X138672861Y-64862218D01*
X138563367Y-65026086D01*
X138487949Y-65208163D01*
X138487949Y-65208165D01*
X138449500Y-65401456D01*
X134315079Y-65401456D01*
X134277063Y-65309677D01*
X134264338Y-65278955D01*
X134169949Y-65137691D01*
X134169947Y-65137688D01*
X134049812Y-65017553D01*
X134037158Y-65009098D01*
X133908544Y-64923161D01*
X133751582Y-64858146D01*
X133584951Y-64825000D01*
X133584949Y-64825000D01*
X133415051Y-64825000D01*
X133415048Y-64825000D01*
X133248418Y-64858146D01*
X133248416Y-64858146D01*
X133091455Y-64923161D01*
X132950191Y-65017550D01*
X132830050Y-65137691D01*
X132735661Y-65278955D01*
X132670646Y-65435916D01*
X132670646Y-65435918D01*
X132637500Y-65602548D01*
X130725500Y-65602548D01*
X130725500Y-65471547D01*
X130744407Y-65413356D01*
X130754490Y-65401549D01*
X130800475Y-65355565D01*
X130849910Y-65269941D01*
X130875500Y-65174438D01*
X130875500Y-65075568D01*
X130849925Y-64980121D01*
X130853128Y-64919022D01*
X130891633Y-64871472D01*
X130945552Y-64855500D01*
X131150993Y-64855500D01*
X131151000Y-64855500D01*
X131167502Y-64854201D01*
X131198095Y-64849356D01*
X131243605Y-64830506D01*
X131243607Y-64830503D01*
X131243610Y-64830503D01*
X131275175Y-64807568D01*
X131293105Y-64794542D01*
X131331430Y-64741792D01*
X131350337Y-64683601D01*
X131350338Y-64683596D01*
X131355500Y-64651003D01*
X131355500Y-64137109D01*
X131358873Y-64111486D01*
X131375500Y-64049434D01*
X131375500Y-63950566D01*
X131375500Y-63950565D01*
X131349910Y-63855062D01*
X131345974Y-63848245D01*
X131344634Y-63841939D01*
X131319841Y-63793281D01*
X131304233Y-63775947D01*
X131300475Y-63769438D01*
X131296911Y-63765874D01*
X131281181Y-63750143D01*
X131281181Y-63750144D01*
X131279353Y-63748316D01*
X131278901Y-63747814D01*
X131278638Y-63747601D01*
X131277026Y-63745989D01*
X131277024Y-63745986D01*
X131230563Y-63699525D01*
X131230557Y-63699521D01*
X131212828Y-63689285D01*
X131176595Y-63653053D01*
X131154914Y-63615502D01*
X131145026Y-63591627D01*
X131133373Y-63548133D01*
X131130000Y-63522512D01*
X131130000Y-63477488D01*
X131133373Y-63451866D01*
X131146753Y-63401929D01*
X131146753Y-63401928D01*
X131146754Y-63401925D01*
X131150312Y-63371861D01*
X131148841Y-63315647D01*
X131128728Y-63256395D01*
X131128725Y-63256390D01*
X131092768Y-63206900D01*
X131092766Y-63206898D01*
X131092764Y-63206895D01*
X131092760Y-63206892D01*
X131092758Y-63206890D01*
X131040018Y-63168572D01*
X131040016Y-63168571D01*
X131040014Y-63168570D01*
X131011930Y-63159445D01*
X130981818Y-63149661D01*
X130949225Y-63144500D01*
X130949222Y-63144500D01*
X130637111Y-63144500D01*
X130611489Y-63141127D01*
X130577581Y-63132041D01*
X130549435Y-63124500D01*
X130450565Y-63124500D01*
X130422418Y-63132041D01*
X130388511Y-63141127D01*
X130362889Y-63144500D01*
X126137111Y-63144500D01*
X126111489Y-63141127D01*
X126077581Y-63132041D01*
X126049435Y-63124500D01*
X125950565Y-63124500D01*
X125922418Y-63132041D01*
X125888511Y-63141127D01*
X125862889Y-63144500D01*
X125450775Y-63144500D01*
X125420815Y-63148844D01*
X125366899Y-63164815D01*
X125366894Y-63164817D01*
X125314869Y-63199579D01*
X125314868Y-63199580D01*
X125276366Y-63247126D01*
X125276364Y-63247130D01*
X125253000Y-63307993D01*
X125252998Y-63308001D01*
X125249795Y-63369092D01*
X125249796Y-63369093D01*
X125249796Y-63369098D01*
X125253246Y-63401922D01*
X125253246Y-63401926D01*
X125266627Y-63451865D01*
X125270000Y-63477487D01*
X125270000Y-63522513D01*
X125266626Y-63548139D01*
X125254973Y-63591624D01*
X125245084Y-63615496D01*
X125222570Y-63654493D01*
X125206846Y-63674989D01*
X125204397Y-63677438D01*
X125198764Y-63683532D01*
X125188682Y-63695337D01*
X125188677Y-63695345D01*
X125168572Y-63731248D01*
X125168570Y-63731251D01*
X125149661Y-63789446D01*
X125144500Y-63822040D01*
X125144500Y-63862889D01*
X125141539Y-63885378D01*
X125141626Y-63886569D01*
X125141378Y-63887572D01*
X125124500Y-63950565D01*
X120631099Y-63950565D01*
X120631099Y-63765878D01*
X120625269Y-63736563D01*
X120621720Y-63731252D01*
X120603060Y-63703323D01*
X120603059Y-63703322D01*
X120603057Y-63703319D01*
X120569813Y-63681107D01*
X120569812Y-63681106D01*
X120569811Y-63681106D01*
X120540499Y-63675276D01*
X118996701Y-63675276D01*
X118967385Y-63681107D01*
X118934147Y-63703315D01*
X118934142Y-63703320D01*
X118911930Y-63736564D01*
X118906100Y-63765874D01*
X117618885Y-63765874D01*
X117480182Y-63708422D01*
X117313551Y-63675276D01*
X117313549Y-63675276D01*
X117143651Y-63675276D01*
X117143648Y-63675276D01*
X116977018Y-63708422D01*
X116977016Y-63708422D01*
X116820055Y-63773437D01*
X116678791Y-63867826D01*
X116558650Y-63987967D01*
X116464261Y-64129231D01*
X116399246Y-64286192D01*
X116399246Y-64286194D01*
X116366100Y-64452824D01*
X114609699Y-64452824D01*
X114609699Y-63765878D01*
X114603869Y-63736563D01*
X114600320Y-63731252D01*
X114581660Y-63703323D01*
X114581659Y-63703322D01*
X114581657Y-63703319D01*
X114548413Y-63681107D01*
X114548412Y-63681106D01*
X114548411Y-63681106D01*
X114519099Y-63675276D01*
X112975301Y-63675276D01*
X112945985Y-63681107D01*
X112912747Y-63703315D01*
X112912742Y-63703320D01*
X112890530Y-63736564D01*
X112884700Y-63765874D01*
X111597485Y-63765874D01*
X111458782Y-63708422D01*
X111292151Y-63675276D01*
X111292149Y-63675276D01*
X111122251Y-63675276D01*
X111122248Y-63675276D01*
X110955618Y-63708422D01*
X110955616Y-63708422D01*
X110798655Y-63773437D01*
X110657391Y-63867826D01*
X110537250Y-63987967D01*
X110442861Y-64129231D01*
X110377846Y-64286192D01*
X110377846Y-64286194D01*
X110344700Y-64452824D01*
X109160100Y-64452824D01*
X109160100Y-64250001D01*
X109160099Y-64250000D01*
X107922461Y-64250000D01*
X107929357Y-64233351D01*
X107960100Y-64078793D01*
X107960100Y-63921207D01*
X107929357Y-63766649D01*
X107922461Y-63750000D01*
X109160099Y-63750000D01*
X109160100Y-63749999D01*
X109160100Y-62452175D01*
X109153698Y-62392629D01*
X109153696Y-62392618D01*
X109103453Y-62257911D01*
X109103452Y-62257909D01*
X109017292Y-62142815D01*
X109017284Y-62142807D01*
X108902190Y-62056647D01*
X108902188Y-62056646D01*
X108767481Y-62006403D01*
X108767470Y-62006401D01*
X108707924Y-62000000D01*
X107410101Y-62000000D01*
X107410100Y-62000001D01*
X107410100Y-63237639D01*
X107393451Y-63230743D01*
X107238893Y-63200000D01*
X107081307Y-63200000D01*
X106926749Y-63230743D01*
X106910100Y-63237639D01*
X106910100Y-62000001D01*
X106910099Y-62000000D01*
X105612276Y-62000000D01*
X105552729Y-62006401D01*
X105552718Y-62006403D01*
X105418011Y-62056646D01*
X105418009Y-62056647D01*
X105302915Y-62142807D01*
X105302907Y-62142815D01*
X105216747Y-62257909D01*
X105216746Y-62257911D01*
X105166503Y-62392618D01*
X105166501Y-62392629D01*
X105160100Y-62452175D01*
X105160100Y-63749999D01*
X105160101Y-63750000D01*
X106397739Y-63750000D01*
X106390843Y-63766649D01*
X106360100Y-63921207D01*
X106360100Y-64078793D01*
X106390843Y-64233351D01*
X106397739Y-64250000D01*
X105160101Y-64250000D01*
X105160100Y-64250001D01*
X105160100Y-65547824D01*
X105160099Y-65547824D01*
X103638713Y-65547824D01*
X103837479Y-65483241D01*
X104061945Y-65368870D01*
X104265756Y-65220793D01*
X104443893Y-65042656D01*
X104591970Y-64838845D01*
X104706341Y-64614379D01*
X104784190Y-64374785D01*
X104818210Y-64159986D01*
X104823600Y-64125963D01*
X104823600Y-63874034D01*
X104784191Y-63625219D01*
X104777366Y-63604214D01*
X104706341Y-63385621D01*
X104591970Y-63161155D01*
X104443893Y-62957344D01*
X104265756Y-62779207D01*
X104061945Y-62631130D01*
X104061944Y-62631129D01*
X104061942Y-62631128D01*
X103878639Y-62537731D01*
X103837479Y-62516759D01*
X103597880Y-62438908D01*
X103349065Y-62399500D01*
X103349062Y-62399500D01*
X103097138Y-62399500D01*
X103097135Y-62399500D01*
X102848319Y-62438908D01*
X102608720Y-62516759D01*
X102384257Y-62631128D01*
X102180445Y-62779206D01*
X102002306Y-62957345D01*
X101854228Y-63161157D01*
X101739859Y-63385620D01*
X101662008Y-63625219D01*
X101622600Y-63874034D01*
X101622600Y-64125965D01*
X101662008Y-64374780D01*
X101739859Y-64614379D01*
X101850451Y-64831430D01*
X101854230Y-64838845D01*
X101893370Y-64892717D01*
X101912277Y-64950907D01*
X101893370Y-65009098D01*
X101883281Y-65020911D01*
X97937922Y-68966273D01*
X97883405Y-68994050D01*
X97867918Y-68995269D01*
X97085512Y-68995269D01*
X97085504Y-68995268D01*
X97073981Y-68995268D01*
X96984272Y-68995268D01*
X96984271Y-68995268D01*
X96954564Y-69007572D01*
X96954565Y-69007573D01*
X96901390Y-69029598D01*
X96837955Y-69093032D01*
X96837956Y-69093033D01*
X96837955Y-69093034D01*
X96837954Y-69093034D01*
X96561844Y-69369143D01*
X96507328Y-69396920D01*
X96446896Y-69387349D01*
X96442341Y-69384876D01*
X96418064Y-69370859D01*
X96361955Y-69355825D01*
X96322560Y-69345269D01*
X96223690Y-69345269D01*
X96184295Y-69355825D01*
X96128182Y-69370860D01*
X96042565Y-69420292D01*
X95972648Y-69490209D01*
X95923216Y-69575826D01*
X95923215Y-69575831D01*
X95897625Y-69671334D01*
X91500500Y-69671334D01*
X91500500Y-67357820D01*
X94944388Y-67357820D01*
X94944388Y-67456690D01*
X94959106Y-67511617D01*
X94969979Y-67552197D01*
X94995986Y-67597241D01*
X95019413Y-67637817D01*
X95089326Y-67707730D01*
X95089328Y-67707731D01*
X95174946Y-67757163D01*
X95174944Y-67757163D01*
X95174948Y-67757164D01*
X95174950Y-67757165D01*
X95270453Y-67782755D01*
X95270455Y-67782755D01*
X95369321Y-67782755D01*
X95369323Y-67782755D01*
X95464826Y-67757165D01*
X95464828Y-67757163D01*
X95464830Y-67757163D01*
X95490783Y-67742179D01*
X95550450Y-67707730D01*
X95620363Y-67637817D01*
X95655110Y-67577632D01*
X95669796Y-67552197D01*
X95669796Y-67552195D01*
X95669798Y-67552193D01*
X95695388Y-67456690D01*
X95695388Y-67391666D01*
X95714295Y-67333475D01*
X95724385Y-67321662D01*
X95866912Y-67179136D01*
X95921428Y-67151359D01*
X95936915Y-67150140D01*
X97368027Y-67150140D01*
X97375624Y-67152608D01*
X97383514Y-67151359D01*
X97404169Y-67161883D01*
X97426218Y-67169047D01*
X97438031Y-67179136D01*
X97539983Y-67281088D01*
X97567760Y-67335605D01*
X97568979Y-67351092D01*
X97568979Y-67416114D01*
X97581585Y-67463161D01*
X97594570Y-67511621D01*
X97644002Y-67597238D01*
X97644004Y-67597241D01*
X97713917Y-67667154D01*
X97732168Y-67677691D01*
X97799537Y-67716587D01*
X97799535Y-67716587D01*
X97799539Y-67716588D01*
X97799541Y-67716589D01*
X97895044Y-67742179D01*
X97895046Y-67742179D01*
X97993912Y-67742179D01*
X97993914Y-67742179D01*
X98089417Y-67716589D01*
X98089419Y-67716587D01*
X98089421Y-67716587D01*
X98114856Y-67701901D01*
X98175041Y-67667154D01*
X98244954Y-67597241D01*
X98294389Y-67511617D01*
X98319979Y-67416114D01*
X98319979Y-67317244D01*
X98294389Y-67221741D01*
X98294387Y-67221738D01*
X98294387Y-67221736D01*
X98244955Y-67136119D01*
X98244954Y-67136117D01*
X98175041Y-67066204D01*
X98175038Y-67066202D01*
X98089420Y-67016770D01*
X98089422Y-67016770D01*
X98037131Y-67002759D01*
X97993914Y-66991179D01*
X97928892Y-66991179D01*
X97870701Y-66972272D01*
X97858888Y-66962183D01*
X97693610Y-66796905D01*
X97693610Y-66796904D01*
X97630176Y-66733470D01*
X97630172Y-66733468D01*
X97605898Y-66723413D01*
X97605898Y-66723412D01*
X97571568Y-66709193D01*
X97547295Y-66699139D01*
X97457585Y-66699139D01*
X97446062Y-66699139D01*
X97446054Y-66699140D01*
X95858889Y-66699140D01*
X95858881Y-66699139D01*
X95847358Y-66699139D01*
X95757649Y-66699139D01*
X95757647Y-66699139D01*
X95709097Y-66719249D01*
X95674768Y-66733468D01*
X95674766Y-66733470D01*
X95611332Y-66796903D01*
X95611333Y-66796904D01*
X95405478Y-67002759D01*
X95350961Y-67030536D01*
X95335474Y-67031755D01*
X95270453Y-67031755D01*
X95212002Y-67047416D01*
X95174945Y-67057346D01*
X95089328Y-67106778D01*
X95019411Y-67176695D01*
X94969979Y-67262312D01*
X94969978Y-67262317D01*
X94944388Y-67357820D01*
X91500500Y-67357820D01*
X91500500Y-61424234D01*
X124734500Y-61424234D01*
X124734500Y-61575766D01*
X124769086Y-61704847D01*
X124773720Y-61722139D01*
X124849481Y-61853360D01*
X124849483Y-61853362D01*
X124849485Y-61853365D01*
X124956635Y-61960515D01*
X124956637Y-61960516D01*
X124956639Y-61960518D01*
X125087861Y-62036279D01*
X125087859Y-62036279D01*
X125087863Y-62036280D01*
X125087865Y-62036281D01*
X125234234Y-62075500D01*
X125234236Y-62075500D01*
X125385764Y-62075500D01*
X125385766Y-62075500D01*
X125532135Y-62036281D01*
X125532137Y-62036279D01*
X125532139Y-62036279D01*
X125663360Y-61960518D01*
X125663360Y-61960517D01*
X125663365Y-61960515D01*
X125770515Y-61853365D01*
X125846281Y-61722135D01*
X125885500Y-61575766D01*
X125885500Y-61424234D01*
X130514500Y-61424234D01*
X130514500Y-61575766D01*
X130549086Y-61704847D01*
X130553720Y-61722139D01*
X130629481Y-61853360D01*
X130629483Y-61853362D01*
X130629485Y-61853365D01*
X130736635Y-61960515D01*
X130736637Y-61960516D01*
X130736639Y-61960518D01*
X130867861Y-62036279D01*
X130867859Y-62036279D01*
X130867863Y-62036280D01*
X130867865Y-62036281D01*
X131014234Y-62075500D01*
X131014236Y-62075500D01*
X131165764Y-62075500D01*
X131165766Y-62075500D01*
X131312135Y-62036281D01*
X131312137Y-62036279D01*
X131312139Y-62036279D01*
X131443360Y-61960518D01*
X131443360Y-61960517D01*
X131443365Y-61960515D01*
X131550515Y-61853365D01*
X131626281Y-61722135D01*
X131665500Y-61575766D01*
X131665500Y-61424234D01*
X131626281Y-61277865D01*
X131626279Y-61277862D01*
X131626279Y-61277860D01*
X131550518Y-61146639D01*
X131550516Y-61146637D01*
X131550515Y-61146635D01*
X131443365Y-61039485D01*
X131443362Y-61039483D01*
X131443360Y-61039481D01*
X131312138Y-60963720D01*
X131312140Y-60963720D01*
X131255347Y-60948503D01*
X131165766Y-60924500D01*
X131014234Y-60924500D01*
X130924652Y-60948503D01*
X130867860Y-60963720D01*
X130736639Y-61039481D01*
X130629481Y-61146639D01*
X130553720Y-61277860D01*
X130553719Y-61277865D01*
X130514500Y-61424234D01*
X125885500Y-61424234D01*
X125846281Y-61277865D01*
X125846279Y-61277862D01*
X125846279Y-61277860D01*
X125770518Y-61146639D01*
X125770516Y-61146637D01*
X125770515Y-61146635D01*
X125663365Y-61039485D01*
X125663362Y-61039483D01*
X125663360Y-61039481D01*
X125532138Y-60963720D01*
X125532140Y-60963720D01*
X125475347Y-60948503D01*
X125385766Y-60924500D01*
X125234234Y-60924500D01*
X125144652Y-60948503D01*
X125087860Y-60963720D01*
X124956639Y-61039481D01*
X124849481Y-61146639D01*
X124773720Y-61277860D01*
X124773719Y-61277865D01*
X124734500Y-61424234D01*
X91500500Y-61424234D01*
X91500500Y-59252435D01*
X91500619Y-59247578D01*
X91514063Y-58973913D01*
X91517113Y-58911824D01*
X91518063Y-58902186D01*
X91567029Y-58572080D01*
X91568918Y-58562582D01*
X91650009Y-58238849D01*
X91652818Y-58229590D01*
X91765249Y-57915367D01*
X91768958Y-57906412D01*
X91911644Y-57604728D01*
X91916211Y-57596185D01*
X92087780Y-57309938D01*
X92093163Y-57301883D01*
X92291957Y-57033841D01*
X92298107Y-57026346D01*
X92411301Y-56901456D01*
X101249500Y-56901456D01*
X101249500Y-58598543D01*
X101287949Y-58791834D01*
X101287949Y-58791836D01*
X101363367Y-58973913D01*
X101363368Y-58973914D01*
X101472861Y-59137782D01*
X101612218Y-59277139D01*
X101776086Y-59386632D01*
X101958165Y-59462051D01*
X102151459Y-59500500D01*
X102151460Y-59500500D01*
X102348540Y-59500500D01*
X102348541Y-59500500D01*
X102541835Y-59462051D01*
X102723914Y-59386632D01*
X102887782Y-59277139D01*
X103027139Y-59137782D01*
X103136632Y-58973914D01*
X103212051Y-58791835D01*
X103250500Y-58598541D01*
X103250500Y-56901459D01*
X103250499Y-56901456D01*
X107249500Y-56901456D01*
X107249500Y-58598543D01*
X107287949Y-58791834D01*
X107287949Y-58791836D01*
X107363367Y-58973913D01*
X107363368Y-58973914D01*
X107472861Y-59137782D01*
X107612218Y-59277139D01*
X107776086Y-59386632D01*
X107958165Y-59462051D01*
X108151459Y-59500500D01*
X108151460Y-59500500D01*
X108348540Y-59500500D01*
X108348541Y-59500500D01*
X108541835Y-59462051D01*
X108723914Y-59386632D01*
X108887782Y-59277139D01*
X109027139Y-59137782D01*
X109136632Y-58973914D01*
X109212051Y-58791835D01*
X109250500Y-58598541D01*
X109250500Y-56901459D01*
X109250499Y-56901456D01*
X111499500Y-56901456D01*
X111499500Y-58598543D01*
X111537949Y-58791834D01*
X111537949Y-58791836D01*
X111613367Y-58973913D01*
X111613368Y-58973914D01*
X111722861Y-59137782D01*
X111862218Y-59277139D01*
X112026086Y-59386632D01*
X112208165Y-59462051D01*
X112401459Y-59500500D01*
X112401460Y-59500500D01*
X112598540Y-59500500D01*
X112598541Y-59500500D01*
X112791835Y-59462051D01*
X112973914Y-59386632D01*
X113137782Y-59277139D01*
X113277139Y-59137782D01*
X113386632Y-58973914D01*
X113462051Y-58791835D01*
X113500500Y-58598541D01*
X113500500Y-56901459D01*
X113500499Y-56901456D01*
X117499500Y-56901456D01*
X117499500Y-58598543D01*
X117537949Y-58791834D01*
X117537949Y-58791836D01*
X117613367Y-58973913D01*
X117613368Y-58973914D01*
X117722861Y-59137782D01*
X117862218Y-59277139D01*
X118026086Y-59386632D01*
X118208165Y-59462051D01*
X118401459Y-59500500D01*
X118401460Y-59500500D01*
X118598540Y-59500500D01*
X118598541Y-59500500D01*
X118791835Y-59462051D01*
X118973914Y-59386632D01*
X119137782Y-59277139D01*
X119277139Y-59137782D01*
X119386632Y-58973914D01*
X119462051Y-58791835D01*
X119500500Y-58598541D01*
X119500500Y-56901459D01*
X119462051Y-56708165D01*
X119386632Y-56526086D01*
X119277139Y-56362218D01*
X119137782Y-56222861D01*
X118973914Y-56113368D01*
X118973915Y-56113368D01*
X118973913Y-56113367D01*
X118791835Y-56037949D01*
X118598543Y-55999500D01*
X118598541Y-55999500D01*
X118401459Y-55999500D01*
X118401456Y-55999500D01*
X118208165Y-56037949D01*
X118208163Y-56037949D01*
X118026086Y-56113367D01*
X117862218Y-56222861D01*
X117862214Y-56222864D01*
X117722864Y-56362214D01*
X117722861Y-56362218D01*
X117613367Y-56526086D01*
X117537949Y-56708163D01*
X117537949Y-56708165D01*
X117499500Y-56901456D01*
X113500499Y-56901456D01*
X113462051Y-56708165D01*
X113386632Y-56526086D01*
X113277139Y-56362218D01*
X113137782Y-56222861D01*
X112973914Y-56113368D01*
X112973915Y-56113368D01*
X112973913Y-56113367D01*
X112791835Y-56037949D01*
X112598543Y-55999500D01*
X112598541Y-55999500D01*
X112401459Y-55999500D01*
X112401456Y-55999500D01*
X112208165Y-56037949D01*
X112208163Y-56037949D01*
X112026086Y-56113367D01*
X111862218Y-56222861D01*
X111862214Y-56222864D01*
X111722864Y-56362214D01*
X111722861Y-56362218D01*
X111613367Y-56526086D01*
X111537949Y-56708163D01*
X111537949Y-56708165D01*
X111499500Y-56901456D01*
X109250499Y-56901456D01*
X109212051Y-56708165D01*
X109136632Y-56526086D01*
X109027139Y-56362218D01*
X108887782Y-56222861D01*
X108723914Y-56113368D01*
X108723915Y-56113368D01*
X108723913Y-56113367D01*
X108541835Y-56037949D01*
X108348543Y-55999500D01*
X108348541Y-55999500D01*
X108151459Y-55999500D01*
X108151456Y-55999500D01*
X107958165Y-56037949D01*
X107958163Y-56037949D01*
X107776086Y-56113367D01*
X107612218Y-56222861D01*
X107612214Y-56222864D01*
X107472864Y-56362214D01*
X107472861Y-56362218D01*
X107363367Y-56526086D01*
X107287949Y-56708163D01*
X107287949Y-56708165D01*
X107249500Y-56901456D01*
X103250499Y-56901456D01*
X103212051Y-56708165D01*
X103136632Y-56526086D01*
X103027139Y-56362218D01*
X102887782Y-56222861D01*
X102723914Y-56113368D01*
X102723915Y-56113368D01*
X102723913Y-56113367D01*
X102541835Y-56037949D01*
X102348543Y-55999500D01*
X102348541Y-55999500D01*
X102151459Y-55999500D01*
X102151456Y-55999500D01*
X101958165Y-56037949D01*
X101958163Y-56037949D01*
X101776086Y-56113367D01*
X101612218Y-56222861D01*
X101612214Y-56222864D01*
X101472864Y-56362214D01*
X101472861Y-56362218D01*
X101363367Y-56526086D01*
X101287949Y-56708163D01*
X101287949Y-56708165D01*
X101249500Y-56901456D01*
X92411301Y-56901456D01*
X92522228Y-56779067D01*
X92529067Y-56772228D01*
X92776346Y-56548107D01*
X92783841Y-56541957D01*
X93051883Y-56343163D01*
X93059938Y-56337780D01*
X93346185Y-56166211D01*
X93354728Y-56161644D01*
X93656412Y-56018958D01*
X93665367Y-56015249D01*
X93979590Y-55902818D01*
X93988849Y-55900009D01*
X94312582Y-55818918D01*
X94322080Y-55817029D01*
X94652186Y-55768063D01*
X94661824Y-55767113D01*
X94970606Y-55751944D01*
X94997579Y-55750619D01*
X95002436Y-55750500D01*
X95065892Y-55750500D01*
X138934108Y-55750500D01*
X138997564Y-55750500D01*
X139002421Y-55750619D01*
G37*
%TD.AperFunction*%
%TD*%
%TA.AperFunction,Conductor*%
%TO.N,VBUS*%
G36*
X130273331Y-73268907D02*
G01*
X130309295Y-73318407D01*
X130313292Y-73361927D01*
X130312924Y-73364721D01*
X130312924Y-73364722D01*
X130312924Y-73463592D01*
X130335491Y-73547814D01*
X130338515Y-73559099D01*
X130387947Y-73644716D01*
X130387949Y-73644719D01*
X130457862Y-73714632D01*
X130457864Y-73714633D01*
X130543482Y-73764065D01*
X130543480Y-73764065D01*
X130543484Y-73764066D01*
X130543486Y-73764067D01*
X130638989Y-73789657D01*
X130638991Y-73789657D01*
X130651000Y-73789657D01*
X130709191Y-73808564D01*
X130745155Y-73858064D01*
X130750000Y-73888657D01*
X130750000Y-75899715D01*
X130731093Y-75957906D01*
X130681593Y-75993870D01*
X130649724Y-75998707D01*
X129583802Y-75984965D01*
X129525860Y-75965309D01*
X129515075Y-75955977D01*
X129471557Y-75912460D01*
X129471556Y-75912459D01*
X129445488Y-75899715D01*
X129366468Y-75861084D01*
X129339212Y-75857113D01*
X129298333Y-75851157D01*
X128201813Y-75851157D01*
X128167746Y-75856120D01*
X128133677Y-75861084D01*
X128028589Y-75912459D01*
X128006323Y-75934724D01*
X127951806Y-75962500D01*
X127935046Y-75963710D01*
X127628596Y-75959760D01*
X127570654Y-75940104D01*
X127559875Y-75930778D01*
X127541556Y-75912459D01*
X127515488Y-75899715D01*
X127436468Y-75861084D01*
X127409212Y-75857113D01*
X127368333Y-75851157D01*
X127099000Y-75851157D01*
X127040809Y-75832250D01*
X127004845Y-75782750D01*
X127000000Y-75752157D01*
X127000000Y-73349000D01*
X127018907Y-73290809D01*
X127068407Y-73254845D01*
X127099000Y-73250000D01*
X130215140Y-73250000D01*
X130273331Y-73268907D01*
G37*
%TD.AperFunction*%
%TD*%
%TA.AperFunction,Conductor*%
%TO.N,VBUS*%
G36*
X131007413Y-63268907D02*
G01*
X131043377Y-63318407D01*
X131044848Y-63374621D01*
X131024500Y-63450565D01*
X131024500Y-63549435D01*
X131047067Y-63633657D01*
X131050091Y-63644942D01*
X131099523Y-63730559D01*
X131099525Y-63730562D01*
X131169438Y-63800475D01*
X131200500Y-63818409D01*
X131241440Y-63863876D01*
X131250000Y-63904144D01*
X131250000Y-64651000D01*
X131231093Y-64709191D01*
X131181593Y-64745155D01*
X131151000Y-64750000D01*
X130551290Y-64750000D01*
X130549435Y-64749503D01*
X130450565Y-64749503D01*
X130448710Y-64750000D01*
X125349000Y-64750000D01*
X125290809Y-64731093D01*
X125254845Y-64681593D01*
X125250000Y-64651000D01*
X125250000Y-63822044D01*
X125268907Y-63763853D01*
X125278990Y-63752046D01*
X125300475Y-63730562D01*
X125349910Y-63644938D01*
X125375500Y-63549435D01*
X125375500Y-63450565D01*
X125355151Y-63374621D01*
X125358354Y-63313521D01*
X125396859Y-63265972D01*
X125450778Y-63250000D01*
X130949222Y-63250000D01*
X131007413Y-63268907D01*
G37*
%TD.AperFunction*%
%TD*%
M02*
