M48
; DRILL file {KiCad 9.0.8} date 2026-04-12T17:16:59-0700
; FORMAT={-:-/ absolute / metric / decimal}
; #@! TF.CreationDate,2026-04-12T17:16:59-07:00
; #@! TF.GenerationSoftware,Kicad,Pcbnew,9.0.8
; #@! TF.FileFunction,Plated,1,2,PTH
FMAT,2
METRIC
; #@! TA.AperFunction,Plated,PTH,ComponentDrill
T1C0.200
; #@! TA.AperFunction,Plated,PTH,ViaDrill
T2C0.250
; #@! TA.AperFunction,Plated,PTH,ComponentDrill
T3C1.016
; #@! TA.AperFunction,Plated,PTH,ComponentDrill
T4C1.600
; #@! TA.AperFunction,Plated,PTH,ComponentDrill
T5C3.200
%
G90
G05
T1
X102.134Y-70.394
X102.134Y-71.394
X102.134Y-85.244
X102.134Y-86.244
X103.134Y-70.394
X103.134Y-71.394
X103.134Y-85.244
X103.134Y-86.244
X104.134Y-70.394
X104.134Y-71.394
X104.134Y-85.244
X104.134Y-86.244
X115.738Y-72.117
X115.738Y-73.217
X125.115Y-77.277
X125.691Y-68.98
X125.691Y-70.08
X126.225Y-76.202
X126.225Y-77.277
X126.225Y-78.352
X127.335Y-77.277
X128.75Y-76.202
X128.75Y-77.277
X128.75Y-78.352
T2
X97.1Y-78.5
X97.1Y-81.5
X100.5Y-78.0
X100.553Y-69.052
X100.586Y-82.068
X101.034Y-67.899
X101.646Y-82.137
X102.889Y-73.086
X102.889Y-87.936
X103.5Y-78.0
X104.745Y-81.846
X104.75Y-67.0
X105.093Y-73.9
X105.093Y-88.75
X106.735Y-74.407
X106.75Y-89.25
X108.0Y-78.0
X108.877Y-66.5
X108.877Y-81.25
X111.0Y-78.0
X113.263Y-70.74
X114.0Y-78.0
X114.001Y-85.65
X116.626Y-71.404
X116.999Y-78.0
X117.0Y-85.65
X118.225Y-70.75
X118.5Y-87.0
X119.75Y-81.25
X120.0Y-85.65
X120.247Y-77.795
X120.851Y-77.954
X121.368Y-82.112
X121.728Y-77.861
X121.75Y-73.246
X123.0Y-85.65
X123.09Y-59.5
X123.09Y-63.5
X123.862Y-65.5
X123.862Y-66.5
X124.191Y-68.88
X124.191Y-69.53
X124.191Y-70.18
X124.202Y-71.558
X124.25Y-75.75
X125.0Y-63.5
X125.35Y-72.783
X125.5Y-64.0
X126.0Y-63.5
X126.0Y-64.5
X126.05Y-79.977
X126.79Y-80.0
X126.944Y-81.356
X127.521Y-73.498
X127.521Y-74.498
X127.59Y-80.0
X128.021Y-73.998
X128.777Y-71.56
X129.366Y-72.717
X129.413Y-83.034
X130.228Y-74.756
X130.235Y-75.592
X130.37Y-69.052
X130.5Y-63.5
X130.5Y-64.5
X130.5Y-65.125
X130.545Y-75.177
X130.688Y-73.414
X130.95Y-77.56
X131.0Y-64.0
X131.0Y-66.75
X131.0Y-83.627
X131.4Y-63.5
X132.821Y-78.51
X133.31Y-59.5
X133.31Y-63.5
X134.393Y-77.898
X134.442Y-74.0
X134.5Y-75.75
X134.5Y-76.5
X135.997Y-74.782
X139.073Y-74.959
X139.073Y-75.959
X139.073Y-76.959
T3
X111.207Y-64.038
X113.747Y-64.038
X113.981Y-69.0
X116.521Y-69.0
X117.229Y-64.038
X119.769Y-64.038
X122.25Y-69.131
X122.25Y-71.671
X125.976Y-86.75
X128.5Y-86.75
X131.024Y-86.75
X133.5Y-65.688
X133.5Y-68.227
X133.5Y-70.767
X133.75Y-80.481
X133.75Y-83.021
T4
X103.223Y-63.5
X107.16Y-63.5
T5
X95.0Y-59.25
X95.0Y-88.75
X139.0Y-59.25
X139.0Y-88.75
M30
