%TF.GenerationSoftware,KiCad,Pcbnew,9.0.8*%
%TF.CreationDate,2026-04-12T16:54:24-07:00*%
%TF.ProjectId,Cave_Radio_PDB,43617665-5f52-4616-9469-6f5f5044422e,rev?*%
%TF.SameCoordinates,Original*%
%TF.FileFunction,Paste,Top*%
%TF.FilePolarity,Positive*%
%FSLAX46Y46*%
G04 Gerber Fmt 4.6, Leading zero omitted, Abs format (unit mm)*
G04 Created by KiCad (PCBNEW 9.0.8) date 2026-04-12 16:54:24*
%MOMM*%
%LPD*%
G01*
G04 APERTURE LIST*
G04 Aperture macros list*
%AMRoundRect*
0 Rectangle with rounded corners*
0 $1 Rounding radius*
0 $2 $3 $4 $5 $6 $7 $8 $9 X,Y pos of 4 corners*
0 Add a 4 corners polygon primitive as box body*
4,1,4,$2,$3,$4,$5,$6,$7,$8,$9,$2,$3,0*
0 Add four circle primitives for the rounded corners*
1,1,$1+$1,$2,$3*
1,1,$1+$1,$4,$5*
1,1,$1+$1,$6,$7*
1,1,$1+$1,$8,$9*
0 Add four rect primitives between the rounded corners*
20,1,$1+$1,$2,$3,$4,$5,0*
20,1,$1+$1,$4,$5,$6,$7,0*
20,1,$1+$1,$6,$7,$8,$9,0*
20,1,$1+$1,$8,$9,$2,$3,0*%
G04 Aperture macros list end*
%ADD10C,0.100000*%
%ADD11RoundRect,0.135000X0.135000X0.185000X-0.135000X0.185000X-0.135000X-0.185000X0.135000X-0.185000X0*%
%ADD12R,0.711200X0.254000*%
%ADD13R,1.295400X1.397000*%
%ADD14R,2.200000X1.100000*%
%ADD15RoundRect,0.087500X-0.250000X-0.087500X0.250000X-0.087500X0.250000X0.087500X-0.250000X0.087500X0*%
%ADD16RoundRect,0.200000X0.200000X0.275000X-0.200000X0.275000X-0.200000X-0.275000X0.200000X-0.275000X0*%
%ADD17RoundRect,0.140000X0.170000X-0.140000X0.170000X0.140000X-0.170000X0.140000X-0.170000X-0.140000X0*%
%ADD18RoundRect,0.140000X-0.140000X-0.170000X0.140000X-0.170000X0.140000X0.170000X-0.140000X0.170000X0*%
%ADD19RoundRect,0.135000X-0.135000X-0.185000X0.135000X-0.185000X0.135000X0.185000X-0.135000X0.185000X0*%
%ADD20RoundRect,0.140000X0.140000X0.170000X-0.140000X0.170000X-0.140000X-0.170000X0.140000X-0.170000X0*%
%ADD21RoundRect,0.135000X0.185000X-0.135000X0.185000X0.135000X-0.185000X0.135000X-0.185000X-0.135000X0*%
%ADD22R,4.648200X1.397000*%
%ADD23RoundRect,0.172500X0.262500X0.172500X-0.262500X0.172500X-0.262500X-0.172500X0.262500X-0.172500X0*%
%ADD24RoundRect,0.093750X0.093750X0.106250X-0.093750X0.106250X-0.093750X-0.106250X0.093750X-0.106250X0*%
%ADD25RoundRect,0.200000X0.275000X-0.200000X0.275000X0.200000X-0.275000X0.200000X-0.275000X-0.200000X0*%
%ADD26RoundRect,0.162500X-0.377500X0.162500X-0.377500X-0.162500X0.377500X-0.162500X0.377500X0.162500X0*%
%ADD27RoundRect,0.062500X-0.062500X0.375000X-0.062500X-0.375000X0.062500X-0.375000X0.062500X0.375000X0*%
%ADD28RoundRect,0.135000X-0.185000X0.135000X-0.185000X-0.135000X0.185000X-0.135000X0.185000X0.135000X0*%
%ADD29RoundRect,0.172500X-0.262500X-0.172500X0.262500X-0.172500X0.262500X0.172500X-0.262500X0.172500X0*%
%ADD30RoundRect,0.093750X-0.093750X-0.106250X0.093750X-0.106250X0.093750X0.106250X-0.093750X0.106250X0*%
%ADD31R,1.100000X2.200000*%
%ADD32R,0.600000X1.150000*%
%ADD33R,0.300000X1.150000*%
%ADD34R,2.180000X2.000000*%
%ADD35RoundRect,0.250000X0.335000X0.335000X-0.335000X0.335000X-0.335000X-0.335000X0.335000X-0.335000X0*%
%ADD36RoundRect,0.250000X0.345000X0.335000X-0.345000X0.335000X-0.345000X-0.335000X0.345000X-0.335000X0*%
%ADD37RoundRect,0.250000X0.450000X0.335000X-0.450000X0.335000X-0.450000X-0.335000X0.450000X-0.335000X0*%
%ADD38RoundRect,0.050000X-0.225000X-0.050000X0.225000X-0.050000X0.225000X0.050000X-0.225000X0.050000X0*%
%ADD39RoundRect,0.050000X0.050000X-0.225000X0.050000X0.225000X-0.050000X0.225000X-0.050000X-0.225000X0*%
%ADD40RoundRect,0.200000X-0.200000X-0.275000X0.200000X-0.275000X0.200000X0.275000X-0.200000X0.275000X0*%
G04 APERTURE END LIST*
D10*
%TO.C,U1*%
X126040073Y-75476657D02*
X126340073Y-75476657D01*
X126340073Y-75126657D01*
X126440073Y-75126657D01*
X126440073Y-75576657D01*
X125940073Y-75576657D01*
X125940073Y-75126657D01*
X126040073Y-75126657D01*
X126040073Y-75476657D01*
G36*
X126040073Y-75476657D02*
G01*
X126340073Y-75476657D01*
X126340073Y-75126657D01*
X126440073Y-75126657D01*
X126440073Y-75576657D01*
X125940073Y-75576657D01*
X125940073Y-75126657D01*
X126040073Y-75126657D01*
X126040073Y-75476657D01*
G37*
X126840073Y-75476657D02*
X127140073Y-75476657D01*
X127140073Y-75126657D01*
X127240073Y-75126657D01*
X127240073Y-75576657D01*
X126740073Y-75576657D01*
X126740073Y-75126657D01*
X126840073Y-75126657D01*
X126840073Y-75476657D01*
G36*
X126840073Y-75476657D02*
G01*
X127140073Y-75476657D01*
X127140073Y-75126657D01*
X127240073Y-75126657D01*
X127240073Y-75576657D01*
X126740073Y-75576657D01*
X126740073Y-75126657D01*
X126840073Y-75126657D01*
X126840073Y-75476657D01*
G37*
X130340073Y-76214157D02*
X129990073Y-76214157D01*
X129990073Y-76564157D01*
X130340073Y-76564157D01*
X130340073Y-76664157D01*
X129990073Y-76664157D01*
X129990073Y-77014157D01*
X130340073Y-77014157D01*
X130340073Y-77114157D01*
X129890073Y-77114157D01*
X129890073Y-76114157D01*
X130340073Y-76114157D01*
X130340073Y-76214157D01*
G36*
X130340073Y-76214157D02*
G01*
X129990073Y-76214157D01*
X129990073Y-76564157D01*
X130340073Y-76564157D01*
X130340073Y-76664157D01*
X129990073Y-76664157D01*
X129990073Y-77014157D01*
X130340073Y-77014157D01*
X130340073Y-77114157D01*
X129890073Y-77114157D01*
X129890073Y-76114157D01*
X130340073Y-76114157D01*
X130340073Y-76214157D01*
G37*
X130340073Y-77539157D02*
X129990073Y-77539157D01*
X129990073Y-77889157D01*
X130340073Y-77889157D01*
X130340073Y-77989157D01*
X129990073Y-77989157D01*
X129990073Y-78339157D01*
X130340073Y-78339157D01*
X130340073Y-78439157D01*
X129890073Y-78439157D01*
X129890073Y-77439157D01*
X130340073Y-77439157D01*
X130340073Y-77539157D01*
G36*
X130340073Y-77539157D02*
G01*
X129990073Y-77539157D01*
X129990073Y-77889157D01*
X130340073Y-77889157D01*
X130340073Y-77989157D01*
X129990073Y-77989157D01*
X129990073Y-78339157D01*
X130340073Y-78339157D01*
X130340073Y-78439157D01*
X129890073Y-78439157D01*
X129890073Y-77439157D01*
X130340073Y-77439157D01*
X130340073Y-77539157D01*
G37*
%TD*%
D11*
%TO.C,R27*%
X109490000Y-81250000D03*
X110510000Y-81250000D03*
%TD*%
%TO.C,R8*%
X122240000Y-66500000D03*
X123260000Y-66500000D03*
%TD*%
%TO.C,R7*%
X122240000Y-65500000D03*
X123260000Y-65500000D03*
%TD*%
%TO.C,R14*%
X110510000Y-66500000D03*
X109490000Y-66500000D03*
%TD*%
D12*
%TO.C,U2*%
X135997200Y-76894060D03*
X135997200Y-76394059D03*
X135997200Y-75894059D03*
X135997200Y-75394058D03*
X133000000Y-75394058D03*
X133000000Y-75894059D03*
X133000000Y-76394059D03*
X133000000Y-76894060D03*
D13*
X134498600Y-76144059D03*
%TD*%
D14*
%TO.C,C22*%
X116998989Y-75749375D03*
X116998989Y-79049375D03*
%TD*%
D15*
%TO.C,U5*%
X128787500Y-65750000D03*
X128787500Y-66250000D03*
X128787500Y-66750000D03*
X130212500Y-66750000D03*
X130212500Y-65750000D03*
%TD*%
D16*
%TO.C,C4*%
X126698422Y-71557965D03*
X125048422Y-71557965D03*
%TD*%
D17*
%TO.C,C18*%
X99586194Y-85640458D03*
X99586194Y-84680458D03*
%TD*%
D18*
%TO.C,C16*%
X103520000Y-88750000D03*
X104480000Y-88750000D03*
%TD*%
D19*
%TO.C,R10*%
X121368135Y-79500000D03*
X122388135Y-79500000D03*
%TD*%
%TO.C,R2*%
X137440946Y-74958569D03*
X138460946Y-74958569D03*
%TD*%
D14*
%TO.C,C21*%
X114000000Y-75749800D03*
X114000000Y-79049800D03*
%TD*%
D11*
%TO.C,R18*%
X102666456Y-67899277D03*
X101646456Y-67899277D03*
%TD*%
D20*
%TO.C,C2*%
X126922302Y-72782965D03*
X125962302Y-72782965D03*
%TD*%
D14*
%TO.C,C27*%
X100500000Y-75749800D03*
X100500000Y-79049800D03*
%TD*%
D21*
%TO.C,R6*%
X131500000Y-79760000D03*
X131500000Y-78740000D03*
%TD*%
D16*
%TO.C,C11*%
X122129206Y-77000000D03*
X120479206Y-77000000D03*
%TD*%
D22*
%TO.C,L1*%
X108750000Y-69299600D03*
X108750000Y-72500000D03*
%TD*%
D23*
%TO.C,U3*%
X115738332Y-73066959D03*
X115738332Y-72266959D03*
D24*
X116625832Y-73316959D03*
X116625832Y-72666959D03*
X116625832Y-72016959D03*
X114850832Y-72016959D03*
X114850832Y-72666959D03*
X114850832Y-73316959D03*
%TD*%
D14*
%TO.C,C19*%
X108000000Y-75749800D03*
X108000000Y-79049800D03*
%TD*%
D11*
%TO.C,R19*%
X102666456Y-82749477D03*
X101646456Y-82749477D03*
%TD*%
%TO.C,R13*%
X122388135Y-81500000D03*
X121368135Y-81500000D03*
%TD*%
D19*
%TO.C,R12*%
X121368135Y-80500000D03*
X122388135Y-80500000D03*
%TD*%
D25*
%TO.C,C7*%
X113262549Y-73236786D03*
X113262549Y-71586786D03*
%TD*%
D19*
%TO.C,R1*%
X132809558Y-74000000D03*
X133829558Y-74000000D03*
%TD*%
D21*
%TO.C,R26*%
X128500000Y-85260000D03*
X128500000Y-84240000D03*
%TD*%
D26*
%TO.C,U6*%
X103759131Y-70519270D03*
X102509131Y-70519270D03*
X103759131Y-71269270D03*
X102509131Y-71269270D03*
D27*
X104384131Y-69456770D03*
X103884131Y-69456770D03*
X103384131Y-69456770D03*
X102884131Y-69456770D03*
X102384131Y-69456770D03*
X101884131Y-69456770D03*
X101884131Y-72331770D03*
X102384131Y-72331770D03*
X102884131Y-72331770D03*
X103384131Y-72331770D03*
X103884131Y-72331770D03*
X104384131Y-72331770D03*
%TD*%
D22*
%TO.C,L2*%
X108750000Y-84149800D03*
X108750000Y-87350200D03*
%TD*%
D14*
%TO.C,C28*%
X103500000Y-75749800D03*
X103500000Y-79049800D03*
%TD*%
D26*
%TO.C,U7*%
X103759131Y-85369470D03*
X102509131Y-85369470D03*
X103759131Y-86119470D03*
X102509131Y-86119470D03*
D27*
X104384131Y-84306970D03*
X103884131Y-84306970D03*
X103384131Y-84306970D03*
X102884131Y-84306970D03*
X102384131Y-84306970D03*
X101884131Y-84306970D03*
X101884131Y-87181970D03*
X102384131Y-87181970D03*
X102884131Y-87181970D03*
X103384131Y-87181970D03*
X103884131Y-87181970D03*
X104384131Y-87181970D03*
%TD*%
D17*
%TO.C,C14*%
X99553233Y-72654013D03*
X99553233Y-71694013D03*
%TD*%
D18*
%TO.C,C1*%
X132820670Y-77897910D03*
X133780670Y-77897910D03*
%TD*%
D14*
%TO.C,C24*%
X117000000Y-87900000D03*
X117000000Y-84600000D03*
%TD*%
D25*
%TO.C,C6*%
X118224838Y-73246347D03*
X118224838Y-71596347D03*
%TD*%
D18*
%TO.C,C15*%
X103520000Y-73899800D03*
X104480000Y-73899800D03*
%TD*%
D28*
%TO.C,R21*%
X100586194Y-84680458D03*
X100586194Y-85700458D03*
%TD*%
D29*
%TO.C,U4*%
X125691482Y-69130382D03*
X125691482Y-69930382D03*
D30*
X124803982Y-68880382D03*
X124803982Y-69530382D03*
X124803982Y-70180382D03*
X126578982Y-70180382D03*
X126578982Y-69530382D03*
X126578982Y-68880382D03*
%TD*%
D20*
%TO.C,C17*%
X104480000Y-82750000D03*
X103520000Y-82750000D03*
%TD*%
D31*
%TO.C,C29*%
X94850000Y-78500000D03*
X98150000Y-78500000D03*
%TD*%
D21*
%TO.C,R25*%
X126000000Y-85260000D03*
X126000000Y-84240000D03*
%TD*%
D17*
%TO.C,C10*%
X128750000Y-74057973D03*
X128750000Y-73097973D03*
%TD*%
D28*
%TO.C,R5*%
X131500210Y-75283585D03*
X131500210Y-76303585D03*
%TD*%
%TO.C,R20*%
X100586194Y-82680458D03*
X100586194Y-83700458D03*
%TD*%
%TO.C,R17*%
X99552741Y-69664739D03*
X99552741Y-70684739D03*
%TD*%
D32*
%TO.C,J9*%
X131400000Y-62575000D03*
X130600000Y-62575000D03*
D33*
X129450000Y-62575000D03*
X128450000Y-62575000D03*
X127950000Y-62575000D03*
X126950000Y-62575000D03*
D32*
X125000000Y-62575000D03*
X125800000Y-62575000D03*
D33*
X126450000Y-62575000D03*
X127450000Y-62575000D03*
X128950000Y-62575000D03*
X129950000Y-62575000D03*
D34*
X133310000Y-62000000D03*
X123090000Y-62000000D03*
X133310000Y-58070000D03*
X123090000Y-58070000D03*
%TD*%
D19*
%TO.C,R4*%
X137440946Y-76958569D03*
X138460946Y-76958569D03*
%TD*%
D28*
%TO.C,R15*%
X100552741Y-69664928D03*
X100552741Y-70684928D03*
%TD*%
D35*
%TO.C,U1*%
X125530073Y-76586657D03*
D36*
X125530073Y-77966657D03*
D35*
X126920073Y-76586657D03*
D36*
X126920073Y-77966657D03*
D37*
X128750073Y-76586657D03*
X128750073Y-77966657D03*
D38*
X124265073Y-76276657D03*
X124265073Y-76676657D03*
X124265073Y-77076657D03*
X124265073Y-77476657D03*
X124265073Y-77876657D03*
X124265073Y-78276657D03*
D39*
X124790073Y-79201657D03*
X125190073Y-79201657D03*
X125590073Y-79201657D03*
X125990073Y-79201657D03*
X126390073Y-79201657D03*
X126790073Y-79201657D03*
X127190073Y-79201657D03*
X127590073Y-79201657D03*
X127990073Y-79201657D03*
X128390073Y-79201657D03*
X128790073Y-79201657D03*
X129190073Y-79201657D03*
X129590073Y-79201657D03*
X129590073Y-75351657D03*
X129190073Y-75351657D03*
X128790073Y-75351657D03*
X128390073Y-75351657D03*
X127990073Y-75351657D03*
X127590073Y-75351657D03*
X125590073Y-75351657D03*
X125190073Y-75351657D03*
X124790073Y-75351657D03*
%TD*%
D18*
%TO.C,C3*%
X127817192Y-72172397D03*
X128777192Y-72172397D03*
%TD*%
D28*
%TO.C,R16*%
X100552741Y-71664928D03*
X100552741Y-72684928D03*
%TD*%
D14*
%TO.C,C20*%
X111000000Y-75749800D03*
X111000000Y-79049800D03*
%TD*%
D31*
%TO.C,C30*%
X94850000Y-81500000D03*
X98150000Y-81500000D03*
%TD*%
D21*
%TO.C,R24*%
X131000000Y-85260000D03*
X131000000Y-84240000D03*
%TD*%
D20*
%TO.C,C13*%
X104480000Y-67899800D03*
X103520000Y-67899800D03*
%TD*%
D18*
%TO.C,C9*%
X129728424Y-74026657D03*
X130688424Y-74026657D03*
%TD*%
D14*
%TO.C,C26*%
X123000000Y-87900000D03*
X123000000Y-84600000D03*
%TD*%
D11*
%TO.C,R11*%
X122388135Y-78500000D03*
X121368135Y-78500000D03*
%TD*%
D19*
%TO.C,R3*%
X137440946Y-75958569D03*
X138460946Y-75958569D03*
%TD*%
D14*
%TO.C,C25*%
X120000000Y-87900000D03*
X120000000Y-84600000D03*
%TD*%
%TO.C,C23*%
X114001011Y-87900425D03*
X114001011Y-84600425D03*
%TD*%
D40*
%TO.C,C12*%
X124447802Y-81356269D03*
X126097802Y-81356269D03*
%TD*%
D28*
%TO.C,R22*%
X99586194Y-82676529D03*
X99586194Y-83696529D03*
%TD*%
M02*
