%TF.GenerationSoftware,KiCad,Pcbnew,9.0.8*%
%TF.CreationDate,2026-04-06T21:20:48-07:00*%
%TF.ProjectId,Cave_Radio_PDB,43617665-5f52-4616-9469-6f5f5044422e,rev?*%
%TF.SameCoordinates,Original*%
%TF.FileFunction,Legend,Top*%
%TF.FilePolarity,Positive*%
%FSLAX46Y46*%
G04 Gerber Fmt 4.6, Leading zero omitted, Abs format (unit mm)*
G04 Created by KiCad (PCBNEW 9.0.8) date 2026-04-06 21:20:48*
%MOMM*%
%LPD*%
G01*
G04 APERTURE LIST*
%ADD10C,0.150000*%
%ADD11C,0.187500*%
%ADD12C,0.100000*%
%ADD13C,0.120000*%
%ADD14C,0.152400*%
%ADD15C,0.200000*%
G04 APERTURE END LIST*
D10*
X101285100Y-60500000D02*
X102750000Y-60500000D01*
X102750000Y-62075000D01*
X101285100Y-62075000D01*
X101285100Y-60500000D01*
X101285100Y-60500000D02*
X109216719Y-60500000D01*
X109216719Y-62075000D01*
X101285100Y-62075000D01*
X101285100Y-60500000D01*
X107641719Y-60500000D02*
X109216719Y-60500000D01*
X109216719Y-62076656D01*
X107641719Y-62076656D01*
X107641719Y-60500000D01*
X109810200Y-60520386D02*
X115275973Y-60520386D01*
X115275973Y-61565776D01*
X109810200Y-61565776D01*
X109810200Y-60520386D01*
X109810200Y-61565776D02*
X115275973Y-61565776D01*
X115275973Y-63140776D01*
X109810200Y-63140776D01*
X109810200Y-61565776D01*
X112500000Y-66462500D02*
X124125515Y-66462500D01*
X124125515Y-70537500D01*
X112500000Y-70537500D01*
X112500000Y-66462500D01*
X115831600Y-60520386D02*
X121297373Y-60520386D01*
X121297373Y-61565776D01*
X115831600Y-61565776D01*
X115831600Y-60520386D01*
X115831600Y-61565776D02*
X121297373Y-61565776D01*
X121297373Y-63140776D01*
X115831600Y-63140776D01*
X115831600Y-61565776D01*
X134897000Y-64544500D02*
X136472000Y-64544500D01*
X136472000Y-72295530D01*
X134897000Y-72295530D01*
X134897000Y-64544500D01*
X135147000Y-78953400D02*
X136722000Y-78953400D01*
X136722000Y-84419173D01*
X135147000Y-84419173D01*
X135147000Y-78953400D01*
X136472000Y-64544500D02*
X138047000Y-64544500D01*
X138047000Y-72295530D01*
X136472000Y-72295530D01*
X136472000Y-64544500D01*
X136722000Y-78953400D02*
X138297000Y-78953400D01*
X138297000Y-84419173D01*
X136722000Y-84419173D01*
X136722000Y-78953400D01*
D11*
X101787276Y-61311491D02*
X102358705Y-61311491D01*
X102072990Y-61597205D02*
X102072990Y-61025776D01*
X103301926Y-61299991D02*
X103409069Y-61335705D01*
X103409069Y-61335705D02*
X103444783Y-61371419D01*
X103444783Y-61371419D02*
X103480497Y-61442848D01*
X103480497Y-61442848D02*
X103480497Y-61549991D01*
X103480497Y-61549991D02*
X103444783Y-61621419D01*
X103444783Y-61621419D02*
X103409069Y-61657134D01*
X103409069Y-61657134D02*
X103337640Y-61692848D01*
X103337640Y-61692848D02*
X103051926Y-61692848D01*
X103051926Y-61692848D02*
X103051926Y-60942848D01*
X103051926Y-60942848D02*
X103301926Y-60942848D01*
X103301926Y-60942848D02*
X103373355Y-60978562D01*
X103373355Y-60978562D02*
X103409069Y-61014276D01*
X103409069Y-61014276D02*
X103444783Y-61085705D01*
X103444783Y-61085705D02*
X103444783Y-61157134D01*
X103444783Y-61157134D02*
X103409069Y-61228562D01*
X103409069Y-61228562D02*
X103373355Y-61264276D01*
X103373355Y-61264276D02*
X103301926Y-61299991D01*
X103301926Y-61299991D02*
X103051926Y-61299991D01*
X103766212Y-61478562D02*
X104123355Y-61478562D01*
X103694783Y-61692848D02*
X103944783Y-60942848D01*
X103944783Y-60942848D02*
X104194783Y-61692848D01*
X104337640Y-60942848D02*
X104766212Y-60942848D01*
X104551926Y-61692848D02*
X104551926Y-60942848D01*
X104909069Y-60942848D02*
X105337641Y-60942848D01*
X105123355Y-61692848D02*
X105123355Y-60942848D01*
X105587641Y-61299991D02*
X105837641Y-61299991D01*
X105944784Y-61692848D02*
X105587641Y-61692848D01*
X105587641Y-61692848D02*
X105587641Y-60942848D01*
X105587641Y-60942848D02*
X105944784Y-60942848D01*
X106694783Y-61692848D02*
X106444783Y-61335705D01*
X106266212Y-61692848D02*
X106266212Y-60942848D01*
X106266212Y-60942848D02*
X106551926Y-60942848D01*
X106551926Y-60942848D02*
X106623355Y-60978562D01*
X106623355Y-60978562D02*
X106659069Y-61014276D01*
X106659069Y-61014276D02*
X106694783Y-61085705D01*
X106694783Y-61085705D02*
X106694783Y-61192848D01*
X106694783Y-61192848D02*
X106659069Y-61264276D01*
X106659069Y-61264276D02*
X106623355Y-61299991D01*
X106623355Y-61299991D02*
X106551926Y-61335705D01*
X106551926Y-61335705D02*
X106266212Y-61335705D01*
X107159069Y-61335705D02*
X107159069Y-61692848D01*
X106909069Y-60942848D02*
X107159069Y-61335705D01*
X107159069Y-61335705D02*
X107409069Y-60942848D01*
X108177951Y-61294101D02*
X108749380Y-61294101D01*
X110467422Y-62749055D02*
X110467422Y-61999055D01*
X110467422Y-61999055D02*
X110753136Y-61999055D01*
X110753136Y-61999055D02*
X110824565Y-62034769D01*
X110824565Y-62034769D02*
X110860279Y-62070483D01*
X110860279Y-62070483D02*
X110895993Y-62141912D01*
X110895993Y-62141912D02*
X110895993Y-62249055D01*
X110895993Y-62249055D02*
X110860279Y-62320483D01*
X110860279Y-62320483D02*
X110824565Y-62356198D01*
X110824565Y-62356198D02*
X110753136Y-62391912D01*
X110753136Y-62391912D02*
X110467422Y-62391912D01*
X111145993Y-61999055D02*
X111324565Y-62749055D01*
X111324565Y-62749055D02*
X111467422Y-62213341D01*
X111467422Y-62213341D02*
X111610279Y-62749055D01*
X111610279Y-62749055D02*
X111788851Y-61999055D01*
X112503136Y-62749055D02*
X112253136Y-62391912D01*
X112074565Y-62749055D02*
X112074565Y-61999055D01*
X112074565Y-61999055D02*
X112360279Y-61999055D01*
X112360279Y-61999055D02*
X112431708Y-62034769D01*
X112431708Y-62034769D02*
X112467422Y-62070483D01*
X112467422Y-62070483D02*
X112503136Y-62141912D01*
X112503136Y-62141912D02*
X112503136Y-62249055D01*
X112503136Y-62249055D02*
X112467422Y-62320483D01*
X112467422Y-62320483D02*
X112431708Y-62356198D01*
X112431708Y-62356198D02*
X112360279Y-62391912D01*
X112360279Y-62391912D02*
X112074565Y-62391912D01*
X112645994Y-62820483D02*
X113217422Y-62820483D01*
X113395994Y-62356198D02*
X113645994Y-62356198D01*
X113753137Y-62749055D02*
X113395994Y-62749055D01*
X113395994Y-62749055D02*
X113395994Y-61999055D01*
X113395994Y-61999055D02*
X113753137Y-61999055D01*
X114074565Y-62749055D02*
X114074565Y-61999055D01*
X114074565Y-61999055D02*
X114503136Y-62749055D01*
X114503136Y-62749055D02*
X114503136Y-61999055D01*
X110967541Y-61041693D02*
X111538970Y-61041693D01*
X111253255Y-61327407D02*
X111253255Y-60755978D01*
X113480498Y-67587119D02*
X113444784Y-67622834D01*
X113444784Y-67622834D02*
X113337641Y-67658548D01*
X113337641Y-67658548D02*
X113266213Y-67658548D01*
X113266213Y-67658548D02*
X113159070Y-67622834D01*
X113159070Y-67622834D02*
X113087641Y-67551405D01*
X113087641Y-67551405D02*
X113051927Y-67479976D01*
X113051927Y-67479976D02*
X113016213Y-67337119D01*
X113016213Y-67337119D02*
X113016213Y-67229976D01*
X113016213Y-67229976D02*
X113051927Y-67087119D01*
X113051927Y-67087119D02*
X113087641Y-67015691D01*
X113087641Y-67015691D02*
X113159070Y-66944262D01*
X113159070Y-66944262D02*
X113266213Y-66908548D01*
X113266213Y-66908548D02*
X113337641Y-66908548D01*
X113337641Y-66908548D02*
X113444784Y-66944262D01*
X113444784Y-66944262D02*
X113480498Y-66979976D01*
X114123356Y-67658548D02*
X114123356Y-67265691D01*
X114123356Y-67265691D02*
X114087641Y-67194262D01*
X114087641Y-67194262D02*
X114016213Y-67158548D01*
X114016213Y-67158548D02*
X113873356Y-67158548D01*
X113873356Y-67158548D02*
X113801927Y-67194262D01*
X114123356Y-67622834D02*
X114051927Y-67658548D01*
X114051927Y-67658548D02*
X113873356Y-67658548D01*
X113873356Y-67658548D02*
X113801927Y-67622834D01*
X113801927Y-67622834D02*
X113766213Y-67551405D01*
X113766213Y-67551405D02*
X113766213Y-67479976D01*
X113766213Y-67479976D02*
X113801927Y-67408548D01*
X113801927Y-67408548D02*
X113873356Y-67372834D01*
X113873356Y-67372834D02*
X114051927Y-67372834D01*
X114051927Y-67372834D02*
X114123356Y-67337119D01*
X114409069Y-67158548D02*
X114587641Y-67658548D01*
X114587641Y-67658548D02*
X114766212Y-67158548D01*
X115337641Y-67622834D02*
X115266213Y-67658548D01*
X115266213Y-67658548D02*
X115123356Y-67658548D01*
X115123356Y-67658548D02*
X115051927Y-67622834D01*
X115051927Y-67622834D02*
X115016213Y-67551405D01*
X115016213Y-67551405D02*
X115016213Y-67265691D01*
X115016213Y-67265691D02*
X115051927Y-67194262D01*
X115051927Y-67194262D02*
X115123356Y-67158548D01*
X115123356Y-67158548D02*
X115266213Y-67158548D01*
X115266213Y-67158548D02*
X115337641Y-67194262D01*
X115337641Y-67194262D02*
X115373356Y-67265691D01*
X115373356Y-67265691D02*
X115373356Y-67337119D01*
X115373356Y-67337119D02*
X115016213Y-67408548D01*
X116694784Y-67658548D02*
X116444784Y-67301405D01*
X116266213Y-67658548D02*
X116266213Y-66908548D01*
X116266213Y-66908548D02*
X116551927Y-66908548D01*
X116551927Y-66908548D02*
X116623356Y-66944262D01*
X116623356Y-66944262D02*
X116659070Y-66979976D01*
X116659070Y-66979976D02*
X116694784Y-67051405D01*
X116694784Y-67051405D02*
X116694784Y-67158548D01*
X116694784Y-67158548D02*
X116659070Y-67229976D01*
X116659070Y-67229976D02*
X116623356Y-67265691D01*
X116623356Y-67265691D02*
X116551927Y-67301405D01*
X116551927Y-67301405D02*
X116266213Y-67301405D01*
X117337642Y-67658548D02*
X117337642Y-67265691D01*
X117337642Y-67265691D02*
X117301927Y-67194262D01*
X117301927Y-67194262D02*
X117230499Y-67158548D01*
X117230499Y-67158548D02*
X117087642Y-67158548D01*
X117087642Y-67158548D02*
X117016213Y-67194262D01*
X117337642Y-67622834D02*
X117266213Y-67658548D01*
X117266213Y-67658548D02*
X117087642Y-67658548D01*
X117087642Y-67658548D02*
X117016213Y-67622834D01*
X117016213Y-67622834D02*
X116980499Y-67551405D01*
X116980499Y-67551405D02*
X116980499Y-67479976D01*
X116980499Y-67479976D02*
X117016213Y-67408548D01*
X117016213Y-67408548D02*
X117087642Y-67372834D01*
X117087642Y-67372834D02*
X117266213Y-67372834D01*
X117266213Y-67372834D02*
X117337642Y-67337119D01*
X118016213Y-67658548D02*
X118016213Y-66908548D01*
X118016213Y-67622834D02*
X117944784Y-67658548D01*
X117944784Y-67658548D02*
X117801927Y-67658548D01*
X117801927Y-67658548D02*
X117730498Y-67622834D01*
X117730498Y-67622834D02*
X117694784Y-67587119D01*
X117694784Y-67587119D02*
X117659070Y-67515691D01*
X117659070Y-67515691D02*
X117659070Y-67301405D01*
X117659070Y-67301405D02*
X117694784Y-67229976D01*
X117694784Y-67229976D02*
X117730498Y-67194262D01*
X117730498Y-67194262D02*
X117801927Y-67158548D01*
X117801927Y-67158548D02*
X117944784Y-67158548D01*
X117944784Y-67158548D02*
X118016213Y-67194262D01*
X118373355Y-67658548D02*
X118373355Y-67158548D01*
X118373355Y-66908548D02*
X118337641Y-66944262D01*
X118337641Y-66944262D02*
X118373355Y-66979976D01*
X118373355Y-66979976D02*
X118409069Y-66944262D01*
X118409069Y-66944262D02*
X118373355Y-66908548D01*
X118373355Y-66908548D02*
X118373355Y-66979976D01*
X118837641Y-67658548D02*
X118766212Y-67622834D01*
X118766212Y-67622834D02*
X118730498Y-67587119D01*
X118730498Y-67587119D02*
X118694784Y-67515691D01*
X118694784Y-67515691D02*
X118694784Y-67301405D01*
X118694784Y-67301405D02*
X118730498Y-67229976D01*
X118730498Y-67229976D02*
X118766212Y-67194262D01*
X118766212Y-67194262D02*
X118837641Y-67158548D01*
X118837641Y-67158548D02*
X118944784Y-67158548D01*
X118944784Y-67158548D02*
X119016212Y-67194262D01*
X119016212Y-67194262D02*
X119051927Y-67229976D01*
X119051927Y-67229976D02*
X119087641Y-67301405D01*
X119087641Y-67301405D02*
X119087641Y-67515691D01*
X119087641Y-67515691D02*
X119051927Y-67587119D01*
X119051927Y-67587119D02*
X119016212Y-67622834D01*
X119016212Y-67622834D02*
X118944784Y-67658548D01*
X118944784Y-67658548D02*
X118837641Y-67658548D01*
X119980498Y-67658548D02*
X119980498Y-66908548D01*
X119980498Y-66908548D02*
X120266212Y-66908548D01*
X120266212Y-66908548D02*
X120337641Y-66944262D01*
X120337641Y-66944262D02*
X120373355Y-66979976D01*
X120373355Y-66979976D02*
X120409069Y-67051405D01*
X120409069Y-67051405D02*
X120409069Y-67158548D01*
X120409069Y-67158548D02*
X120373355Y-67229976D01*
X120373355Y-67229976D02*
X120337641Y-67265691D01*
X120337641Y-67265691D02*
X120266212Y-67301405D01*
X120266212Y-67301405D02*
X119980498Y-67301405D01*
X120730498Y-67658548D02*
X120730498Y-66908548D01*
X120730498Y-66908548D02*
X120909069Y-66908548D01*
X120909069Y-66908548D02*
X121016212Y-66944262D01*
X121016212Y-66944262D02*
X121087641Y-67015691D01*
X121087641Y-67015691D02*
X121123355Y-67087119D01*
X121123355Y-67087119D02*
X121159069Y-67229976D01*
X121159069Y-67229976D02*
X121159069Y-67337119D01*
X121159069Y-67337119D02*
X121123355Y-67479976D01*
X121123355Y-67479976D02*
X121087641Y-67551405D01*
X121087641Y-67551405D02*
X121016212Y-67622834D01*
X121016212Y-67622834D02*
X120909069Y-67658548D01*
X120909069Y-67658548D02*
X120730498Y-67658548D01*
X121730498Y-67265691D02*
X121837641Y-67301405D01*
X121837641Y-67301405D02*
X121873355Y-67337119D01*
X121873355Y-67337119D02*
X121909069Y-67408548D01*
X121909069Y-67408548D02*
X121909069Y-67515691D01*
X121909069Y-67515691D02*
X121873355Y-67587119D01*
X121873355Y-67587119D02*
X121837641Y-67622834D01*
X121837641Y-67622834D02*
X121766212Y-67658548D01*
X121766212Y-67658548D02*
X121480498Y-67658548D01*
X121480498Y-67658548D02*
X121480498Y-66908548D01*
X121480498Y-66908548D02*
X121730498Y-66908548D01*
X121730498Y-66908548D02*
X121801927Y-66944262D01*
X121801927Y-66944262D02*
X121837641Y-66979976D01*
X121837641Y-66979976D02*
X121873355Y-67051405D01*
X121873355Y-67051405D02*
X121873355Y-67122834D01*
X121873355Y-67122834D02*
X121837641Y-67194262D01*
X121837641Y-67194262D02*
X121801927Y-67229976D01*
X121801927Y-67229976D02*
X121730498Y-67265691D01*
X121730498Y-67265691D02*
X121480498Y-67265691D01*
X122694784Y-66908548D02*
X122944784Y-67658548D01*
X122944784Y-67658548D02*
X123194784Y-66908548D01*
X123837641Y-67658548D02*
X123409070Y-67658548D01*
X123623355Y-67658548D02*
X123623355Y-66908548D01*
X123623355Y-66908548D02*
X123551927Y-67015691D01*
X123551927Y-67015691D02*
X123480498Y-67087119D01*
X123480498Y-67087119D02*
X123409070Y-67122834D01*
X113051927Y-68473149D02*
X113301927Y-68473149D01*
X113409070Y-68866006D02*
X113051927Y-68866006D01*
X113051927Y-68866006D02*
X113051927Y-68116006D01*
X113051927Y-68116006D02*
X113409070Y-68116006D01*
X113659069Y-68366006D02*
X113837641Y-68866006D01*
X113837641Y-68866006D02*
X114016212Y-68366006D01*
X114623356Y-68866006D02*
X114623356Y-68473149D01*
X114623356Y-68473149D02*
X114587641Y-68401720D01*
X114587641Y-68401720D02*
X114516213Y-68366006D01*
X114516213Y-68366006D02*
X114373356Y-68366006D01*
X114373356Y-68366006D02*
X114301927Y-68401720D01*
X114623356Y-68830292D02*
X114551927Y-68866006D01*
X114551927Y-68866006D02*
X114373356Y-68866006D01*
X114373356Y-68866006D02*
X114301927Y-68830292D01*
X114301927Y-68830292D02*
X114266213Y-68758863D01*
X114266213Y-68758863D02*
X114266213Y-68687434D01*
X114266213Y-68687434D02*
X114301927Y-68616006D01*
X114301927Y-68616006D02*
X114373356Y-68580292D01*
X114373356Y-68580292D02*
X114551927Y-68580292D01*
X114551927Y-68580292D02*
X114623356Y-68544577D01*
X114980498Y-68366006D02*
X114980498Y-68866006D01*
X114980498Y-68437434D02*
X115016212Y-68401720D01*
X115016212Y-68401720D02*
X115087641Y-68366006D01*
X115087641Y-68366006D02*
X115194784Y-68366006D01*
X115194784Y-68366006D02*
X115266212Y-68401720D01*
X115266212Y-68401720D02*
X115301927Y-68473149D01*
X115301927Y-68473149D02*
X115301927Y-68866006D01*
X116230498Y-68866006D02*
X116230498Y-68116006D01*
X116230498Y-68116006D02*
X116516212Y-68116006D01*
X116516212Y-68116006D02*
X116587641Y-68151720D01*
X116587641Y-68151720D02*
X116623355Y-68187434D01*
X116623355Y-68187434D02*
X116659069Y-68258863D01*
X116659069Y-68258863D02*
X116659069Y-68366006D01*
X116659069Y-68366006D02*
X116623355Y-68437434D01*
X116623355Y-68437434D02*
X116587641Y-68473149D01*
X116587641Y-68473149D02*
X116516212Y-68508863D01*
X116516212Y-68508863D02*
X116230498Y-68508863D01*
X117266212Y-68830292D02*
X117194784Y-68866006D01*
X117194784Y-68866006D02*
X117051927Y-68866006D01*
X117051927Y-68866006D02*
X116980498Y-68830292D01*
X116980498Y-68830292D02*
X116944784Y-68758863D01*
X116944784Y-68758863D02*
X116944784Y-68473149D01*
X116944784Y-68473149D02*
X116980498Y-68401720D01*
X116980498Y-68401720D02*
X117051927Y-68366006D01*
X117051927Y-68366006D02*
X117194784Y-68366006D01*
X117194784Y-68366006D02*
X117266212Y-68401720D01*
X117266212Y-68401720D02*
X117301927Y-68473149D01*
X117301927Y-68473149D02*
X117301927Y-68544577D01*
X117301927Y-68544577D02*
X116944784Y-68616006D01*
X117516212Y-68366006D02*
X117801926Y-68366006D01*
X117623355Y-68116006D02*
X117623355Y-68758863D01*
X117623355Y-68758863D02*
X117659069Y-68830292D01*
X117659069Y-68830292D02*
X117730498Y-68866006D01*
X117730498Y-68866006D02*
X117801926Y-68866006D01*
X118337640Y-68830292D02*
X118266212Y-68866006D01*
X118266212Y-68866006D02*
X118123355Y-68866006D01*
X118123355Y-68866006D02*
X118051926Y-68830292D01*
X118051926Y-68830292D02*
X118016212Y-68758863D01*
X118016212Y-68758863D02*
X118016212Y-68473149D01*
X118016212Y-68473149D02*
X118051926Y-68401720D01*
X118051926Y-68401720D02*
X118123355Y-68366006D01*
X118123355Y-68366006D02*
X118266212Y-68366006D01*
X118266212Y-68366006D02*
X118337640Y-68401720D01*
X118337640Y-68401720D02*
X118373355Y-68473149D01*
X118373355Y-68473149D02*
X118373355Y-68544577D01*
X118373355Y-68544577D02*
X118016212Y-68616006D01*
X118694783Y-68866006D02*
X118694783Y-68366006D01*
X118694783Y-68508863D02*
X118730497Y-68437434D01*
X118730497Y-68437434D02*
X118766212Y-68401720D01*
X118766212Y-68401720D02*
X118837640Y-68366006D01*
X118837640Y-68366006D02*
X118909069Y-68366006D01*
X119123355Y-68830292D02*
X119194783Y-68866006D01*
X119194783Y-68866006D02*
X119337640Y-68866006D01*
X119337640Y-68866006D02*
X119409069Y-68830292D01*
X119409069Y-68830292D02*
X119444783Y-68758863D01*
X119444783Y-68758863D02*
X119444783Y-68723149D01*
X119444783Y-68723149D02*
X119409069Y-68651720D01*
X119409069Y-68651720D02*
X119337640Y-68616006D01*
X119337640Y-68616006D02*
X119230498Y-68616006D01*
X119230498Y-68616006D02*
X119159069Y-68580292D01*
X119159069Y-68580292D02*
X119123355Y-68508863D01*
X119123355Y-68508863D02*
X119123355Y-68473149D01*
X119123355Y-68473149D02*
X119159069Y-68401720D01*
X119159069Y-68401720D02*
X119230498Y-68366006D01*
X119230498Y-68366006D02*
X119337640Y-68366006D01*
X119337640Y-68366006D02*
X119409069Y-68401720D01*
X120230498Y-68116006D02*
X120480498Y-68866006D01*
X120480498Y-68866006D02*
X120730498Y-68116006D01*
X120980498Y-68473149D02*
X121230498Y-68473149D01*
X121337641Y-68866006D02*
X120980498Y-68866006D01*
X120980498Y-68866006D02*
X120980498Y-68116006D01*
X120980498Y-68116006D02*
X121337641Y-68116006D01*
X121587640Y-68116006D02*
X122087640Y-68116006D01*
X122087640Y-68116006D02*
X121766212Y-68866006D01*
X122373355Y-68866006D02*
X122373355Y-68116006D01*
X122623355Y-68116006D02*
X123051927Y-68116006D01*
X122837641Y-68866006D02*
X122837641Y-68116006D01*
X123230498Y-68116006D02*
X123730498Y-68866006D01*
X123730498Y-68116006D02*
X123230498Y-68866006D01*
X113051927Y-70073464D02*
X113051927Y-69323464D01*
X113051927Y-69323464D02*
X113301927Y-69859178D01*
X113301927Y-69859178D02*
X113551927Y-69323464D01*
X113551927Y-69323464D02*
X113551927Y-70073464D01*
X114230499Y-70073464D02*
X114230499Y-69680607D01*
X114230499Y-69680607D02*
X114194784Y-69609178D01*
X114194784Y-69609178D02*
X114123356Y-69573464D01*
X114123356Y-69573464D02*
X113980499Y-69573464D01*
X113980499Y-69573464D02*
X113909070Y-69609178D01*
X114230499Y-70037750D02*
X114159070Y-70073464D01*
X114159070Y-70073464D02*
X113980499Y-70073464D01*
X113980499Y-70073464D02*
X113909070Y-70037750D01*
X113909070Y-70037750D02*
X113873356Y-69966321D01*
X113873356Y-69966321D02*
X113873356Y-69894892D01*
X113873356Y-69894892D02*
X113909070Y-69823464D01*
X113909070Y-69823464D02*
X113980499Y-69787750D01*
X113980499Y-69787750D02*
X114159070Y-69787750D01*
X114159070Y-69787750D02*
X114230499Y-69752035D01*
X114587641Y-70073464D02*
X114587641Y-69573464D01*
X114587641Y-69716321D02*
X114623355Y-69644892D01*
X114623355Y-69644892D02*
X114659070Y-69609178D01*
X114659070Y-69609178D02*
X114730498Y-69573464D01*
X114730498Y-69573464D02*
X114801927Y-69573464D01*
X115373356Y-70037750D02*
X115301927Y-70073464D01*
X115301927Y-70073464D02*
X115159070Y-70073464D01*
X115159070Y-70073464D02*
X115087641Y-70037750D01*
X115087641Y-70037750D02*
X115051927Y-70002035D01*
X115051927Y-70002035D02*
X115016213Y-69930607D01*
X115016213Y-69930607D02*
X115016213Y-69716321D01*
X115016213Y-69716321D02*
X115051927Y-69644892D01*
X115051927Y-69644892D02*
X115087641Y-69609178D01*
X115087641Y-69609178D02*
X115159070Y-69573464D01*
X115159070Y-69573464D02*
X115301927Y-69573464D01*
X115301927Y-69573464D02*
X115373356Y-69609178D01*
X115694784Y-70073464D02*
X115694784Y-69323464D01*
X116016213Y-70073464D02*
X116016213Y-69680607D01*
X116016213Y-69680607D02*
X115980498Y-69609178D01*
X115980498Y-69609178D02*
X115909070Y-69573464D01*
X115909070Y-69573464D02*
X115801927Y-69573464D01*
X115801927Y-69573464D02*
X115730498Y-69609178D01*
X115730498Y-69609178D02*
X115694784Y-69644892D01*
X116909070Y-69394892D02*
X116944784Y-69359178D01*
X116944784Y-69359178D02*
X117016213Y-69323464D01*
X117016213Y-69323464D02*
X117194784Y-69323464D01*
X117194784Y-69323464D02*
X117266213Y-69359178D01*
X117266213Y-69359178D02*
X117301927Y-69394892D01*
X117301927Y-69394892D02*
X117337641Y-69466321D01*
X117337641Y-69466321D02*
X117337641Y-69537750D01*
X117337641Y-69537750D02*
X117301927Y-69644892D01*
X117301927Y-69644892D02*
X116873355Y-70073464D01*
X116873355Y-70073464D02*
X117337641Y-70073464D01*
X117801927Y-69323464D02*
X117873356Y-69323464D01*
X117873356Y-69323464D02*
X117944784Y-69359178D01*
X117944784Y-69359178D02*
X117980499Y-69394892D01*
X117980499Y-69394892D02*
X118016213Y-69466321D01*
X118016213Y-69466321D02*
X118051927Y-69609178D01*
X118051927Y-69609178D02*
X118051927Y-69787750D01*
X118051927Y-69787750D02*
X118016213Y-69930607D01*
X118016213Y-69930607D02*
X117980499Y-70002035D01*
X117980499Y-70002035D02*
X117944784Y-70037750D01*
X117944784Y-70037750D02*
X117873356Y-70073464D01*
X117873356Y-70073464D02*
X117801927Y-70073464D01*
X117801927Y-70073464D02*
X117730499Y-70037750D01*
X117730499Y-70037750D02*
X117694784Y-70002035D01*
X117694784Y-70002035D02*
X117659070Y-69930607D01*
X117659070Y-69930607D02*
X117623356Y-69787750D01*
X117623356Y-69787750D02*
X117623356Y-69609178D01*
X117623356Y-69609178D02*
X117659070Y-69466321D01*
X117659070Y-69466321D02*
X117694784Y-69394892D01*
X117694784Y-69394892D02*
X117730499Y-69359178D01*
X117730499Y-69359178D02*
X117801927Y-69323464D01*
X118337642Y-69394892D02*
X118373356Y-69359178D01*
X118373356Y-69359178D02*
X118444785Y-69323464D01*
X118444785Y-69323464D02*
X118623356Y-69323464D01*
X118623356Y-69323464D02*
X118694785Y-69359178D01*
X118694785Y-69359178D02*
X118730499Y-69394892D01*
X118730499Y-69394892D02*
X118766213Y-69466321D01*
X118766213Y-69466321D02*
X118766213Y-69537750D01*
X118766213Y-69537750D02*
X118730499Y-69644892D01*
X118730499Y-69644892D02*
X118301927Y-70073464D01*
X118301927Y-70073464D02*
X118766213Y-70073464D01*
X119409071Y-69323464D02*
X119266213Y-69323464D01*
X119266213Y-69323464D02*
X119194785Y-69359178D01*
X119194785Y-69359178D02*
X119159071Y-69394892D01*
X119159071Y-69394892D02*
X119087642Y-69502035D01*
X119087642Y-69502035D02*
X119051928Y-69644892D01*
X119051928Y-69644892D02*
X119051928Y-69930607D01*
X119051928Y-69930607D02*
X119087642Y-70002035D01*
X119087642Y-70002035D02*
X119123356Y-70037750D01*
X119123356Y-70037750D02*
X119194785Y-70073464D01*
X119194785Y-70073464D02*
X119337642Y-70073464D01*
X119337642Y-70073464D02*
X119409071Y-70037750D01*
X119409071Y-70037750D02*
X119444785Y-70002035D01*
X119444785Y-70002035D02*
X119480499Y-69930607D01*
X119480499Y-69930607D02*
X119480499Y-69752035D01*
X119480499Y-69752035D02*
X119444785Y-69680607D01*
X119444785Y-69680607D02*
X119409071Y-69644892D01*
X119409071Y-69644892D02*
X119337642Y-69609178D01*
X119337642Y-69609178D02*
X119194785Y-69609178D01*
X119194785Y-69609178D02*
X119123356Y-69644892D01*
X119123356Y-69644892D02*
X119087642Y-69680607D01*
X119087642Y-69680607D02*
X119051928Y-69752035D01*
X113614938Y-61025802D02*
X114186367Y-61025802D01*
X116488822Y-62749055D02*
X116488822Y-61999055D01*
X116488822Y-61999055D02*
X116774536Y-61999055D01*
X116774536Y-61999055D02*
X116845965Y-62034769D01*
X116845965Y-62034769D02*
X116881679Y-62070483D01*
X116881679Y-62070483D02*
X116917393Y-62141912D01*
X116917393Y-62141912D02*
X116917393Y-62249055D01*
X116917393Y-62249055D02*
X116881679Y-62320483D01*
X116881679Y-62320483D02*
X116845965Y-62356198D01*
X116845965Y-62356198D02*
X116774536Y-62391912D01*
X116774536Y-62391912D02*
X116488822Y-62391912D01*
X117238822Y-62749055D02*
X117238822Y-61999055D01*
X117238822Y-62356198D02*
X117667393Y-62356198D01*
X117667393Y-62749055D02*
X117667393Y-61999055D01*
X118024536Y-62749055D02*
X118024536Y-61999055D01*
X118024536Y-61999055D02*
X118453107Y-62749055D01*
X118453107Y-62749055D02*
X118453107Y-61999055D01*
X118631679Y-62820483D02*
X119203107Y-62820483D01*
X119381679Y-62356198D02*
X119631679Y-62356198D01*
X119738822Y-62749055D02*
X119381679Y-62749055D01*
X119381679Y-62749055D02*
X119381679Y-61999055D01*
X119381679Y-61999055D02*
X119738822Y-61999055D01*
X120060250Y-62749055D02*
X120060250Y-61999055D01*
X120060250Y-61999055D02*
X120488821Y-62749055D01*
X120488821Y-62749055D02*
X120488821Y-61999055D01*
X116988941Y-61041693D02*
X117560370Y-61041693D01*
X117274655Y-61327407D02*
X117274655Y-60755978D01*
X119636338Y-61025802D02*
X120207767Y-61025802D01*
X135320501Y-67113265D02*
X135677644Y-66863265D01*
X135320501Y-66684694D02*
X136070501Y-66684694D01*
X136070501Y-66684694D02*
X136070501Y-66970408D01*
X136070501Y-66970408D02*
X136034787Y-67041837D01*
X136034787Y-67041837D02*
X135999073Y-67077551D01*
X135999073Y-67077551D02*
X135927644Y-67113265D01*
X135927644Y-67113265D02*
X135820501Y-67113265D01*
X135820501Y-67113265D02*
X135749073Y-67077551D01*
X135749073Y-67077551D02*
X135713358Y-67041837D01*
X135713358Y-67041837D02*
X135677644Y-66970408D01*
X135677644Y-66970408D02*
X135677644Y-66684694D01*
X135249073Y-67256123D02*
X135249073Y-67827551D01*
X135320501Y-68006123D02*
X136070501Y-68006123D01*
X136070501Y-68006123D02*
X136070501Y-68184694D01*
X136070501Y-68184694D02*
X136034787Y-68291837D01*
X136034787Y-68291837D02*
X135963358Y-68363266D01*
X135963358Y-68363266D02*
X135891930Y-68398980D01*
X135891930Y-68398980D02*
X135749073Y-68434694D01*
X135749073Y-68434694D02*
X135641930Y-68434694D01*
X135641930Y-68434694D02*
X135499073Y-68398980D01*
X135499073Y-68398980D02*
X135427644Y-68363266D01*
X135427644Y-68363266D02*
X135356216Y-68291837D01*
X135356216Y-68291837D02*
X135320501Y-68184694D01*
X135320501Y-68184694D02*
X135320501Y-68006123D01*
X135534787Y-68720409D02*
X135534787Y-69077552D01*
X135320501Y-68648980D02*
X136070501Y-68898980D01*
X136070501Y-68898980D02*
X135320501Y-69148980D01*
X136070501Y-69291837D02*
X136070501Y-69720409D01*
X135320501Y-69506123D02*
X136070501Y-69506123D01*
X135534787Y-69934695D02*
X135534787Y-70291838D01*
X135320501Y-69863266D02*
X136070501Y-70113266D01*
X136070501Y-70113266D02*
X135320501Y-70363266D01*
X135599681Y-80452460D02*
X135956824Y-80202460D01*
X135599681Y-80023889D02*
X136349681Y-80023889D01*
X136349681Y-80023889D02*
X136349681Y-80309603D01*
X136349681Y-80309603D02*
X136313967Y-80381032D01*
X136313967Y-80381032D02*
X136278253Y-80416746D01*
X136278253Y-80416746D02*
X136206824Y-80452460D01*
X136206824Y-80452460D02*
X136099681Y-80452460D01*
X136099681Y-80452460D02*
X136028253Y-80416746D01*
X136028253Y-80416746D02*
X135992538Y-80381032D01*
X135992538Y-80381032D02*
X135956824Y-80309603D01*
X135956824Y-80309603D02*
X135956824Y-80023889D01*
X135528253Y-80595318D02*
X135528253Y-81166746D01*
X135599681Y-81345318D02*
X136349681Y-81345318D01*
X136349681Y-81345318D02*
X136349681Y-81631032D01*
X136349681Y-81631032D02*
X136313967Y-81702461D01*
X136313967Y-81702461D02*
X136278253Y-81738175D01*
X136278253Y-81738175D02*
X136206824Y-81773889D01*
X136206824Y-81773889D02*
X136099681Y-81773889D01*
X136099681Y-81773889D02*
X136028253Y-81738175D01*
X136028253Y-81738175D02*
X135992538Y-81702461D01*
X135992538Y-81702461D02*
X135956824Y-81631032D01*
X135956824Y-81631032D02*
X135956824Y-81345318D01*
X136349681Y-82023889D02*
X135599681Y-82202461D01*
X135599681Y-82202461D02*
X136135396Y-82345318D01*
X136135396Y-82345318D02*
X135599681Y-82488175D01*
X135599681Y-82488175D02*
X136349681Y-82666747D01*
X135599681Y-83381032D02*
X135956824Y-83131032D01*
X135599681Y-82952461D02*
X136349681Y-82952461D01*
X136349681Y-82952461D02*
X136349681Y-83238175D01*
X136349681Y-83238175D02*
X136313967Y-83309604D01*
X136313967Y-83309604D02*
X136278253Y-83345318D01*
X136278253Y-83345318D02*
X136206824Y-83381032D01*
X136206824Y-83381032D02*
X136099681Y-83381032D01*
X136099681Y-83381032D02*
X136028253Y-83345318D01*
X136028253Y-83345318D02*
X135992538Y-83309604D01*
X135992538Y-83309604D02*
X135956824Y-83238175D01*
X135956824Y-83238175D02*
X135956824Y-82952461D01*
X137565821Y-70194783D02*
X137601535Y-70123355D01*
X137601535Y-70123355D02*
X137601535Y-70016212D01*
X137601535Y-70016212D02*
X137565821Y-69909069D01*
X137565821Y-69909069D02*
X137494392Y-69837640D01*
X137494392Y-69837640D02*
X137422964Y-69801926D01*
X137422964Y-69801926D02*
X137280107Y-69766212D01*
X137280107Y-69766212D02*
X137172964Y-69766212D01*
X137172964Y-69766212D02*
X137030107Y-69801926D01*
X137030107Y-69801926D02*
X136958678Y-69837640D01*
X136958678Y-69837640D02*
X136887250Y-69909069D01*
X136887250Y-69909069D02*
X136851535Y-70016212D01*
X136851535Y-70016212D02*
X136851535Y-70087640D01*
X136851535Y-70087640D02*
X136887250Y-70194783D01*
X136887250Y-70194783D02*
X136922964Y-70230497D01*
X136922964Y-70230497D02*
X137172964Y-70230497D01*
X137172964Y-70230497D02*
X137172964Y-70087640D01*
X136851535Y-70551926D02*
X137601535Y-70551926D01*
X137601535Y-70551926D02*
X136851535Y-70980497D01*
X136851535Y-70980497D02*
X137601535Y-70980497D01*
X136851535Y-71337640D02*
X137601535Y-71337640D01*
X137601535Y-71337640D02*
X137601535Y-71516211D01*
X137601535Y-71516211D02*
X137565821Y-71623354D01*
X137565821Y-71623354D02*
X137494392Y-71694783D01*
X137494392Y-71694783D02*
X137422964Y-71730497D01*
X137422964Y-71730497D02*
X137280107Y-71766211D01*
X137280107Y-71766211D02*
X137172964Y-71766211D01*
X137172964Y-71766211D02*
X137030107Y-71730497D01*
X137030107Y-71730497D02*
X136958678Y-71694783D01*
X136958678Y-71694783D02*
X136887250Y-71623354D01*
X136887250Y-71623354D02*
X136851535Y-71516211D01*
X136851535Y-71516211D02*
X136851535Y-71337640D01*
X136890809Y-65051926D02*
X137640809Y-65051926D01*
X137640809Y-65051926D02*
X137640809Y-65230497D01*
X137640809Y-65230497D02*
X137605095Y-65337640D01*
X137605095Y-65337640D02*
X137533666Y-65409069D01*
X137533666Y-65409069D02*
X137462238Y-65444783D01*
X137462238Y-65444783D02*
X137319381Y-65480497D01*
X137319381Y-65480497D02*
X137212238Y-65480497D01*
X137212238Y-65480497D02*
X137069381Y-65444783D01*
X137069381Y-65444783D02*
X136997952Y-65409069D01*
X136997952Y-65409069D02*
X136926524Y-65337640D01*
X136926524Y-65337640D02*
X136890809Y-65230497D01*
X136890809Y-65230497D02*
X136890809Y-65051926D01*
X137176524Y-65801926D02*
X137176524Y-66373355D01*
X136890809Y-67575565D02*
X137640809Y-67575565D01*
X137640809Y-67575565D02*
X137640809Y-67754136D01*
X137640809Y-67754136D02*
X137605095Y-67861279D01*
X137605095Y-67861279D02*
X137533666Y-67932708D01*
X137533666Y-67932708D02*
X137462238Y-67968422D01*
X137462238Y-67968422D02*
X137319381Y-68004136D01*
X137319381Y-68004136D02*
X137212238Y-68004136D01*
X137212238Y-68004136D02*
X137069381Y-67968422D01*
X137069381Y-67968422D02*
X136997952Y-67932708D01*
X136997952Y-67932708D02*
X136926524Y-67861279D01*
X136926524Y-67861279D02*
X136890809Y-67754136D01*
X136890809Y-67754136D02*
X136890809Y-67575565D01*
X137176524Y-68325565D02*
X137176524Y-68896994D01*
X136890809Y-68611279D02*
X137462238Y-68611279D01*
X137101535Y-82587640D02*
X137101535Y-82730497D01*
X137101535Y-82730497D02*
X137137250Y-82801926D01*
X137137250Y-82801926D02*
X137172964Y-82837640D01*
X137172964Y-82837640D02*
X137280107Y-82909069D01*
X137280107Y-82909069D02*
X137422964Y-82944783D01*
X137422964Y-82944783D02*
X137708678Y-82944783D01*
X137708678Y-82944783D02*
X137780107Y-82909069D01*
X137780107Y-82909069D02*
X137815821Y-82873355D01*
X137815821Y-82873355D02*
X137851535Y-82801926D01*
X137851535Y-82801926D02*
X137851535Y-82659069D01*
X137851535Y-82659069D02*
X137815821Y-82587640D01*
X137815821Y-82587640D02*
X137780107Y-82551926D01*
X137780107Y-82551926D02*
X137708678Y-82516212D01*
X137708678Y-82516212D02*
X137530107Y-82516212D01*
X137530107Y-82516212D02*
X137458678Y-82551926D01*
X137458678Y-82551926D02*
X137422964Y-82587640D01*
X137422964Y-82587640D02*
X137387250Y-82659069D01*
X137387250Y-82659069D02*
X137387250Y-82801926D01*
X137387250Y-82801926D02*
X137422964Y-82873355D01*
X137422964Y-82873355D02*
X137458678Y-82909069D01*
X137458678Y-82909069D02*
X137530107Y-82944783D01*
X137851535Y-83159069D02*
X137101535Y-83409069D01*
X137101535Y-83409069D02*
X137851535Y-83659069D01*
X137844153Y-80084096D02*
X137879867Y-80012668D01*
X137879867Y-80012668D02*
X137879867Y-79905525D01*
X137879867Y-79905525D02*
X137844153Y-79798382D01*
X137844153Y-79798382D02*
X137772724Y-79726953D01*
X137772724Y-79726953D02*
X137701296Y-79691239D01*
X137701296Y-79691239D02*
X137558439Y-79655525D01*
X137558439Y-79655525D02*
X137451296Y-79655525D01*
X137451296Y-79655525D02*
X137308439Y-79691239D01*
X137308439Y-79691239D02*
X137237010Y-79726953D01*
X137237010Y-79726953D02*
X137165582Y-79798382D01*
X137165582Y-79798382D02*
X137129867Y-79905525D01*
X137129867Y-79905525D02*
X137129867Y-79976953D01*
X137129867Y-79976953D02*
X137165582Y-80084096D01*
X137165582Y-80084096D02*
X137201296Y-80119810D01*
X137201296Y-80119810D02*
X137451296Y-80119810D01*
X137451296Y-80119810D02*
X137451296Y-79976953D01*
X137129867Y-80441239D02*
X137879867Y-80441239D01*
X137879867Y-80441239D02*
X137129867Y-80869810D01*
X137129867Y-80869810D02*
X137879867Y-80869810D01*
X137129867Y-81226953D02*
X137879867Y-81226953D01*
X137879867Y-81226953D02*
X137879867Y-81405524D01*
X137879867Y-81405524D02*
X137844153Y-81512667D01*
X137844153Y-81512667D02*
X137772724Y-81584096D01*
X137772724Y-81584096D02*
X137701296Y-81619810D01*
X137701296Y-81619810D02*
X137558439Y-81655524D01*
X137558439Y-81655524D02*
X137451296Y-81655524D01*
X137451296Y-81655524D02*
X137308439Y-81619810D01*
X137308439Y-81619810D02*
X137237010Y-81584096D01*
X137237010Y-81584096D02*
X137165582Y-81512667D01*
X137165582Y-81512667D02*
X137129867Y-81405524D01*
X137129867Y-81405524D02*
X137129867Y-81226953D01*
D10*
X135512380Y-73792335D02*
X135512380Y-74310430D01*
X135512380Y-74310430D02*
X135542857Y-74371382D01*
X135542857Y-74371382D02*
X135573333Y-74401859D01*
X135573333Y-74401859D02*
X135634285Y-74432335D01*
X135634285Y-74432335D02*
X135756190Y-74432335D01*
X135756190Y-74432335D02*
X135817142Y-74401859D01*
X135817142Y-74401859D02*
X135847619Y-74371382D01*
X135847619Y-74371382D02*
X135878095Y-74310430D01*
X135878095Y-74310430D02*
X135878095Y-73792335D01*
X136152380Y-73853287D02*
X136182856Y-73822811D01*
X136182856Y-73822811D02*
X136243809Y-73792335D01*
X136243809Y-73792335D02*
X136396190Y-73792335D01*
X136396190Y-73792335D02*
X136457142Y-73822811D01*
X136457142Y-73822811D02*
X136487618Y-73853287D01*
X136487618Y-73853287D02*
X136518095Y-73914239D01*
X136518095Y-73914239D02*
X136518095Y-73975192D01*
X136518095Y-73975192D02*
X136487618Y-74066620D01*
X136487618Y-74066620D02*
X136121904Y-74432335D01*
X136121904Y-74432335D02*
X136518095Y-74432335D01*
X116587560Y-80626698D02*
X116557084Y-80657175D01*
X116557084Y-80657175D02*
X116465655Y-80687651D01*
X116465655Y-80687651D02*
X116404703Y-80687651D01*
X116404703Y-80687651D02*
X116313274Y-80657175D01*
X116313274Y-80657175D02*
X116252322Y-80596222D01*
X116252322Y-80596222D02*
X116221845Y-80535270D01*
X116221845Y-80535270D02*
X116191369Y-80413365D01*
X116191369Y-80413365D02*
X116191369Y-80321936D01*
X116191369Y-80321936D02*
X116221845Y-80200032D01*
X116221845Y-80200032D02*
X116252322Y-80139079D01*
X116252322Y-80139079D02*
X116313274Y-80078127D01*
X116313274Y-80078127D02*
X116404703Y-80047651D01*
X116404703Y-80047651D02*
X116465655Y-80047651D01*
X116465655Y-80047651D02*
X116557084Y-80078127D01*
X116557084Y-80078127D02*
X116587560Y-80108603D01*
X116831369Y-80108603D02*
X116861845Y-80078127D01*
X116861845Y-80078127D02*
X116922798Y-80047651D01*
X116922798Y-80047651D02*
X117075179Y-80047651D01*
X117075179Y-80047651D02*
X117136131Y-80078127D01*
X117136131Y-80078127D02*
X117166607Y-80108603D01*
X117166607Y-80108603D02*
X117197084Y-80169555D01*
X117197084Y-80169555D02*
X117197084Y-80230508D01*
X117197084Y-80230508D02*
X117166607Y-80321936D01*
X117166607Y-80321936D02*
X116800893Y-80687651D01*
X116800893Y-80687651D02*
X117197084Y-80687651D01*
X117440893Y-80108603D02*
X117471369Y-80078127D01*
X117471369Y-80078127D02*
X117532322Y-80047651D01*
X117532322Y-80047651D02*
X117684703Y-80047651D01*
X117684703Y-80047651D02*
X117745655Y-80078127D01*
X117745655Y-80078127D02*
X117776131Y-80108603D01*
X117776131Y-80108603D02*
X117806608Y-80169555D01*
X117806608Y-80169555D02*
X117806608Y-80230508D01*
X117806608Y-80230508D02*
X117776131Y-80321936D01*
X117776131Y-80321936D02*
X117410417Y-80687651D01*
X117410417Y-80687651D02*
X117806608Y-80687651D01*
X129008836Y-67634435D02*
X129008836Y-68152530D01*
X129008836Y-68152530D02*
X129039313Y-68213482D01*
X129039313Y-68213482D02*
X129069789Y-68243959D01*
X129069789Y-68243959D02*
X129130741Y-68274435D01*
X129130741Y-68274435D02*
X129252646Y-68274435D01*
X129252646Y-68274435D02*
X129313598Y-68243959D01*
X129313598Y-68243959D02*
X129344075Y-68213482D01*
X129344075Y-68213482D02*
X129374551Y-68152530D01*
X129374551Y-68152530D02*
X129374551Y-67634435D01*
X129984074Y-67634435D02*
X129679312Y-67634435D01*
X129679312Y-67634435D02*
X129648836Y-67939197D01*
X129648836Y-67939197D02*
X129679312Y-67908720D01*
X129679312Y-67908720D02*
X129740265Y-67878244D01*
X129740265Y-67878244D02*
X129892646Y-67878244D01*
X129892646Y-67878244D02*
X129953598Y-67908720D01*
X129953598Y-67908720D02*
X129984074Y-67939197D01*
X129984074Y-67939197D02*
X130014551Y-68000149D01*
X130014551Y-68000149D02*
X130014551Y-68152530D01*
X130014551Y-68152530D02*
X129984074Y-68213482D01*
X129984074Y-68213482D02*
X129953598Y-68243959D01*
X129953598Y-68243959D02*
X129892646Y-68274435D01*
X129892646Y-68274435D02*
X129740265Y-68274435D01*
X129740265Y-68274435D02*
X129679312Y-68243959D01*
X129679312Y-68243959D02*
X129648836Y-68213482D01*
X123448874Y-71785288D02*
X123418398Y-71815765D01*
X123418398Y-71815765D02*
X123326969Y-71846241D01*
X123326969Y-71846241D02*
X123266017Y-71846241D01*
X123266017Y-71846241D02*
X123174588Y-71815765D01*
X123174588Y-71815765D02*
X123113636Y-71754812D01*
X123113636Y-71754812D02*
X123083159Y-71693860D01*
X123083159Y-71693860D02*
X123052683Y-71571955D01*
X123052683Y-71571955D02*
X123052683Y-71480526D01*
X123052683Y-71480526D02*
X123083159Y-71358622D01*
X123083159Y-71358622D02*
X123113636Y-71297669D01*
X123113636Y-71297669D02*
X123174588Y-71236717D01*
X123174588Y-71236717D02*
X123266017Y-71206241D01*
X123266017Y-71206241D02*
X123326969Y-71206241D01*
X123326969Y-71206241D02*
X123418398Y-71236717D01*
X123418398Y-71236717D02*
X123448874Y-71267193D01*
X123997445Y-71419574D02*
X123997445Y-71846241D01*
X123845064Y-71175765D02*
X123692683Y-71632907D01*
X123692683Y-71632907D02*
X124088874Y-71632907D01*
X93410890Y-66680327D02*
X93410890Y-67198422D01*
X93410890Y-67198422D02*
X93441367Y-67259374D01*
X93441367Y-67259374D02*
X93471843Y-67289851D01*
X93471843Y-67289851D02*
X93532795Y-67320327D01*
X93532795Y-67320327D02*
X93654700Y-67320327D01*
X93654700Y-67320327D02*
X93715652Y-67289851D01*
X93715652Y-67289851D02*
X93746129Y-67259374D01*
X93746129Y-67259374D02*
X93776605Y-67198422D01*
X93776605Y-67198422D02*
X93776605Y-66680327D01*
X94172795Y-66954612D02*
X94111843Y-66924136D01*
X94111843Y-66924136D02*
X94081366Y-66893660D01*
X94081366Y-66893660D02*
X94050890Y-66832708D01*
X94050890Y-66832708D02*
X94050890Y-66802231D01*
X94050890Y-66802231D02*
X94081366Y-66741279D01*
X94081366Y-66741279D02*
X94111843Y-66710803D01*
X94111843Y-66710803D02*
X94172795Y-66680327D01*
X94172795Y-66680327D02*
X94294700Y-66680327D01*
X94294700Y-66680327D02*
X94355652Y-66710803D01*
X94355652Y-66710803D02*
X94386128Y-66741279D01*
X94386128Y-66741279D02*
X94416605Y-66802231D01*
X94416605Y-66802231D02*
X94416605Y-66832708D01*
X94416605Y-66832708D02*
X94386128Y-66893660D01*
X94386128Y-66893660D02*
X94355652Y-66924136D01*
X94355652Y-66924136D02*
X94294700Y-66954612D01*
X94294700Y-66954612D02*
X94172795Y-66954612D01*
X94172795Y-66954612D02*
X94111843Y-66985089D01*
X94111843Y-66985089D02*
X94081366Y-67015565D01*
X94081366Y-67015565D02*
X94050890Y-67076517D01*
X94050890Y-67076517D02*
X94050890Y-67198422D01*
X94050890Y-67198422D02*
X94081366Y-67259374D01*
X94081366Y-67259374D02*
X94111843Y-67289851D01*
X94111843Y-67289851D02*
X94172795Y-67320327D01*
X94172795Y-67320327D02*
X94294700Y-67320327D01*
X94294700Y-67320327D02*
X94355652Y-67289851D01*
X94355652Y-67289851D02*
X94386128Y-67259374D01*
X94386128Y-67259374D02*
X94416605Y-67198422D01*
X94416605Y-67198422D02*
X94416605Y-67076517D01*
X94416605Y-67076517D02*
X94386128Y-67015565D01*
X94386128Y-67015565D02*
X94355652Y-66985089D01*
X94355652Y-66985089D02*
X94294700Y-66954612D01*
X99377013Y-86739832D02*
X99346537Y-86709356D01*
X99346537Y-86709356D02*
X99316060Y-86617927D01*
X99316060Y-86617927D02*
X99316060Y-86556975D01*
X99316060Y-86556975D02*
X99346537Y-86465546D01*
X99346537Y-86465546D02*
X99407489Y-86404594D01*
X99407489Y-86404594D02*
X99468441Y-86374117D01*
X99468441Y-86374117D02*
X99590346Y-86343641D01*
X99590346Y-86343641D02*
X99681775Y-86343641D01*
X99681775Y-86343641D02*
X99803679Y-86374117D01*
X99803679Y-86374117D02*
X99864632Y-86404594D01*
X99864632Y-86404594D02*
X99925584Y-86465546D01*
X99925584Y-86465546D02*
X99956060Y-86556975D01*
X99956060Y-86556975D02*
X99956060Y-86617927D01*
X99956060Y-86617927D02*
X99925584Y-86709356D01*
X99925584Y-86709356D02*
X99895108Y-86739832D01*
X99316060Y-87349356D02*
X99316060Y-86983641D01*
X99316060Y-87166498D02*
X99956060Y-87166498D01*
X99956060Y-87166498D02*
X99864632Y-87105546D01*
X99864632Y-87105546D02*
X99803679Y-87044594D01*
X99803679Y-87044594D02*
X99773203Y-86983641D01*
X99681775Y-87715070D02*
X99712251Y-87654118D01*
X99712251Y-87654118D02*
X99742727Y-87623641D01*
X99742727Y-87623641D02*
X99803679Y-87593165D01*
X99803679Y-87593165D02*
X99834156Y-87593165D01*
X99834156Y-87593165D02*
X99895108Y-87623641D01*
X99895108Y-87623641D02*
X99925584Y-87654118D01*
X99925584Y-87654118D02*
X99956060Y-87715070D01*
X99956060Y-87715070D02*
X99956060Y-87836975D01*
X99956060Y-87836975D02*
X99925584Y-87897927D01*
X99925584Y-87897927D02*
X99895108Y-87928403D01*
X99895108Y-87928403D02*
X99834156Y-87958880D01*
X99834156Y-87958880D02*
X99803679Y-87958880D01*
X99803679Y-87958880D02*
X99742727Y-87928403D01*
X99742727Y-87928403D02*
X99712251Y-87897927D01*
X99712251Y-87897927D02*
X99681775Y-87836975D01*
X99681775Y-87836975D02*
X99681775Y-87715070D01*
X99681775Y-87715070D02*
X99651298Y-87654118D01*
X99651298Y-87654118D02*
X99620822Y-87623641D01*
X99620822Y-87623641D02*
X99559870Y-87593165D01*
X99559870Y-87593165D02*
X99437965Y-87593165D01*
X99437965Y-87593165D02*
X99377013Y-87623641D01*
X99377013Y-87623641D02*
X99346537Y-87654118D01*
X99346537Y-87654118D02*
X99316060Y-87715070D01*
X99316060Y-87715070D02*
X99316060Y-87836975D01*
X99316060Y-87836975D02*
X99346537Y-87897927D01*
X99346537Y-87897927D02*
X99377013Y-87928403D01*
X99377013Y-87928403D02*
X99437965Y-87958880D01*
X99437965Y-87958880D02*
X99559870Y-87958880D01*
X99559870Y-87958880D02*
X99620822Y-87928403D01*
X99620822Y-87928403D02*
X99651298Y-87897927D01*
X99651298Y-87897927D02*
X99681775Y-87836975D01*
X103582938Y-90113410D02*
X103552462Y-90143887D01*
X103552462Y-90143887D02*
X103461033Y-90174363D01*
X103461033Y-90174363D02*
X103400081Y-90174363D01*
X103400081Y-90174363D02*
X103308652Y-90143887D01*
X103308652Y-90143887D02*
X103247700Y-90082934D01*
X103247700Y-90082934D02*
X103217223Y-90021982D01*
X103217223Y-90021982D02*
X103186747Y-89900077D01*
X103186747Y-89900077D02*
X103186747Y-89808648D01*
X103186747Y-89808648D02*
X103217223Y-89686744D01*
X103217223Y-89686744D02*
X103247700Y-89625791D01*
X103247700Y-89625791D02*
X103308652Y-89564839D01*
X103308652Y-89564839D02*
X103400081Y-89534363D01*
X103400081Y-89534363D02*
X103461033Y-89534363D01*
X103461033Y-89534363D02*
X103552462Y-89564839D01*
X103552462Y-89564839D02*
X103582938Y-89595315D01*
X104192462Y-90174363D02*
X103826747Y-90174363D01*
X104009604Y-90174363D02*
X104009604Y-89534363D01*
X104009604Y-89534363D02*
X103948652Y-89625791D01*
X103948652Y-89625791D02*
X103887700Y-89686744D01*
X103887700Y-89686744D02*
X103826747Y-89717220D01*
X104741033Y-89534363D02*
X104619128Y-89534363D01*
X104619128Y-89534363D02*
X104558176Y-89564839D01*
X104558176Y-89564839D02*
X104527700Y-89595315D01*
X104527700Y-89595315D02*
X104466747Y-89686744D01*
X104466747Y-89686744D02*
X104436271Y-89808648D01*
X104436271Y-89808648D02*
X104436271Y-90052458D01*
X104436271Y-90052458D02*
X104466747Y-90113410D01*
X104466747Y-90113410D02*
X104497224Y-90143887D01*
X104497224Y-90143887D02*
X104558176Y-90174363D01*
X104558176Y-90174363D02*
X104680081Y-90174363D01*
X104680081Y-90174363D02*
X104741033Y-90143887D01*
X104741033Y-90143887D02*
X104771509Y-90113410D01*
X104771509Y-90113410D02*
X104801986Y-90052458D01*
X104801986Y-90052458D02*
X104801986Y-89900077D01*
X104801986Y-89900077D02*
X104771509Y-89839125D01*
X104771509Y-89839125D02*
X104741033Y-89808648D01*
X104741033Y-89808648D02*
X104680081Y-89778172D01*
X104680081Y-89778172D02*
X104558176Y-89778172D01*
X104558176Y-89778172D02*
X104497224Y-89808648D01*
X104497224Y-89808648D02*
X104466747Y-89839125D01*
X104466747Y-89839125D02*
X104436271Y-89900077D01*
X119466706Y-79788276D02*
X119253372Y-79483514D01*
X119100991Y-79788276D02*
X119100991Y-79148276D01*
X119100991Y-79148276D02*
X119344801Y-79148276D01*
X119344801Y-79148276D02*
X119405753Y-79178752D01*
X119405753Y-79178752D02*
X119436230Y-79209228D01*
X119436230Y-79209228D02*
X119466706Y-79270180D01*
X119466706Y-79270180D02*
X119466706Y-79361609D01*
X119466706Y-79361609D02*
X119436230Y-79422561D01*
X119436230Y-79422561D02*
X119405753Y-79453038D01*
X119405753Y-79453038D02*
X119344801Y-79483514D01*
X119344801Y-79483514D02*
X119100991Y-79483514D01*
X120076230Y-79788276D02*
X119710515Y-79788276D01*
X119893372Y-79788276D02*
X119893372Y-79148276D01*
X119893372Y-79148276D02*
X119832420Y-79239704D01*
X119832420Y-79239704D02*
X119771468Y-79300657D01*
X119771468Y-79300657D02*
X119710515Y-79331133D01*
X120472420Y-79148276D02*
X120533373Y-79148276D01*
X120533373Y-79148276D02*
X120594325Y-79178752D01*
X120594325Y-79178752D02*
X120624801Y-79209228D01*
X120624801Y-79209228D02*
X120655277Y-79270180D01*
X120655277Y-79270180D02*
X120685754Y-79392085D01*
X120685754Y-79392085D02*
X120685754Y-79544466D01*
X120685754Y-79544466D02*
X120655277Y-79666371D01*
X120655277Y-79666371D02*
X120624801Y-79727323D01*
X120624801Y-79727323D02*
X120594325Y-79757800D01*
X120594325Y-79757800D02*
X120533373Y-79788276D01*
X120533373Y-79788276D02*
X120472420Y-79788276D01*
X120472420Y-79788276D02*
X120411468Y-79757800D01*
X120411468Y-79757800D02*
X120380992Y-79727323D01*
X120380992Y-79727323D02*
X120350515Y-79666371D01*
X120350515Y-79666371D02*
X120320039Y-79544466D01*
X120320039Y-79544466D02*
X120320039Y-79392085D01*
X120320039Y-79392085D02*
X120350515Y-79270180D01*
X120350515Y-79270180D02*
X120380992Y-79209228D01*
X120380992Y-79209228D02*
X120411468Y-79178752D01*
X120411468Y-79178752D02*
X120472420Y-79148276D01*
X137393333Y-74168085D02*
X137179999Y-73863323D01*
X137027618Y-74168085D02*
X137027618Y-73528085D01*
X137027618Y-73528085D02*
X137271428Y-73528085D01*
X137271428Y-73528085D02*
X137332380Y-73558561D01*
X137332380Y-73558561D02*
X137362857Y-73589037D01*
X137362857Y-73589037D02*
X137393333Y-73649989D01*
X137393333Y-73649989D02*
X137393333Y-73741418D01*
X137393333Y-73741418D02*
X137362857Y-73802370D01*
X137362857Y-73802370D02*
X137332380Y-73832847D01*
X137332380Y-73832847D02*
X137271428Y-73863323D01*
X137271428Y-73863323D02*
X137027618Y-73863323D01*
X137637142Y-73589037D02*
X137667618Y-73558561D01*
X137667618Y-73558561D02*
X137728571Y-73528085D01*
X137728571Y-73528085D02*
X137880952Y-73528085D01*
X137880952Y-73528085D02*
X137941904Y-73558561D01*
X137941904Y-73558561D02*
X137972380Y-73589037D01*
X137972380Y-73589037D02*
X138002857Y-73649989D01*
X138002857Y-73649989D02*
X138002857Y-73710942D01*
X138002857Y-73710942D02*
X137972380Y-73802370D01*
X137972380Y-73802370D02*
X137606666Y-74168085D01*
X137606666Y-74168085D02*
X138002857Y-74168085D01*
X113626909Y-80771359D02*
X113596433Y-80801836D01*
X113596433Y-80801836D02*
X113505004Y-80832312D01*
X113505004Y-80832312D02*
X113444052Y-80832312D01*
X113444052Y-80832312D02*
X113352623Y-80801836D01*
X113352623Y-80801836D02*
X113291671Y-80740883D01*
X113291671Y-80740883D02*
X113261194Y-80679931D01*
X113261194Y-80679931D02*
X113230718Y-80558026D01*
X113230718Y-80558026D02*
X113230718Y-80466597D01*
X113230718Y-80466597D02*
X113261194Y-80344693D01*
X113261194Y-80344693D02*
X113291671Y-80283740D01*
X113291671Y-80283740D02*
X113352623Y-80222788D01*
X113352623Y-80222788D02*
X113444052Y-80192312D01*
X113444052Y-80192312D02*
X113505004Y-80192312D01*
X113505004Y-80192312D02*
X113596433Y-80222788D01*
X113596433Y-80222788D02*
X113626909Y-80253264D01*
X113870718Y-80253264D02*
X113901194Y-80222788D01*
X113901194Y-80222788D02*
X113962147Y-80192312D01*
X113962147Y-80192312D02*
X114114528Y-80192312D01*
X114114528Y-80192312D02*
X114175480Y-80222788D01*
X114175480Y-80222788D02*
X114205956Y-80253264D01*
X114205956Y-80253264D02*
X114236433Y-80314216D01*
X114236433Y-80314216D02*
X114236433Y-80375169D01*
X114236433Y-80375169D02*
X114205956Y-80466597D01*
X114205956Y-80466597D02*
X113840242Y-80832312D01*
X113840242Y-80832312D02*
X114236433Y-80832312D01*
X114845957Y-80832312D02*
X114480242Y-80832312D01*
X114663099Y-80832312D02*
X114663099Y-80192312D01*
X114663099Y-80192312D02*
X114602147Y-80283740D01*
X114602147Y-80283740D02*
X114541195Y-80344693D01*
X114541195Y-80344693D02*
X114480242Y-80375169D01*
X101484439Y-67068367D02*
X101271105Y-66763605D01*
X101118724Y-67068367D02*
X101118724Y-66428367D01*
X101118724Y-66428367D02*
X101362534Y-66428367D01*
X101362534Y-66428367D02*
X101423486Y-66458843D01*
X101423486Y-66458843D02*
X101453963Y-66489319D01*
X101453963Y-66489319D02*
X101484439Y-66550271D01*
X101484439Y-66550271D02*
X101484439Y-66641700D01*
X101484439Y-66641700D02*
X101453963Y-66702652D01*
X101453963Y-66702652D02*
X101423486Y-66733129D01*
X101423486Y-66733129D02*
X101362534Y-66763605D01*
X101362534Y-66763605D02*
X101118724Y-66763605D01*
X102093963Y-67068367D02*
X101728248Y-67068367D01*
X101911105Y-67068367D02*
X101911105Y-66428367D01*
X101911105Y-66428367D02*
X101850153Y-66519795D01*
X101850153Y-66519795D02*
X101789201Y-66580748D01*
X101789201Y-66580748D02*
X101728248Y-66611224D01*
X102459677Y-66702652D02*
X102398725Y-66672176D01*
X102398725Y-66672176D02*
X102368248Y-66641700D01*
X102368248Y-66641700D02*
X102337772Y-66580748D01*
X102337772Y-66580748D02*
X102337772Y-66550271D01*
X102337772Y-66550271D02*
X102368248Y-66489319D01*
X102368248Y-66489319D02*
X102398725Y-66458843D01*
X102398725Y-66458843D02*
X102459677Y-66428367D01*
X102459677Y-66428367D02*
X102581582Y-66428367D01*
X102581582Y-66428367D02*
X102642534Y-66458843D01*
X102642534Y-66458843D02*
X102673010Y-66489319D01*
X102673010Y-66489319D02*
X102703487Y-66550271D01*
X102703487Y-66550271D02*
X102703487Y-66580748D01*
X102703487Y-66580748D02*
X102673010Y-66641700D01*
X102673010Y-66641700D02*
X102642534Y-66672176D01*
X102642534Y-66672176D02*
X102581582Y-66702652D01*
X102581582Y-66702652D02*
X102459677Y-66702652D01*
X102459677Y-66702652D02*
X102398725Y-66733129D01*
X102398725Y-66733129D02*
X102368248Y-66763605D01*
X102368248Y-66763605D02*
X102337772Y-66824557D01*
X102337772Y-66824557D02*
X102337772Y-66946462D01*
X102337772Y-66946462D02*
X102368248Y-67007414D01*
X102368248Y-67007414D02*
X102398725Y-67037891D01*
X102398725Y-67037891D02*
X102459677Y-67068367D01*
X102459677Y-67068367D02*
X102581582Y-67068367D01*
X102581582Y-67068367D02*
X102642534Y-67037891D01*
X102642534Y-67037891D02*
X102673010Y-67007414D01*
X102673010Y-67007414D02*
X102703487Y-66946462D01*
X102703487Y-66946462D02*
X102703487Y-66824557D01*
X102703487Y-66824557D02*
X102673010Y-66763605D01*
X102673010Y-66763605D02*
X102642534Y-66733129D01*
X102642534Y-66733129D02*
X102581582Y-66702652D01*
X124615415Y-73231187D02*
X124584939Y-73261664D01*
X124584939Y-73261664D02*
X124493510Y-73292140D01*
X124493510Y-73292140D02*
X124432558Y-73292140D01*
X124432558Y-73292140D02*
X124341129Y-73261664D01*
X124341129Y-73261664D02*
X124280177Y-73200711D01*
X124280177Y-73200711D02*
X124249700Y-73139759D01*
X124249700Y-73139759D02*
X124219224Y-73017854D01*
X124219224Y-73017854D02*
X124219224Y-72926425D01*
X124219224Y-72926425D02*
X124249700Y-72804521D01*
X124249700Y-72804521D02*
X124280177Y-72743568D01*
X124280177Y-72743568D02*
X124341129Y-72682616D01*
X124341129Y-72682616D02*
X124432558Y-72652140D01*
X124432558Y-72652140D02*
X124493510Y-72652140D01*
X124493510Y-72652140D02*
X124584939Y-72682616D01*
X124584939Y-72682616D02*
X124615415Y-72713092D01*
X124859224Y-72713092D02*
X124889700Y-72682616D01*
X124889700Y-72682616D02*
X124950653Y-72652140D01*
X124950653Y-72652140D02*
X125103034Y-72652140D01*
X125103034Y-72652140D02*
X125163986Y-72682616D01*
X125163986Y-72682616D02*
X125194462Y-72713092D01*
X125194462Y-72713092D02*
X125224939Y-72774044D01*
X125224939Y-72774044D02*
X125224939Y-72834997D01*
X125224939Y-72834997D02*
X125194462Y-72926425D01*
X125194462Y-72926425D02*
X124828748Y-73292140D01*
X124828748Y-73292140D02*
X125224939Y-73292140D01*
X100084818Y-80793343D02*
X100054342Y-80823820D01*
X100054342Y-80823820D02*
X99962913Y-80854296D01*
X99962913Y-80854296D02*
X99901961Y-80854296D01*
X99901961Y-80854296D02*
X99810532Y-80823820D01*
X99810532Y-80823820D02*
X99749580Y-80762867D01*
X99749580Y-80762867D02*
X99719103Y-80701915D01*
X99719103Y-80701915D02*
X99688627Y-80580010D01*
X99688627Y-80580010D02*
X99688627Y-80488581D01*
X99688627Y-80488581D02*
X99719103Y-80366677D01*
X99719103Y-80366677D02*
X99749580Y-80305724D01*
X99749580Y-80305724D02*
X99810532Y-80244772D01*
X99810532Y-80244772D02*
X99901961Y-80214296D01*
X99901961Y-80214296D02*
X99962913Y-80214296D01*
X99962913Y-80214296D02*
X100054342Y-80244772D01*
X100054342Y-80244772D02*
X100084818Y-80275248D01*
X100328627Y-80275248D02*
X100359103Y-80244772D01*
X100359103Y-80244772D02*
X100420056Y-80214296D01*
X100420056Y-80214296D02*
X100572437Y-80214296D01*
X100572437Y-80214296D02*
X100633389Y-80244772D01*
X100633389Y-80244772D02*
X100663865Y-80275248D01*
X100663865Y-80275248D02*
X100694342Y-80336200D01*
X100694342Y-80336200D02*
X100694342Y-80397153D01*
X100694342Y-80397153D02*
X100663865Y-80488581D01*
X100663865Y-80488581D02*
X100298151Y-80854296D01*
X100298151Y-80854296D02*
X100694342Y-80854296D01*
X100907675Y-80214296D02*
X101334342Y-80214296D01*
X101334342Y-80214296D02*
X101060056Y-80854296D01*
X131211513Y-80849748D02*
X131516275Y-80636414D01*
X131211513Y-80484033D02*
X131851513Y-80484033D01*
X131851513Y-80484033D02*
X131851513Y-80727843D01*
X131851513Y-80727843D02*
X131821037Y-80788795D01*
X131821037Y-80788795D02*
X131790561Y-80819272D01*
X131790561Y-80819272D02*
X131729609Y-80849748D01*
X131729609Y-80849748D02*
X131638180Y-80849748D01*
X131638180Y-80849748D02*
X131577228Y-80819272D01*
X131577228Y-80819272D02*
X131546751Y-80788795D01*
X131546751Y-80788795D02*
X131516275Y-80727843D01*
X131516275Y-80727843D02*
X131516275Y-80484033D01*
X131851513Y-81398319D02*
X131851513Y-81276414D01*
X131851513Y-81276414D02*
X131821037Y-81215462D01*
X131821037Y-81215462D02*
X131790561Y-81184986D01*
X131790561Y-81184986D02*
X131699132Y-81124033D01*
X131699132Y-81124033D02*
X131577228Y-81093557D01*
X131577228Y-81093557D02*
X131333418Y-81093557D01*
X131333418Y-81093557D02*
X131272466Y-81124033D01*
X131272466Y-81124033D02*
X131241990Y-81154510D01*
X131241990Y-81154510D02*
X131211513Y-81215462D01*
X131211513Y-81215462D02*
X131211513Y-81337367D01*
X131211513Y-81337367D02*
X131241990Y-81398319D01*
X131241990Y-81398319D02*
X131272466Y-81428795D01*
X131272466Y-81428795D02*
X131333418Y-81459272D01*
X131333418Y-81459272D02*
X131485799Y-81459272D01*
X131485799Y-81459272D02*
X131546751Y-81428795D01*
X131546751Y-81428795D02*
X131577228Y-81398319D01*
X131577228Y-81398319D02*
X131607704Y-81337367D01*
X131607704Y-81337367D02*
X131607704Y-81215462D01*
X131607704Y-81215462D02*
X131577228Y-81154510D01*
X131577228Y-81154510D02*
X131546751Y-81124033D01*
X131546751Y-81124033D02*
X131485799Y-81093557D01*
X120742853Y-75829464D02*
X120712377Y-75859941D01*
X120712377Y-75859941D02*
X120620948Y-75890417D01*
X120620948Y-75890417D02*
X120559996Y-75890417D01*
X120559996Y-75890417D02*
X120468567Y-75859941D01*
X120468567Y-75859941D02*
X120407615Y-75798988D01*
X120407615Y-75798988D02*
X120377138Y-75738036D01*
X120377138Y-75738036D02*
X120346662Y-75616131D01*
X120346662Y-75616131D02*
X120346662Y-75524702D01*
X120346662Y-75524702D02*
X120377138Y-75402798D01*
X120377138Y-75402798D02*
X120407615Y-75341845D01*
X120407615Y-75341845D02*
X120468567Y-75280893D01*
X120468567Y-75280893D02*
X120559996Y-75250417D01*
X120559996Y-75250417D02*
X120620948Y-75250417D01*
X120620948Y-75250417D02*
X120712377Y-75280893D01*
X120712377Y-75280893D02*
X120742853Y-75311369D01*
X121352377Y-75890417D02*
X120986662Y-75890417D01*
X121169519Y-75890417D02*
X121169519Y-75250417D01*
X121169519Y-75250417D02*
X121108567Y-75341845D01*
X121108567Y-75341845D02*
X121047615Y-75402798D01*
X121047615Y-75402798D02*
X120986662Y-75433274D01*
X121961901Y-75890417D02*
X121596186Y-75890417D01*
X121779043Y-75890417D02*
X121779043Y-75250417D01*
X121779043Y-75250417D02*
X121718091Y-75341845D01*
X121718091Y-75341845D02*
X121657139Y-75402798D01*
X121657139Y-75402798D02*
X121596186Y-75433274D01*
X95265178Y-73602993D02*
X95265178Y-74121088D01*
X95265178Y-74121088D02*
X95295655Y-74182040D01*
X95295655Y-74182040D02*
X95326131Y-74212517D01*
X95326131Y-74212517D02*
X95387083Y-74242993D01*
X95387083Y-74242993D02*
X95508988Y-74242993D01*
X95508988Y-74242993D02*
X95569940Y-74212517D01*
X95569940Y-74212517D02*
X95600417Y-74182040D01*
X95600417Y-74182040D02*
X95630893Y-74121088D01*
X95630893Y-74121088D02*
X95630893Y-73602993D01*
X95966131Y-74242993D02*
X96088035Y-74242993D01*
X96088035Y-74242993D02*
X96148988Y-74212517D01*
X96148988Y-74212517D02*
X96179464Y-74182040D01*
X96179464Y-74182040D02*
X96240416Y-74090612D01*
X96240416Y-74090612D02*
X96270893Y-73968707D01*
X96270893Y-73968707D02*
X96270893Y-73724897D01*
X96270893Y-73724897D02*
X96240416Y-73663945D01*
X96240416Y-73663945D02*
X96209940Y-73633469D01*
X96209940Y-73633469D02*
X96148988Y-73602993D01*
X96148988Y-73602993D02*
X96027083Y-73602993D01*
X96027083Y-73602993D02*
X95966131Y-73633469D01*
X95966131Y-73633469D02*
X95935654Y-73663945D01*
X95935654Y-73663945D02*
X95905178Y-73724897D01*
X95905178Y-73724897D02*
X95905178Y-73877278D01*
X95905178Y-73877278D02*
X95935654Y-73938231D01*
X95935654Y-73938231D02*
X95966131Y-73968707D01*
X95966131Y-73968707D02*
X96027083Y-73999183D01*
X96027083Y-73999183D02*
X96148988Y-73999183D01*
X96148988Y-73999183D02*
X96209940Y-73968707D01*
X96209940Y-73968707D02*
X96240416Y-73938231D01*
X96240416Y-73938231D02*
X96270893Y-73877278D01*
X121872718Y-65269199D02*
X121872718Y-65726342D01*
X121872718Y-65726342D02*
X121842241Y-65817770D01*
X121842241Y-65817770D02*
X121781289Y-65878723D01*
X121781289Y-65878723D02*
X121689860Y-65909199D01*
X121689860Y-65909199D02*
X121628908Y-65909199D01*
X122451765Y-65269199D02*
X122329860Y-65269199D01*
X122329860Y-65269199D02*
X122268908Y-65299675D01*
X122268908Y-65299675D02*
X122238432Y-65330151D01*
X122238432Y-65330151D02*
X122177479Y-65421580D01*
X122177479Y-65421580D02*
X122147003Y-65543484D01*
X122147003Y-65543484D02*
X122147003Y-65787294D01*
X122147003Y-65787294D02*
X122177479Y-65848246D01*
X122177479Y-65848246D02*
X122207956Y-65878723D01*
X122207956Y-65878723D02*
X122268908Y-65909199D01*
X122268908Y-65909199D02*
X122390813Y-65909199D01*
X122390813Y-65909199D02*
X122451765Y-65878723D01*
X122451765Y-65878723D02*
X122482241Y-65848246D01*
X122482241Y-65848246D02*
X122512718Y-65787294D01*
X122512718Y-65787294D02*
X122512718Y-65634913D01*
X122512718Y-65634913D02*
X122482241Y-65573961D01*
X122482241Y-65573961D02*
X122451765Y-65543484D01*
X122451765Y-65543484D02*
X122390813Y-65513008D01*
X122390813Y-65513008D02*
X122268908Y-65513008D01*
X122268908Y-65513008D02*
X122207956Y-65543484D01*
X122207956Y-65543484D02*
X122177479Y-65573961D01*
X122177479Y-65573961D02*
X122147003Y-65634913D01*
X120842793Y-73144857D02*
X120629459Y-72840095D01*
X120477078Y-73144857D02*
X120477078Y-72504857D01*
X120477078Y-72504857D02*
X120720888Y-72504857D01*
X120720888Y-72504857D02*
X120781840Y-72535333D01*
X120781840Y-72535333D02*
X120812317Y-72565809D01*
X120812317Y-72565809D02*
X120842793Y-72626761D01*
X120842793Y-72626761D02*
X120842793Y-72718190D01*
X120842793Y-72718190D02*
X120812317Y-72779142D01*
X120812317Y-72779142D02*
X120781840Y-72809619D01*
X120781840Y-72809619D02*
X120720888Y-72840095D01*
X120720888Y-72840095D02*
X120477078Y-72840095D01*
X121452317Y-73144857D02*
X121086602Y-73144857D01*
X121269459Y-73144857D02*
X121269459Y-72504857D01*
X121269459Y-72504857D02*
X121208507Y-72596285D01*
X121208507Y-72596285D02*
X121147555Y-72657238D01*
X121147555Y-72657238D02*
X121086602Y-72687714D01*
X122000888Y-72718190D02*
X122000888Y-73144857D01*
X121848507Y-72474381D02*
X121696126Y-72931523D01*
X121696126Y-72931523D02*
X122092317Y-72931523D01*
X96012558Y-70393333D02*
X96317320Y-70179999D01*
X96012558Y-70027618D02*
X96652558Y-70027618D01*
X96652558Y-70027618D02*
X96652558Y-70271428D01*
X96652558Y-70271428D02*
X96622082Y-70332380D01*
X96622082Y-70332380D02*
X96591606Y-70362857D01*
X96591606Y-70362857D02*
X96530654Y-70393333D01*
X96530654Y-70393333D02*
X96439225Y-70393333D01*
X96439225Y-70393333D02*
X96378273Y-70362857D01*
X96378273Y-70362857D02*
X96347796Y-70332380D01*
X96347796Y-70332380D02*
X96317320Y-70271428D01*
X96317320Y-70271428D02*
X96317320Y-70027618D01*
X96652558Y-70606666D02*
X96652558Y-71033333D01*
X96652558Y-71033333D02*
X96012558Y-70759047D01*
X108587007Y-67354024D02*
X108282245Y-67354024D01*
X108282245Y-67354024D02*
X108282245Y-66714024D01*
X109135579Y-67354024D02*
X108769864Y-67354024D01*
X108952721Y-67354024D02*
X108952721Y-66714024D01*
X108952721Y-66714024D02*
X108891769Y-66805452D01*
X108891769Y-66805452D02*
X108830817Y-66866405D01*
X108830817Y-66866405D02*
X108769864Y-66896881D01*
X115184028Y-74126193D02*
X115184028Y-74644288D01*
X115184028Y-74644288D02*
X115214505Y-74705240D01*
X115214505Y-74705240D02*
X115244981Y-74735717D01*
X115244981Y-74735717D02*
X115305933Y-74766193D01*
X115305933Y-74766193D02*
X115427838Y-74766193D01*
X115427838Y-74766193D02*
X115488790Y-74735717D01*
X115488790Y-74735717D02*
X115519267Y-74705240D01*
X115519267Y-74705240D02*
X115549743Y-74644288D01*
X115549743Y-74644288D02*
X115549743Y-74126193D01*
X115793552Y-74126193D02*
X116189743Y-74126193D01*
X116189743Y-74126193D02*
X115976409Y-74370002D01*
X115976409Y-74370002D02*
X116067838Y-74370002D01*
X116067838Y-74370002D02*
X116128790Y-74400478D01*
X116128790Y-74400478D02*
X116159266Y-74430955D01*
X116159266Y-74430955D02*
X116189743Y-74491907D01*
X116189743Y-74491907D02*
X116189743Y-74644288D01*
X116189743Y-74644288D02*
X116159266Y-74705240D01*
X116159266Y-74705240D02*
X116128790Y-74735717D01*
X116128790Y-74735717D02*
X116067838Y-74766193D01*
X116067838Y-74766193D02*
X115884981Y-74766193D01*
X115884981Y-74766193D02*
X115824028Y-74735717D01*
X115824028Y-74735717D02*
X115793552Y-74705240D01*
X107713236Y-80793343D02*
X107682760Y-80823820D01*
X107682760Y-80823820D02*
X107591331Y-80854296D01*
X107591331Y-80854296D02*
X107530379Y-80854296D01*
X107530379Y-80854296D02*
X107438950Y-80823820D01*
X107438950Y-80823820D02*
X107377998Y-80762867D01*
X107377998Y-80762867D02*
X107347521Y-80701915D01*
X107347521Y-80701915D02*
X107317045Y-80580010D01*
X107317045Y-80580010D02*
X107317045Y-80488581D01*
X107317045Y-80488581D02*
X107347521Y-80366677D01*
X107347521Y-80366677D02*
X107377998Y-80305724D01*
X107377998Y-80305724D02*
X107438950Y-80244772D01*
X107438950Y-80244772D02*
X107530379Y-80214296D01*
X107530379Y-80214296D02*
X107591331Y-80214296D01*
X107591331Y-80214296D02*
X107682760Y-80244772D01*
X107682760Y-80244772D02*
X107713236Y-80275248D01*
X108322760Y-80854296D02*
X107957045Y-80854296D01*
X108139902Y-80854296D02*
X108139902Y-80214296D01*
X108139902Y-80214296D02*
X108078950Y-80305724D01*
X108078950Y-80305724D02*
X108017998Y-80366677D01*
X108017998Y-80366677D02*
X107957045Y-80397153D01*
X108627522Y-80854296D02*
X108749426Y-80854296D01*
X108749426Y-80854296D02*
X108810379Y-80823820D01*
X108810379Y-80823820D02*
X108840855Y-80793343D01*
X108840855Y-80793343D02*
X108901807Y-80701915D01*
X108901807Y-80701915D02*
X108932284Y-80580010D01*
X108932284Y-80580010D02*
X108932284Y-80336200D01*
X108932284Y-80336200D02*
X108901807Y-80275248D01*
X108901807Y-80275248D02*
X108871331Y-80244772D01*
X108871331Y-80244772D02*
X108810379Y-80214296D01*
X108810379Y-80214296D02*
X108688474Y-80214296D01*
X108688474Y-80214296D02*
X108627522Y-80244772D01*
X108627522Y-80244772D02*
X108597045Y-80275248D01*
X108597045Y-80275248D02*
X108566569Y-80336200D01*
X108566569Y-80336200D02*
X108566569Y-80488581D01*
X108566569Y-80488581D02*
X108597045Y-80549534D01*
X108597045Y-80549534D02*
X108627522Y-80580010D01*
X108627522Y-80580010D02*
X108688474Y-80610486D01*
X108688474Y-80610486D02*
X108810379Y-80610486D01*
X108810379Y-80610486D02*
X108871331Y-80580010D01*
X108871331Y-80580010D02*
X108901807Y-80549534D01*
X108901807Y-80549534D02*
X108932284Y-80488581D01*
X101758355Y-81948707D02*
X101545021Y-81643945D01*
X101392640Y-81948707D02*
X101392640Y-81308707D01*
X101392640Y-81308707D02*
X101636450Y-81308707D01*
X101636450Y-81308707D02*
X101697402Y-81339183D01*
X101697402Y-81339183D02*
X101727879Y-81369659D01*
X101727879Y-81369659D02*
X101758355Y-81430611D01*
X101758355Y-81430611D02*
X101758355Y-81522040D01*
X101758355Y-81522040D02*
X101727879Y-81582992D01*
X101727879Y-81582992D02*
X101697402Y-81613469D01*
X101697402Y-81613469D02*
X101636450Y-81643945D01*
X101636450Y-81643945D02*
X101392640Y-81643945D01*
X102367879Y-81948707D02*
X102002164Y-81948707D01*
X102185021Y-81948707D02*
X102185021Y-81308707D01*
X102185021Y-81308707D02*
X102124069Y-81400135D01*
X102124069Y-81400135D02*
X102063117Y-81461088D01*
X102063117Y-81461088D02*
X102002164Y-81491564D01*
X102672641Y-81948707D02*
X102794545Y-81948707D01*
X102794545Y-81948707D02*
X102855498Y-81918231D01*
X102855498Y-81918231D02*
X102885974Y-81887754D01*
X102885974Y-81887754D02*
X102946926Y-81796326D01*
X102946926Y-81796326D02*
X102977403Y-81674421D01*
X102977403Y-81674421D02*
X102977403Y-81430611D01*
X102977403Y-81430611D02*
X102946926Y-81369659D01*
X102946926Y-81369659D02*
X102916450Y-81339183D01*
X102916450Y-81339183D02*
X102855498Y-81308707D01*
X102855498Y-81308707D02*
X102733593Y-81308707D01*
X102733593Y-81308707D02*
X102672641Y-81339183D01*
X102672641Y-81339183D02*
X102642164Y-81369659D01*
X102642164Y-81369659D02*
X102611688Y-81430611D01*
X102611688Y-81430611D02*
X102611688Y-81582992D01*
X102611688Y-81582992D02*
X102642164Y-81643945D01*
X102642164Y-81643945D02*
X102672641Y-81674421D01*
X102672641Y-81674421D02*
X102733593Y-81704897D01*
X102733593Y-81704897D02*
X102855498Y-81704897D01*
X102855498Y-81704897D02*
X102916450Y-81674421D01*
X102916450Y-81674421D02*
X102946926Y-81643945D01*
X102946926Y-81643945D02*
X102977403Y-81582992D01*
X119457879Y-81879405D02*
X119244545Y-81574643D01*
X119092164Y-81879405D02*
X119092164Y-81239405D01*
X119092164Y-81239405D02*
X119335974Y-81239405D01*
X119335974Y-81239405D02*
X119396926Y-81269881D01*
X119396926Y-81269881D02*
X119427403Y-81300357D01*
X119427403Y-81300357D02*
X119457879Y-81361309D01*
X119457879Y-81361309D02*
X119457879Y-81452738D01*
X119457879Y-81452738D02*
X119427403Y-81513690D01*
X119427403Y-81513690D02*
X119396926Y-81544167D01*
X119396926Y-81544167D02*
X119335974Y-81574643D01*
X119335974Y-81574643D02*
X119092164Y-81574643D01*
X120067403Y-81879405D02*
X119701688Y-81879405D01*
X119884545Y-81879405D02*
X119884545Y-81239405D01*
X119884545Y-81239405D02*
X119823593Y-81330833D01*
X119823593Y-81330833D02*
X119762641Y-81391786D01*
X119762641Y-81391786D02*
X119701688Y-81422262D01*
X120280736Y-81239405D02*
X120676927Y-81239405D01*
X120676927Y-81239405D02*
X120463593Y-81483214D01*
X120463593Y-81483214D02*
X120555022Y-81483214D01*
X120555022Y-81483214D02*
X120615974Y-81513690D01*
X120615974Y-81513690D02*
X120646450Y-81544167D01*
X120646450Y-81544167D02*
X120676927Y-81605119D01*
X120676927Y-81605119D02*
X120676927Y-81757500D01*
X120676927Y-81757500D02*
X120646450Y-81818452D01*
X120646450Y-81818452D02*
X120615974Y-81848929D01*
X120615974Y-81848929D02*
X120555022Y-81879405D01*
X120555022Y-81879405D02*
X120372165Y-81879405D01*
X120372165Y-81879405D02*
X120311212Y-81848929D01*
X120311212Y-81848929D02*
X120280736Y-81818452D01*
X110036667Y-66398276D02*
X110036667Y-66855419D01*
X110036667Y-66855419D02*
X110006190Y-66946847D01*
X110006190Y-66946847D02*
X109945238Y-67007800D01*
X109945238Y-67007800D02*
X109853809Y-67038276D01*
X109853809Y-67038276D02*
X109792857Y-67038276D01*
X110432857Y-66672561D02*
X110371905Y-66642085D01*
X110371905Y-66642085D02*
X110341428Y-66611609D01*
X110341428Y-66611609D02*
X110310952Y-66550657D01*
X110310952Y-66550657D02*
X110310952Y-66520180D01*
X110310952Y-66520180D02*
X110341428Y-66459228D01*
X110341428Y-66459228D02*
X110371905Y-66428752D01*
X110371905Y-66428752D02*
X110432857Y-66398276D01*
X110432857Y-66398276D02*
X110554762Y-66398276D01*
X110554762Y-66398276D02*
X110615714Y-66428752D01*
X110615714Y-66428752D02*
X110646190Y-66459228D01*
X110646190Y-66459228D02*
X110676667Y-66520180D01*
X110676667Y-66520180D02*
X110676667Y-66550657D01*
X110676667Y-66550657D02*
X110646190Y-66611609D01*
X110646190Y-66611609D02*
X110615714Y-66642085D01*
X110615714Y-66642085D02*
X110554762Y-66672561D01*
X110554762Y-66672561D02*
X110432857Y-66672561D01*
X110432857Y-66672561D02*
X110371905Y-66703038D01*
X110371905Y-66703038D02*
X110341428Y-66733514D01*
X110341428Y-66733514D02*
X110310952Y-66794466D01*
X110310952Y-66794466D02*
X110310952Y-66916371D01*
X110310952Y-66916371D02*
X110341428Y-66977323D01*
X110341428Y-66977323D02*
X110371905Y-67007800D01*
X110371905Y-67007800D02*
X110432857Y-67038276D01*
X110432857Y-67038276D02*
X110554762Y-67038276D01*
X110554762Y-67038276D02*
X110615714Y-67007800D01*
X110615714Y-67007800D02*
X110646190Y-66977323D01*
X110646190Y-66977323D02*
X110676667Y-66916371D01*
X110676667Y-66916371D02*
X110676667Y-66794466D01*
X110676667Y-66794466D02*
X110646190Y-66733514D01*
X110646190Y-66733514D02*
X110615714Y-66703038D01*
X110615714Y-66703038D02*
X110554762Y-66672561D01*
X119466706Y-80788276D02*
X119253372Y-80483514D01*
X119100991Y-80788276D02*
X119100991Y-80148276D01*
X119100991Y-80148276D02*
X119344801Y-80148276D01*
X119344801Y-80148276D02*
X119405753Y-80178752D01*
X119405753Y-80178752D02*
X119436230Y-80209228D01*
X119436230Y-80209228D02*
X119466706Y-80270180D01*
X119466706Y-80270180D02*
X119466706Y-80361609D01*
X119466706Y-80361609D02*
X119436230Y-80422561D01*
X119436230Y-80422561D02*
X119405753Y-80453038D01*
X119405753Y-80453038D02*
X119344801Y-80483514D01*
X119344801Y-80483514D02*
X119100991Y-80483514D01*
X120076230Y-80788276D02*
X119710515Y-80788276D01*
X119893372Y-80788276D02*
X119893372Y-80148276D01*
X119893372Y-80148276D02*
X119832420Y-80239704D01*
X119832420Y-80239704D02*
X119771468Y-80300657D01*
X119771468Y-80300657D02*
X119710515Y-80331133D01*
X120320039Y-80209228D02*
X120350515Y-80178752D01*
X120350515Y-80178752D02*
X120411468Y-80148276D01*
X120411468Y-80148276D02*
X120563849Y-80148276D01*
X120563849Y-80148276D02*
X120624801Y-80178752D01*
X120624801Y-80178752D02*
X120655277Y-80209228D01*
X120655277Y-80209228D02*
X120685754Y-80270180D01*
X120685754Y-80270180D02*
X120685754Y-80331133D01*
X120685754Y-80331133D02*
X120655277Y-80422561D01*
X120655277Y-80422561D02*
X120289563Y-80788276D01*
X120289563Y-80788276D02*
X120685754Y-80788276D01*
X113113049Y-74679156D02*
X113082573Y-74709633D01*
X113082573Y-74709633D02*
X112991144Y-74740109D01*
X112991144Y-74740109D02*
X112930192Y-74740109D01*
X112930192Y-74740109D02*
X112838763Y-74709633D01*
X112838763Y-74709633D02*
X112777811Y-74648680D01*
X112777811Y-74648680D02*
X112747334Y-74587728D01*
X112747334Y-74587728D02*
X112716858Y-74465823D01*
X112716858Y-74465823D02*
X112716858Y-74374394D01*
X112716858Y-74374394D02*
X112747334Y-74252490D01*
X112747334Y-74252490D02*
X112777811Y-74191537D01*
X112777811Y-74191537D02*
X112838763Y-74130585D01*
X112838763Y-74130585D02*
X112930192Y-74100109D01*
X112930192Y-74100109D02*
X112991144Y-74100109D01*
X112991144Y-74100109D02*
X113082573Y-74130585D01*
X113082573Y-74130585D02*
X113113049Y-74161061D01*
X113326382Y-74100109D02*
X113753049Y-74100109D01*
X113753049Y-74100109D02*
X113478763Y-74740109D01*
X133163716Y-73288276D02*
X132950382Y-72983514D01*
X132798001Y-73288276D02*
X132798001Y-72648276D01*
X132798001Y-72648276D02*
X133041811Y-72648276D01*
X133041811Y-72648276D02*
X133102763Y-72678752D01*
X133102763Y-72678752D02*
X133133240Y-72709228D01*
X133133240Y-72709228D02*
X133163716Y-72770180D01*
X133163716Y-72770180D02*
X133163716Y-72861609D01*
X133163716Y-72861609D02*
X133133240Y-72922561D01*
X133133240Y-72922561D02*
X133102763Y-72953038D01*
X133102763Y-72953038D02*
X133041811Y-72983514D01*
X133041811Y-72983514D02*
X132798001Y-72983514D01*
X133773240Y-73288276D02*
X133407525Y-73288276D01*
X133590382Y-73288276D02*
X133590382Y-72648276D01*
X133590382Y-72648276D02*
X133529430Y-72739704D01*
X133529430Y-72739704D02*
X133468478Y-72800657D01*
X133468478Y-72800657D02*
X133407525Y-72831133D01*
X128088571Y-83538276D02*
X127875237Y-83233514D01*
X127722856Y-83538276D02*
X127722856Y-82898276D01*
X127722856Y-82898276D02*
X127966666Y-82898276D01*
X127966666Y-82898276D02*
X128027618Y-82928752D01*
X128027618Y-82928752D02*
X128058095Y-82959228D01*
X128058095Y-82959228D02*
X128088571Y-83020180D01*
X128088571Y-83020180D02*
X128088571Y-83111609D01*
X128088571Y-83111609D02*
X128058095Y-83172561D01*
X128058095Y-83172561D02*
X128027618Y-83203038D01*
X128027618Y-83203038D02*
X127966666Y-83233514D01*
X127966666Y-83233514D02*
X127722856Y-83233514D01*
X128332380Y-82959228D02*
X128362856Y-82928752D01*
X128362856Y-82928752D02*
X128423809Y-82898276D01*
X128423809Y-82898276D02*
X128576190Y-82898276D01*
X128576190Y-82898276D02*
X128637142Y-82928752D01*
X128637142Y-82928752D02*
X128667618Y-82959228D01*
X128667618Y-82959228D02*
X128698095Y-83020180D01*
X128698095Y-83020180D02*
X128698095Y-83081133D01*
X128698095Y-83081133D02*
X128667618Y-83172561D01*
X128667618Y-83172561D02*
X128301904Y-83538276D01*
X128301904Y-83538276D02*
X128698095Y-83538276D01*
X129246666Y-82898276D02*
X129124761Y-82898276D01*
X129124761Y-82898276D02*
X129063809Y-82928752D01*
X129063809Y-82928752D02*
X129033333Y-82959228D01*
X129033333Y-82959228D02*
X128972380Y-83050657D01*
X128972380Y-83050657D02*
X128941904Y-83172561D01*
X128941904Y-83172561D02*
X128941904Y-83416371D01*
X128941904Y-83416371D02*
X128972380Y-83477323D01*
X128972380Y-83477323D02*
X129002857Y-83507800D01*
X129002857Y-83507800D02*
X129063809Y-83538276D01*
X129063809Y-83538276D02*
X129185714Y-83538276D01*
X129185714Y-83538276D02*
X129246666Y-83507800D01*
X129246666Y-83507800D02*
X129277142Y-83477323D01*
X129277142Y-83477323D02*
X129307619Y-83416371D01*
X129307619Y-83416371D02*
X129307619Y-83263990D01*
X129307619Y-83263990D02*
X129277142Y-83203038D01*
X129277142Y-83203038D02*
X129246666Y-83172561D01*
X129246666Y-83172561D02*
X129185714Y-83142085D01*
X129185714Y-83142085D02*
X129063809Y-83142085D01*
X129063809Y-83142085D02*
X129002857Y-83172561D01*
X129002857Y-83172561D02*
X128972380Y-83203038D01*
X128972380Y-83203038D02*
X128941904Y-83263990D01*
X101525339Y-73417870D02*
X101525339Y-73935965D01*
X101525339Y-73935965D02*
X101555816Y-73996917D01*
X101555816Y-73996917D02*
X101586292Y-74027394D01*
X101586292Y-74027394D02*
X101647244Y-74057870D01*
X101647244Y-74057870D02*
X101769149Y-74057870D01*
X101769149Y-74057870D02*
X101830101Y-74027394D01*
X101830101Y-74027394D02*
X101860578Y-73996917D01*
X101860578Y-73996917D02*
X101891054Y-73935965D01*
X101891054Y-73935965D02*
X101891054Y-73417870D01*
X102470101Y-73417870D02*
X102348196Y-73417870D01*
X102348196Y-73417870D02*
X102287244Y-73448346D01*
X102287244Y-73448346D02*
X102256768Y-73478822D01*
X102256768Y-73478822D02*
X102195815Y-73570251D01*
X102195815Y-73570251D02*
X102165339Y-73692155D01*
X102165339Y-73692155D02*
X102165339Y-73935965D01*
X102165339Y-73935965D02*
X102195815Y-73996917D01*
X102195815Y-73996917D02*
X102226292Y-74027394D01*
X102226292Y-74027394D02*
X102287244Y-74057870D01*
X102287244Y-74057870D02*
X102409149Y-74057870D01*
X102409149Y-74057870D02*
X102470101Y-74027394D01*
X102470101Y-74027394D02*
X102500577Y-73996917D01*
X102500577Y-73996917D02*
X102531054Y-73935965D01*
X102531054Y-73935965D02*
X102531054Y-73783584D01*
X102531054Y-73783584D02*
X102500577Y-73722632D01*
X102500577Y-73722632D02*
X102470101Y-73692155D01*
X102470101Y-73692155D02*
X102409149Y-73661679D01*
X102409149Y-73661679D02*
X102287244Y-73661679D01*
X102287244Y-73661679D02*
X102226292Y-73692155D01*
X102226292Y-73692155D02*
X102195815Y-73722632D01*
X102195815Y-73722632D02*
X102165339Y-73783584D01*
X108635369Y-82288276D02*
X108330607Y-82288276D01*
X108330607Y-82288276D02*
X108330607Y-81648276D01*
X108818226Y-81709228D02*
X108848702Y-81678752D01*
X108848702Y-81678752D02*
X108909655Y-81648276D01*
X108909655Y-81648276D02*
X109062036Y-81648276D01*
X109062036Y-81648276D02*
X109122988Y-81678752D01*
X109122988Y-81678752D02*
X109153464Y-81709228D01*
X109153464Y-81709228D02*
X109183941Y-81770180D01*
X109183941Y-81770180D02*
X109183941Y-81831133D01*
X109183941Y-81831133D02*
X109153464Y-81922561D01*
X109153464Y-81922561D02*
X108787750Y-82288276D01*
X108787750Y-82288276D02*
X109183941Y-82288276D01*
X103052646Y-80749375D02*
X103022170Y-80779852D01*
X103022170Y-80779852D02*
X102930741Y-80810328D01*
X102930741Y-80810328D02*
X102869789Y-80810328D01*
X102869789Y-80810328D02*
X102778360Y-80779852D01*
X102778360Y-80779852D02*
X102717408Y-80718899D01*
X102717408Y-80718899D02*
X102686931Y-80657947D01*
X102686931Y-80657947D02*
X102656455Y-80536042D01*
X102656455Y-80536042D02*
X102656455Y-80444613D01*
X102656455Y-80444613D02*
X102686931Y-80322709D01*
X102686931Y-80322709D02*
X102717408Y-80261756D01*
X102717408Y-80261756D02*
X102778360Y-80200804D01*
X102778360Y-80200804D02*
X102869789Y-80170328D01*
X102869789Y-80170328D02*
X102930741Y-80170328D01*
X102930741Y-80170328D02*
X103022170Y-80200804D01*
X103022170Y-80200804D02*
X103052646Y-80231280D01*
X103296455Y-80231280D02*
X103326931Y-80200804D01*
X103326931Y-80200804D02*
X103387884Y-80170328D01*
X103387884Y-80170328D02*
X103540265Y-80170328D01*
X103540265Y-80170328D02*
X103601217Y-80200804D01*
X103601217Y-80200804D02*
X103631693Y-80231280D01*
X103631693Y-80231280D02*
X103662170Y-80292232D01*
X103662170Y-80292232D02*
X103662170Y-80353185D01*
X103662170Y-80353185D02*
X103631693Y-80444613D01*
X103631693Y-80444613D02*
X103265979Y-80810328D01*
X103265979Y-80810328D02*
X103662170Y-80810328D01*
X104027884Y-80444613D02*
X103966932Y-80414137D01*
X103966932Y-80414137D02*
X103936455Y-80383661D01*
X103936455Y-80383661D02*
X103905979Y-80322709D01*
X103905979Y-80322709D02*
X103905979Y-80292232D01*
X103905979Y-80292232D02*
X103936455Y-80231280D01*
X103936455Y-80231280D02*
X103966932Y-80200804D01*
X103966932Y-80200804D02*
X104027884Y-80170328D01*
X104027884Y-80170328D02*
X104149789Y-80170328D01*
X104149789Y-80170328D02*
X104210741Y-80200804D01*
X104210741Y-80200804D02*
X104241217Y-80231280D01*
X104241217Y-80231280D02*
X104271694Y-80292232D01*
X104271694Y-80292232D02*
X104271694Y-80322709D01*
X104271694Y-80322709D02*
X104241217Y-80383661D01*
X104241217Y-80383661D02*
X104210741Y-80414137D01*
X104210741Y-80414137D02*
X104149789Y-80444613D01*
X104149789Y-80444613D02*
X104027884Y-80444613D01*
X104027884Y-80444613D02*
X103966932Y-80475090D01*
X103966932Y-80475090D02*
X103936455Y-80505566D01*
X103936455Y-80505566D02*
X103905979Y-80566518D01*
X103905979Y-80566518D02*
X103905979Y-80688423D01*
X103905979Y-80688423D02*
X103936455Y-80749375D01*
X103936455Y-80749375D02*
X103966932Y-80779852D01*
X103966932Y-80779852D02*
X104027884Y-80810328D01*
X104027884Y-80810328D02*
X104149789Y-80810328D01*
X104149789Y-80810328D02*
X104210741Y-80779852D01*
X104210741Y-80779852D02*
X104241217Y-80749375D01*
X104241217Y-80749375D02*
X104271694Y-80688423D01*
X104271694Y-80688423D02*
X104271694Y-80566518D01*
X104271694Y-80566518D02*
X104241217Y-80505566D01*
X104241217Y-80505566D02*
X104210741Y-80475090D01*
X104210741Y-80475090D02*
X104149789Y-80444613D01*
X126303723Y-87942381D02*
X126303723Y-88308095D01*
X125663723Y-88125238D02*
X126303723Y-88125238D01*
X125663723Y-88521428D02*
X126303723Y-88521428D01*
X126303723Y-88521428D02*
X126303723Y-88765238D01*
X126303723Y-88765238D02*
X126273247Y-88826190D01*
X126273247Y-88826190D02*
X126242771Y-88856667D01*
X126242771Y-88856667D02*
X126181819Y-88887143D01*
X126181819Y-88887143D02*
X126090390Y-88887143D01*
X126090390Y-88887143D02*
X126029438Y-88856667D01*
X126029438Y-88856667D02*
X125998961Y-88826190D01*
X125998961Y-88826190D02*
X125968485Y-88765238D01*
X125968485Y-88765238D02*
X125968485Y-88521428D01*
X126303723Y-89100476D02*
X126303723Y-89496667D01*
X126303723Y-89496667D02*
X126059914Y-89283333D01*
X126059914Y-89283333D02*
X126059914Y-89374762D01*
X126059914Y-89374762D02*
X126029438Y-89435714D01*
X126029438Y-89435714D02*
X125998961Y-89466190D01*
X125998961Y-89466190D02*
X125938009Y-89496667D01*
X125938009Y-89496667D02*
X125785628Y-89496667D01*
X125785628Y-89496667D02*
X125724676Y-89466190D01*
X125724676Y-89466190D02*
X125694200Y-89435714D01*
X125694200Y-89435714D02*
X125663723Y-89374762D01*
X125663723Y-89374762D02*
X125663723Y-89191905D01*
X125663723Y-89191905D02*
X125694200Y-89130952D01*
X125694200Y-89130952D02*
X125724676Y-89100476D01*
X96660742Y-63775300D02*
X96630266Y-63805777D01*
X96630266Y-63805777D02*
X96538837Y-63836253D01*
X96538837Y-63836253D02*
X96477885Y-63836253D01*
X96477885Y-63836253D02*
X96386456Y-63805777D01*
X96386456Y-63805777D02*
X96325504Y-63744824D01*
X96325504Y-63744824D02*
X96295027Y-63683872D01*
X96295027Y-63683872D02*
X96264551Y-63561967D01*
X96264551Y-63561967D02*
X96264551Y-63470538D01*
X96264551Y-63470538D02*
X96295027Y-63348634D01*
X96295027Y-63348634D02*
X96325504Y-63287681D01*
X96325504Y-63287681D02*
X96386456Y-63226729D01*
X96386456Y-63226729D02*
X96477885Y-63196253D01*
X96477885Y-63196253D02*
X96538837Y-63196253D01*
X96538837Y-63196253D02*
X96630266Y-63226729D01*
X96630266Y-63226729D02*
X96660742Y-63257205D01*
X96874075Y-63196253D02*
X97270266Y-63196253D01*
X97270266Y-63196253D02*
X97056932Y-63440062D01*
X97056932Y-63440062D02*
X97148361Y-63440062D01*
X97148361Y-63440062D02*
X97209313Y-63470538D01*
X97209313Y-63470538D02*
X97239789Y-63501015D01*
X97239789Y-63501015D02*
X97270266Y-63561967D01*
X97270266Y-63561967D02*
X97270266Y-63714348D01*
X97270266Y-63714348D02*
X97239789Y-63775300D01*
X97239789Y-63775300D02*
X97209313Y-63805777D01*
X97209313Y-63805777D02*
X97148361Y-63836253D01*
X97148361Y-63836253D02*
X96965504Y-63836253D01*
X96965504Y-63836253D02*
X96904551Y-63805777D01*
X96904551Y-63805777D02*
X96874075Y-63775300D01*
X97514075Y-63257205D02*
X97544551Y-63226729D01*
X97544551Y-63226729D02*
X97605504Y-63196253D01*
X97605504Y-63196253D02*
X97757885Y-63196253D01*
X97757885Y-63196253D02*
X97818837Y-63226729D01*
X97818837Y-63226729D02*
X97849313Y-63257205D01*
X97849313Y-63257205D02*
X97879790Y-63318157D01*
X97879790Y-63318157D02*
X97879790Y-63379110D01*
X97879790Y-63379110D02*
X97849313Y-63470538D01*
X97849313Y-63470538D02*
X97483599Y-63836253D01*
X97483599Y-63836253D02*
X97879790Y-63836253D01*
X97111523Y-70393333D02*
X97416285Y-70179999D01*
X97111523Y-70027618D02*
X97751523Y-70027618D01*
X97751523Y-70027618D02*
X97751523Y-70271428D01*
X97751523Y-70271428D02*
X97721047Y-70332380D01*
X97721047Y-70332380D02*
X97690571Y-70362857D01*
X97690571Y-70362857D02*
X97629619Y-70393333D01*
X97629619Y-70393333D02*
X97538190Y-70393333D01*
X97538190Y-70393333D02*
X97477238Y-70362857D01*
X97477238Y-70362857D02*
X97446761Y-70332380D01*
X97446761Y-70332380D02*
X97416285Y-70271428D01*
X97416285Y-70271428D02*
X97416285Y-70027618D01*
X97477238Y-70759047D02*
X97507714Y-70698095D01*
X97507714Y-70698095D02*
X97538190Y-70667618D01*
X97538190Y-70667618D02*
X97599142Y-70637142D01*
X97599142Y-70637142D02*
X97629619Y-70637142D01*
X97629619Y-70637142D02*
X97690571Y-70667618D01*
X97690571Y-70667618D02*
X97721047Y-70698095D01*
X97721047Y-70698095D02*
X97751523Y-70759047D01*
X97751523Y-70759047D02*
X97751523Y-70880952D01*
X97751523Y-70880952D02*
X97721047Y-70941904D01*
X97721047Y-70941904D02*
X97690571Y-70972380D01*
X97690571Y-70972380D02*
X97629619Y-71002857D01*
X97629619Y-71002857D02*
X97599142Y-71002857D01*
X97599142Y-71002857D02*
X97538190Y-70972380D01*
X97538190Y-70972380D02*
X97507714Y-70941904D01*
X97507714Y-70941904D02*
X97477238Y-70880952D01*
X97477238Y-70880952D02*
X97477238Y-70759047D01*
X97477238Y-70759047D02*
X97446761Y-70698095D01*
X97446761Y-70698095D02*
X97416285Y-70667618D01*
X97416285Y-70667618D02*
X97355333Y-70637142D01*
X97355333Y-70637142D02*
X97233428Y-70637142D01*
X97233428Y-70637142D02*
X97172476Y-70667618D01*
X97172476Y-70667618D02*
X97142000Y-70698095D01*
X97142000Y-70698095D02*
X97111523Y-70759047D01*
X97111523Y-70759047D02*
X97111523Y-70880952D01*
X97111523Y-70880952D02*
X97142000Y-70941904D01*
X97142000Y-70941904D02*
X97172476Y-70972380D01*
X97172476Y-70972380D02*
X97233428Y-71002857D01*
X97233428Y-71002857D02*
X97355333Y-71002857D01*
X97355333Y-71002857D02*
X97416285Y-70972380D01*
X97416285Y-70972380D02*
X97446761Y-70941904D01*
X97446761Y-70941904D02*
X97477238Y-70880952D01*
X106536667Y-66398276D02*
X106536667Y-66855419D01*
X106536667Y-66855419D02*
X106506190Y-66946847D01*
X106506190Y-66946847D02*
X106445238Y-67007800D01*
X106445238Y-67007800D02*
X106353809Y-67038276D01*
X106353809Y-67038276D02*
X106292857Y-67038276D01*
X107176667Y-67038276D02*
X106810952Y-67038276D01*
X106993809Y-67038276D02*
X106993809Y-66398276D01*
X106993809Y-66398276D02*
X106932857Y-66489704D01*
X106932857Y-66489704D02*
X106871905Y-66550657D01*
X106871905Y-66550657D02*
X106810952Y-66581133D01*
X101494724Y-88364329D02*
X101494724Y-88882424D01*
X101494724Y-88882424D02*
X101525201Y-88943376D01*
X101525201Y-88943376D02*
X101555677Y-88973853D01*
X101555677Y-88973853D02*
X101616629Y-89004329D01*
X101616629Y-89004329D02*
X101738534Y-89004329D01*
X101738534Y-89004329D02*
X101799486Y-88973853D01*
X101799486Y-88973853D02*
X101829963Y-88943376D01*
X101829963Y-88943376D02*
X101860439Y-88882424D01*
X101860439Y-88882424D02*
X101860439Y-88364329D01*
X102104248Y-88364329D02*
X102530915Y-88364329D01*
X102530915Y-88364329D02*
X102256629Y-89004329D01*
X92809513Y-63819448D02*
X92779037Y-63788972D01*
X92779037Y-63788972D02*
X92748560Y-63697543D01*
X92748560Y-63697543D02*
X92748560Y-63636591D01*
X92748560Y-63636591D02*
X92779037Y-63545162D01*
X92779037Y-63545162D02*
X92839989Y-63484210D01*
X92839989Y-63484210D02*
X92900941Y-63453733D01*
X92900941Y-63453733D02*
X93022846Y-63423257D01*
X93022846Y-63423257D02*
X93114275Y-63423257D01*
X93114275Y-63423257D02*
X93236179Y-63453733D01*
X93236179Y-63453733D02*
X93297132Y-63484210D01*
X93297132Y-63484210D02*
X93358084Y-63545162D01*
X93358084Y-63545162D02*
X93388560Y-63636591D01*
X93388560Y-63636591D02*
X93388560Y-63697543D01*
X93388560Y-63697543D02*
X93358084Y-63788972D01*
X93358084Y-63788972D02*
X93327608Y-63819448D01*
X93388560Y-64032781D02*
X93388560Y-64428972D01*
X93388560Y-64428972D02*
X93144751Y-64215638D01*
X93144751Y-64215638D02*
X93144751Y-64307067D01*
X93144751Y-64307067D02*
X93114275Y-64368019D01*
X93114275Y-64368019D02*
X93083798Y-64398495D01*
X93083798Y-64398495D02*
X93022846Y-64428972D01*
X93022846Y-64428972D02*
X92870465Y-64428972D01*
X92870465Y-64428972D02*
X92809513Y-64398495D01*
X92809513Y-64398495D02*
X92779037Y-64368019D01*
X92779037Y-64368019D02*
X92748560Y-64307067D01*
X92748560Y-64307067D02*
X92748560Y-64124210D01*
X92748560Y-64124210D02*
X92779037Y-64063257D01*
X92779037Y-64063257D02*
X92809513Y-64032781D01*
X93388560Y-64642305D02*
X93388560Y-65038496D01*
X93388560Y-65038496D02*
X93144751Y-64825162D01*
X93144751Y-64825162D02*
X93144751Y-64916591D01*
X93144751Y-64916591D02*
X93114275Y-64977543D01*
X93114275Y-64977543D02*
X93083798Y-65008019D01*
X93083798Y-65008019D02*
X93022846Y-65038496D01*
X93022846Y-65038496D02*
X92870465Y-65038496D01*
X92870465Y-65038496D02*
X92809513Y-65008019D01*
X92809513Y-65008019D02*
X92779037Y-64977543D01*
X92779037Y-64977543D02*
X92748560Y-64916591D01*
X92748560Y-64916591D02*
X92748560Y-64733734D01*
X92748560Y-64733734D02*
X92779037Y-64672781D01*
X92779037Y-64672781D02*
X92809513Y-64642305D01*
X98272676Y-71838571D02*
X98242200Y-71808095D01*
X98242200Y-71808095D02*
X98211723Y-71716666D01*
X98211723Y-71716666D02*
X98211723Y-71655714D01*
X98211723Y-71655714D02*
X98242200Y-71564285D01*
X98242200Y-71564285D02*
X98303152Y-71503333D01*
X98303152Y-71503333D02*
X98364104Y-71472856D01*
X98364104Y-71472856D02*
X98486009Y-71442380D01*
X98486009Y-71442380D02*
X98577438Y-71442380D01*
X98577438Y-71442380D02*
X98699342Y-71472856D01*
X98699342Y-71472856D02*
X98760295Y-71503333D01*
X98760295Y-71503333D02*
X98821247Y-71564285D01*
X98821247Y-71564285D02*
X98851723Y-71655714D01*
X98851723Y-71655714D02*
X98851723Y-71716666D01*
X98851723Y-71716666D02*
X98821247Y-71808095D01*
X98821247Y-71808095D02*
X98790771Y-71838571D01*
X98211723Y-72448095D02*
X98211723Y-72082380D01*
X98211723Y-72265237D02*
X98851723Y-72265237D01*
X98851723Y-72265237D02*
X98760295Y-72204285D01*
X98760295Y-72204285D02*
X98699342Y-72143333D01*
X98699342Y-72143333D02*
X98668866Y-72082380D01*
X98638390Y-72996666D02*
X98211723Y-72996666D01*
X98882200Y-72844285D02*
X98425057Y-72691904D01*
X98425057Y-72691904D02*
X98425057Y-73088095D01*
X134903979Y-78304925D02*
X134873503Y-78335402D01*
X134873503Y-78335402D02*
X134782074Y-78365878D01*
X134782074Y-78365878D02*
X134721122Y-78365878D01*
X134721122Y-78365878D02*
X134629693Y-78335402D01*
X134629693Y-78335402D02*
X134568741Y-78274449D01*
X134568741Y-78274449D02*
X134538264Y-78213497D01*
X134538264Y-78213497D02*
X134507788Y-78091592D01*
X134507788Y-78091592D02*
X134507788Y-78000163D01*
X134507788Y-78000163D02*
X134538264Y-77878259D01*
X134538264Y-77878259D02*
X134568741Y-77817306D01*
X134568741Y-77817306D02*
X134629693Y-77756354D01*
X134629693Y-77756354D02*
X134721122Y-77725878D01*
X134721122Y-77725878D02*
X134782074Y-77725878D01*
X134782074Y-77725878D02*
X134873503Y-77756354D01*
X134873503Y-77756354D02*
X134903979Y-77786830D01*
X135513503Y-78365878D02*
X135147788Y-78365878D01*
X135330645Y-78365878D02*
X135330645Y-77725878D01*
X135330645Y-77725878D02*
X135269693Y-77817306D01*
X135269693Y-77817306D02*
X135208741Y-77878259D01*
X135208741Y-77878259D02*
X135147788Y-77908735D01*
X133536667Y-84898276D02*
X133536667Y-85355419D01*
X133536667Y-85355419D02*
X133506190Y-85446847D01*
X133506190Y-85446847D02*
X133445238Y-85507800D01*
X133445238Y-85507800D02*
X133353809Y-85538276D01*
X133353809Y-85538276D02*
X133292857Y-85538276D01*
X133780476Y-84898276D02*
X134207143Y-84898276D01*
X134207143Y-84898276D02*
X133932857Y-85538276D01*
X116521087Y-83293440D02*
X116490611Y-83323917D01*
X116490611Y-83323917D02*
X116399182Y-83354393D01*
X116399182Y-83354393D02*
X116338230Y-83354393D01*
X116338230Y-83354393D02*
X116246801Y-83323917D01*
X116246801Y-83323917D02*
X116185849Y-83262964D01*
X116185849Y-83262964D02*
X116155372Y-83202012D01*
X116155372Y-83202012D02*
X116124896Y-83080107D01*
X116124896Y-83080107D02*
X116124896Y-82988678D01*
X116124896Y-82988678D02*
X116155372Y-82866774D01*
X116155372Y-82866774D02*
X116185849Y-82805821D01*
X116185849Y-82805821D02*
X116246801Y-82744869D01*
X116246801Y-82744869D02*
X116338230Y-82714393D01*
X116338230Y-82714393D02*
X116399182Y-82714393D01*
X116399182Y-82714393D02*
X116490611Y-82744869D01*
X116490611Y-82744869D02*
X116521087Y-82775345D01*
X116764896Y-82775345D02*
X116795372Y-82744869D01*
X116795372Y-82744869D02*
X116856325Y-82714393D01*
X116856325Y-82714393D02*
X117008706Y-82714393D01*
X117008706Y-82714393D02*
X117069658Y-82744869D01*
X117069658Y-82744869D02*
X117100134Y-82775345D01*
X117100134Y-82775345D02*
X117130611Y-82836297D01*
X117130611Y-82836297D02*
X117130611Y-82897250D01*
X117130611Y-82897250D02*
X117100134Y-82988678D01*
X117100134Y-82988678D02*
X116734420Y-83354393D01*
X116734420Y-83354393D02*
X117130611Y-83354393D01*
X117679182Y-82927726D02*
X117679182Y-83354393D01*
X117526801Y-82683917D02*
X117374420Y-83141059D01*
X117374420Y-83141059D02*
X117770611Y-83141059D01*
X118112556Y-74687851D02*
X118082080Y-74718328D01*
X118082080Y-74718328D02*
X117990651Y-74748804D01*
X117990651Y-74748804D02*
X117929699Y-74748804D01*
X117929699Y-74748804D02*
X117838270Y-74718328D01*
X117838270Y-74718328D02*
X117777318Y-74657375D01*
X117777318Y-74657375D02*
X117746841Y-74596423D01*
X117746841Y-74596423D02*
X117716365Y-74474518D01*
X117716365Y-74474518D02*
X117716365Y-74383089D01*
X117716365Y-74383089D02*
X117746841Y-74261185D01*
X117746841Y-74261185D02*
X117777318Y-74200232D01*
X117777318Y-74200232D02*
X117838270Y-74139280D01*
X117838270Y-74139280D02*
X117929699Y-74108804D01*
X117929699Y-74108804D02*
X117990651Y-74108804D01*
X117990651Y-74108804D02*
X118082080Y-74139280D01*
X118082080Y-74139280D02*
X118112556Y-74169756D01*
X118661127Y-74108804D02*
X118539222Y-74108804D01*
X118539222Y-74108804D02*
X118478270Y-74139280D01*
X118478270Y-74139280D02*
X118447794Y-74169756D01*
X118447794Y-74169756D02*
X118386841Y-74261185D01*
X118386841Y-74261185D02*
X118356365Y-74383089D01*
X118356365Y-74383089D02*
X118356365Y-74626899D01*
X118356365Y-74626899D02*
X118386841Y-74687851D01*
X118386841Y-74687851D02*
X118417318Y-74718328D01*
X118417318Y-74718328D02*
X118478270Y-74748804D01*
X118478270Y-74748804D02*
X118600175Y-74748804D01*
X118600175Y-74748804D02*
X118661127Y-74718328D01*
X118661127Y-74718328D02*
X118691603Y-74687851D01*
X118691603Y-74687851D02*
X118722080Y-74626899D01*
X118722080Y-74626899D02*
X118722080Y-74474518D01*
X118722080Y-74474518D02*
X118691603Y-74413566D01*
X118691603Y-74413566D02*
X118661127Y-74383089D01*
X118661127Y-74383089D02*
X118600175Y-74352613D01*
X118600175Y-74352613D02*
X118478270Y-74352613D01*
X118478270Y-74352613D02*
X118417318Y-74383089D01*
X118417318Y-74383089D02*
X118386841Y-74413566D01*
X118386841Y-74413566D02*
X118356365Y-74474518D01*
X100172476Y-65413571D02*
X100142000Y-65383095D01*
X100142000Y-65383095D02*
X100111523Y-65291666D01*
X100111523Y-65291666D02*
X100111523Y-65230714D01*
X100111523Y-65230714D02*
X100142000Y-65139285D01*
X100142000Y-65139285D02*
X100202952Y-65078333D01*
X100202952Y-65078333D02*
X100263904Y-65047856D01*
X100263904Y-65047856D02*
X100385809Y-65017380D01*
X100385809Y-65017380D02*
X100477238Y-65017380D01*
X100477238Y-65017380D02*
X100599142Y-65047856D01*
X100599142Y-65047856D02*
X100660095Y-65078333D01*
X100660095Y-65078333D02*
X100721047Y-65139285D01*
X100721047Y-65139285D02*
X100751523Y-65230714D01*
X100751523Y-65230714D02*
X100751523Y-65291666D01*
X100751523Y-65291666D02*
X100721047Y-65383095D01*
X100721047Y-65383095D02*
X100690571Y-65413571D01*
X100751523Y-65626904D02*
X100751523Y-66023095D01*
X100751523Y-66023095D02*
X100507714Y-65809761D01*
X100507714Y-65809761D02*
X100507714Y-65901190D01*
X100507714Y-65901190D02*
X100477238Y-65962142D01*
X100477238Y-65962142D02*
X100446761Y-65992618D01*
X100446761Y-65992618D02*
X100385809Y-66023095D01*
X100385809Y-66023095D02*
X100233428Y-66023095D01*
X100233428Y-66023095D02*
X100172476Y-65992618D01*
X100172476Y-65992618D02*
X100142000Y-65962142D01*
X100142000Y-65962142D02*
X100111523Y-65901190D01*
X100111523Y-65901190D02*
X100111523Y-65718333D01*
X100111523Y-65718333D02*
X100142000Y-65657380D01*
X100142000Y-65657380D02*
X100172476Y-65626904D01*
X100111523Y-66632619D02*
X100111523Y-66266904D01*
X100111523Y-66449761D02*
X100751523Y-66449761D01*
X100751523Y-66449761D02*
X100660095Y-66388809D01*
X100660095Y-66388809D02*
X100599142Y-66327857D01*
X100599142Y-66327857D02*
X100568666Y-66266904D01*
X105434964Y-74597545D02*
X105404488Y-74567069D01*
X105404488Y-74567069D02*
X105374011Y-74475640D01*
X105374011Y-74475640D02*
X105374011Y-74414688D01*
X105374011Y-74414688D02*
X105404488Y-74323259D01*
X105404488Y-74323259D02*
X105465440Y-74262307D01*
X105465440Y-74262307D02*
X105526392Y-74231830D01*
X105526392Y-74231830D02*
X105648297Y-74201354D01*
X105648297Y-74201354D02*
X105739726Y-74201354D01*
X105739726Y-74201354D02*
X105861630Y-74231830D01*
X105861630Y-74231830D02*
X105922583Y-74262307D01*
X105922583Y-74262307D02*
X105983535Y-74323259D01*
X105983535Y-74323259D02*
X106014011Y-74414688D01*
X106014011Y-74414688D02*
X106014011Y-74475640D01*
X106014011Y-74475640D02*
X105983535Y-74567069D01*
X105983535Y-74567069D02*
X105953059Y-74597545D01*
X105374011Y-75207069D02*
X105374011Y-74841354D01*
X105374011Y-75024211D02*
X106014011Y-75024211D01*
X106014011Y-75024211D02*
X105922583Y-74963259D01*
X105922583Y-74963259D02*
X105861630Y-74902307D01*
X105861630Y-74902307D02*
X105831154Y-74841354D01*
X106014011Y-75786116D02*
X106014011Y-75481354D01*
X106014011Y-75481354D02*
X105709249Y-75450878D01*
X105709249Y-75450878D02*
X105739726Y-75481354D01*
X105739726Y-75481354D02*
X105770202Y-75542307D01*
X105770202Y-75542307D02*
X105770202Y-75694688D01*
X105770202Y-75694688D02*
X105739726Y-75755640D01*
X105739726Y-75755640D02*
X105709249Y-75786116D01*
X105709249Y-75786116D02*
X105648297Y-75816593D01*
X105648297Y-75816593D02*
X105495916Y-75816593D01*
X105495916Y-75816593D02*
X105434964Y-75786116D01*
X105434964Y-75786116D02*
X105404488Y-75755640D01*
X105404488Y-75755640D02*
X105374011Y-75694688D01*
X105374011Y-75694688D02*
X105374011Y-75542307D01*
X105374011Y-75542307D02*
X105404488Y-75481354D01*
X105404488Y-75481354D02*
X105434964Y-75450878D01*
X100336249Y-86751425D02*
X100641011Y-86538091D01*
X100336249Y-86385710D02*
X100976249Y-86385710D01*
X100976249Y-86385710D02*
X100976249Y-86629520D01*
X100976249Y-86629520D02*
X100945773Y-86690472D01*
X100945773Y-86690472D02*
X100915297Y-86720949D01*
X100915297Y-86720949D02*
X100854345Y-86751425D01*
X100854345Y-86751425D02*
X100762916Y-86751425D01*
X100762916Y-86751425D02*
X100701964Y-86720949D01*
X100701964Y-86720949D02*
X100671487Y-86690472D01*
X100671487Y-86690472D02*
X100641011Y-86629520D01*
X100641011Y-86629520D02*
X100641011Y-86385710D01*
X100915297Y-86995234D02*
X100945773Y-87025710D01*
X100945773Y-87025710D02*
X100976249Y-87086663D01*
X100976249Y-87086663D02*
X100976249Y-87239044D01*
X100976249Y-87239044D02*
X100945773Y-87299996D01*
X100945773Y-87299996D02*
X100915297Y-87330472D01*
X100915297Y-87330472D02*
X100854345Y-87360949D01*
X100854345Y-87360949D02*
X100793392Y-87360949D01*
X100793392Y-87360949D02*
X100701964Y-87330472D01*
X100701964Y-87330472D02*
X100336249Y-86964758D01*
X100336249Y-86964758D02*
X100336249Y-87360949D01*
X100336249Y-87970473D02*
X100336249Y-87604758D01*
X100336249Y-87787615D02*
X100976249Y-87787615D01*
X100976249Y-87787615D02*
X100884821Y-87726663D01*
X100884821Y-87726663D02*
X100823868Y-87665711D01*
X100823868Y-87665711D02*
X100793392Y-87604758D01*
X131876723Y-68224167D02*
X131419580Y-68224167D01*
X131419580Y-68224167D02*
X131328152Y-68193690D01*
X131328152Y-68193690D02*
X131267200Y-68132738D01*
X131267200Y-68132738D02*
X131236723Y-68041309D01*
X131236723Y-68041309D02*
X131236723Y-67980357D01*
X131876723Y-68833690D02*
X131876723Y-68528928D01*
X131876723Y-68528928D02*
X131571961Y-68498452D01*
X131571961Y-68498452D02*
X131602438Y-68528928D01*
X131602438Y-68528928D02*
X131632914Y-68589881D01*
X131632914Y-68589881D02*
X131632914Y-68742262D01*
X131632914Y-68742262D02*
X131602438Y-68803214D01*
X131602438Y-68803214D02*
X131571961Y-68833690D01*
X131571961Y-68833690D02*
X131511009Y-68864167D01*
X131511009Y-68864167D02*
X131358628Y-68864167D01*
X131358628Y-68864167D02*
X131297676Y-68833690D01*
X131297676Y-68833690D02*
X131267200Y-68803214D01*
X131267200Y-68803214D02*
X131236723Y-68742262D01*
X131236723Y-68742262D02*
X131236723Y-68589881D01*
X131236723Y-68589881D02*
X131267200Y-68528928D01*
X131267200Y-68528928D02*
X131297676Y-68498452D01*
X125183900Y-67298756D02*
X125183900Y-67816851D01*
X125183900Y-67816851D02*
X125214377Y-67877803D01*
X125214377Y-67877803D02*
X125244853Y-67908280D01*
X125244853Y-67908280D02*
X125305805Y-67938756D01*
X125305805Y-67938756D02*
X125427710Y-67938756D01*
X125427710Y-67938756D02*
X125488662Y-67908280D01*
X125488662Y-67908280D02*
X125519139Y-67877803D01*
X125519139Y-67877803D02*
X125549615Y-67816851D01*
X125549615Y-67816851D02*
X125549615Y-67298756D01*
X126128662Y-67512089D02*
X126128662Y-67938756D01*
X125976281Y-67268280D02*
X125823900Y-67725422D01*
X125823900Y-67725422D02*
X126220091Y-67725422D01*
X103884077Y-81897781D02*
X103853601Y-81928258D01*
X103853601Y-81928258D02*
X103762172Y-81958734D01*
X103762172Y-81958734D02*
X103701220Y-81958734D01*
X103701220Y-81958734D02*
X103609791Y-81928258D01*
X103609791Y-81928258D02*
X103548839Y-81867305D01*
X103548839Y-81867305D02*
X103518362Y-81806353D01*
X103518362Y-81806353D02*
X103487886Y-81684448D01*
X103487886Y-81684448D02*
X103487886Y-81593019D01*
X103487886Y-81593019D02*
X103518362Y-81471115D01*
X103518362Y-81471115D02*
X103548839Y-81410162D01*
X103548839Y-81410162D02*
X103609791Y-81349210D01*
X103609791Y-81349210D02*
X103701220Y-81318734D01*
X103701220Y-81318734D02*
X103762172Y-81318734D01*
X103762172Y-81318734D02*
X103853601Y-81349210D01*
X103853601Y-81349210D02*
X103884077Y-81379686D01*
X104493601Y-81958734D02*
X104127886Y-81958734D01*
X104310743Y-81958734D02*
X104310743Y-81318734D01*
X104310743Y-81318734D02*
X104249791Y-81410162D01*
X104249791Y-81410162D02*
X104188839Y-81471115D01*
X104188839Y-81471115D02*
X104127886Y-81501591D01*
X104706934Y-81318734D02*
X105133601Y-81318734D01*
X105133601Y-81318734D02*
X104859315Y-81958734D01*
X93146681Y-78082115D02*
X93116205Y-78051639D01*
X93116205Y-78051639D02*
X93085728Y-77960210D01*
X93085728Y-77960210D02*
X93085728Y-77899258D01*
X93085728Y-77899258D02*
X93116205Y-77807829D01*
X93116205Y-77807829D02*
X93177157Y-77746877D01*
X93177157Y-77746877D02*
X93238109Y-77716400D01*
X93238109Y-77716400D02*
X93360014Y-77685924D01*
X93360014Y-77685924D02*
X93451443Y-77685924D01*
X93451443Y-77685924D02*
X93573347Y-77716400D01*
X93573347Y-77716400D02*
X93634300Y-77746877D01*
X93634300Y-77746877D02*
X93695252Y-77807829D01*
X93695252Y-77807829D02*
X93725728Y-77899258D01*
X93725728Y-77899258D02*
X93725728Y-77960210D01*
X93725728Y-77960210D02*
X93695252Y-78051639D01*
X93695252Y-78051639D02*
X93664776Y-78082115D01*
X93664776Y-78325924D02*
X93695252Y-78356400D01*
X93695252Y-78356400D02*
X93725728Y-78417353D01*
X93725728Y-78417353D02*
X93725728Y-78569734D01*
X93725728Y-78569734D02*
X93695252Y-78630686D01*
X93695252Y-78630686D02*
X93664776Y-78661162D01*
X93664776Y-78661162D02*
X93603824Y-78691639D01*
X93603824Y-78691639D02*
X93542871Y-78691639D01*
X93542871Y-78691639D02*
X93451443Y-78661162D01*
X93451443Y-78661162D02*
X93085728Y-78295448D01*
X93085728Y-78295448D02*
X93085728Y-78691639D01*
X93085728Y-78996401D02*
X93085728Y-79118305D01*
X93085728Y-79118305D02*
X93116205Y-79179258D01*
X93116205Y-79179258D02*
X93146681Y-79209734D01*
X93146681Y-79209734D02*
X93238109Y-79270686D01*
X93238109Y-79270686D02*
X93360014Y-79301163D01*
X93360014Y-79301163D02*
X93603824Y-79301163D01*
X93603824Y-79301163D02*
X93664776Y-79270686D01*
X93664776Y-79270686D02*
X93695252Y-79240210D01*
X93695252Y-79240210D02*
X93725728Y-79179258D01*
X93725728Y-79179258D02*
X93725728Y-79057353D01*
X93725728Y-79057353D02*
X93695252Y-78996401D01*
X93695252Y-78996401D02*
X93664776Y-78965924D01*
X93664776Y-78965924D02*
X93603824Y-78935448D01*
X93603824Y-78935448D02*
X93451443Y-78935448D01*
X93451443Y-78935448D02*
X93390490Y-78965924D01*
X93390490Y-78965924D02*
X93360014Y-78996401D01*
X93360014Y-78996401D02*
X93329538Y-79057353D01*
X93329538Y-79057353D02*
X93329538Y-79179258D01*
X93329538Y-79179258D02*
X93360014Y-79240210D01*
X93360014Y-79240210D02*
X93390490Y-79270686D01*
X93390490Y-79270686D02*
X93451443Y-79301163D01*
X125588571Y-83538276D02*
X125375237Y-83233514D01*
X125222856Y-83538276D02*
X125222856Y-82898276D01*
X125222856Y-82898276D02*
X125466666Y-82898276D01*
X125466666Y-82898276D02*
X125527618Y-82928752D01*
X125527618Y-82928752D02*
X125558095Y-82959228D01*
X125558095Y-82959228D02*
X125588571Y-83020180D01*
X125588571Y-83020180D02*
X125588571Y-83111609D01*
X125588571Y-83111609D02*
X125558095Y-83172561D01*
X125558095Y-83172561D02*
X125527618Y-83203038D01*
X125527618Y-83203038D02*
X125466666Y-83233514D01*
X125466666Y-83233514D02*
X125222856Y-83233514D01*
X125832380Y-82959228D02*
X125862856Y-82928752D01*
X125862856Y-82928752D02*
X125923809Y-82898276D01*
X125923809Y-82898276D02*
X126076190Y-82898276D01*
X126076190Y-82898276D02*
X126137142Y-82928752D01*
X126137142Y-82928752D02*
X126167618Y-82959228D01*
X126167618Y-82959228D02*
X126198095Y-83020180D01*
X126198095Y-83020180D02*
X126198095Y-83081133D01*
X126198095Y-83081133D02*
X126167618Y-83172561D01*
X126167618Y-83172561D02*
X125801904Y-83538276D01*
X125801904Y-83538276D02*
X126198095Y-83538276D01*
X126777142Y-82898276D02*
X126472380Y-82898276D01*
X126472380Y-82898276D02*
X126441904Y-83203038D01*
X126441904Y-83203038D02*
X126472380Y-83172561D01*
X126472380Y-83172561D02*
X126533333Y-83142085D01*
X126533333Y-83142085D02*
X126685714Y-83142085D01*
X126685714Y-83142085D02*
X126746666Y-83172561D01*
X126746666Y-83172561D02*
X126777142Y-83203038D01*
X126777142Y-83203038D02*
X126807619Y-83263990D01*
X126807619Y-83263990D02*
X126807619Y-83416371D01*
X126807619Y-83416371D02*
X126777142Y-83477323D01*
X126777142Y-83477323D02*
X126746666Y-83507800D01*
X126746666Y-83507800D02*
X126685714Y-83538276D01*
X126685714Y-83538276D02*
X126533333Y-83538276D01*
X126533333Y-83538276D02*
X126472380Y-83507800D01*
X126472380Y-83507800D02*
X126441904Y-83477323D01*
X126837269Y-74403450D02*
X126806793Y-74433927D01*
X126806793Y-74433927D02*
X126715364Y-74464403D01*
X126715364Y-74464403D02*
X126654412Y-74464403D01*
X126654412Y-74464403D02*
X126562983Y-74433927D01*
X126562983Y-74433927D02*
X126502031Y-74372974D01*
X126502031Y-74372974D02*
X126471554Y-74312022D01*
X126471554Y-74312022D02*
X126441078Y-74190117D01*
X126441078Y-74190117D02*
X126441078Y-74098688D01*
X126441078Y-74098688D02*
X126471554Y-73976784D01*
X126471554Y-73976784D02*
X126502031Y-73915831D01*
X126502031Y-73915831D02*
X126562983Y-73854879D01*
X126562983Y-73854879D02*
X126654412Y-73824403D01*
X126654412Y-73824403D02*
X126715364Y-73824403D01*
X126715364Y-73824403D02*
X126806793Y-73854879D01*
X126806793Y-73854879D02*
X126837269Y-73885355D01*
X127446793Y-74464403D02*
X127081078Y-74464403D01*
X127263935Y-74464403D02*
X127263935Y-73824403D01*
X127263935Y-73824403D02*
X127202983Y-73915831D01*
X127202983Y-73915831D02*
X127142031Y-73976784D01*
X127142031Y-73976784D02*
X127081078Y-74007260D01*
X127842983Y-73824403D02*
X127903936Y-73824403D01*
X127903936Y-73824403D02*
X127964888Y-73854879D01*
X127964888Y-73854879D02*
X127995364Y-73885355D01*
X127995364Y-73885355D02*
X128025840Y-73946307D01*
X128025840Y-73946307D02*
X128056317Y-74068212D01*
X128056317Y-74068212D02*
X128056317Y-74220593D01*
X128056317Y-74220593D02*
X128025840Y-74342498D01*
X128025840Y-74342498D02*
X127995364Y-74403450D01*
X127995364Y-74403450D02*
X127964888Y-74433927D01*
X127964888Y-74433927D02*
X127903936Y-74464403D01*
X127903936Y-74464403D02*
X127842983Y-74464403D01*
X127842983Y-74464403D02*
X127782031Y-74433927D01*
X127782031Y-74433927D02*
X127751555Y-74403450D01*
X127751555Y-74403450D02*
X127721078Y-74342498D01*
X127721078Y-74342498D02*
X127690602Y-74220593D01*
X127690602Y-74220593D02*
X127690602Y-74068212D01*
X127690602Y-74068212D02*
X127721078Y-73946307D01*
X127721078Y-73946307D02*
X127751555Y-73885355D01*
X127751555Y-73885355D02*
X127782031Y-73854879D01*
X127782031Y-73854879D02*
X127842983Y-73824403D01*
X131211723Y-77393333D02*
X131516485Y-77179999D01*
X131211723Y-77027618D02*
X131851723Y-77027618D01*
X131851723Y-77027618D02*
X131851723Y-77271428D01*
X131851723Y-77271428D02*
X131821247Y-77332380D01*
X131821247Y-77332380D02*
X131790771Y-77362857D01*
X131790771Y-77362857D02*
X131729819Y-77393333D01*
X131729819Y-77393333D02*
X131638390Y-77393333D01*
X131638390Y-77393333D02*
X131577438Y-77362857D01*
X131577438Y-77362857D02*
X131546961Y-77332380D01*
X131546961Y-77332380D02*
X131516485Y-77271428D01*
X131516485Y-77271428D02*
X131516485Y-77027618D01*
X131851723Y-77972380D02*
X131851723Y-77667618D01*
X131851723Y-77667618D02*
X131546961Y-77637142D01*
X131546961Y-77637142D02*
X131577438Y-77667618D01*
X131577438Y-77667618D02*
X131607914Y-77728571D01*
X131607914Y-77728571D02*
X131607914Y-77880952D01*
X131607914Y-77880952D02*
X131577438Y-77941904D01*
X131577438Y-77941904D02*
X131546961Y-77972380D01*
X131546961Y-77972380D02*
X131486009Y-78002857D01*
X131486009Y-78002857D02*
X131333628Y-78002857D01*
X131333628Y-78002857D02*
X131272676Y-77972380D01*
X131272676Y-77972380D02*
X131242200Y-77941904D01*
X131242200Y-77941904D02*
X131211723Y-77880952D01*
X131211723Y-77880952D02*
X131211723Y-77728571D01*
X131211723Y-77728571D02*
X131242200Y-77667618D01*
X131242200Y-77667618D02*
X131272676Y-77637142D01*
X99698744Y-81933462D02*
X99485410Y-81628700D01*
X99333029Y-81933462D02*
X99333029Y-81293462D01*
X99333029Y-81293462D02*
X99576839Y-81293462D01*
X99576839Y-81293462D02*
X99637791Y-81323938D01*
X99637791Y-81323938D02*
X99668268Y-81354414D01*
X99668268Y-81354414D02*
X99698744Y-81415366D01*
X99698744Y-81415366D02*
X99698744Y-81506795D01*
X99698744Y-81506795D02*
X99668268Y-81567747D01*
X99668268Y-81567747D02*
X99637791Y-81598224D01*
X99637791Y-81598224D02*
X99576839Y-81628700D01*
X99576839Y-81628700D02*
X99333029Y-81628700D01*
X99942553Y-81354414D02*
X99973029Y-81323938D01*
X99973029Y-81323938D02*
X100033982Y-81293462D01*
X100033982Y-81293462D02*
X100186363Y-81293462D01*
X100186363Y-81293462D02*
X100247315Y-81323938D01*
X100247315Y-81323938D02*
X100277791Y-81354414D01*
X100277791Y-81354414D02*
X100308268Y-81415366D01*
X100308268Y-81415366D02*
X100308268Y-81476319D01*
X100308268Y-81476319D02*
X100277791Y-81567747D01*
X100277791Y-81567747D02*
X99912077Y-81933462D01*
X99912077Y-81933462D02*
X100308268Y-81933462D01*
X100704458Y-81293462D02*
X100765411Y-81293462D01*
X100765411Y-81293462D02*
X100826363Y-81323938D01*
X100826363Y-81323938D02*
X100856839Y-81354414D01*
X100856839Y-81354414D02*
X100887315Y-81415366D01*
X100887315Y-81415366D02*
X100917792Y-81537271D01*
X100917792Y-81537271D02*
X100917792Y-81689652D01*
X100917792Y-81689652D02*
X100887315Y-81811557D01*
X100887315Y-81811557D02*
X100856839Y-81872509D01*
X100856839Y-81872509D02*
X100826363Y-81902986D01*
X100826363Y-81902986D02*
X100765411Y-81933462D01*
X100765411Y-81933462D02*
X100704458Y-81933462D01*
X100704458Y-81933462D02*
X100643506Y-81902986D01*
X100643506Y-81902986D02*
X100613030Y-81872509D01*
X100613030Y-81872509D02*
X100582553Y-81811557D01*
X100582553Y-81811557D02*
X100552077Y-81689652D01*
X100552077Y-81689652D02*
X100552077Y-81537271D01*
X100552077Y-81537271D02*
X100582553Y-81415366D01*
X100582553Y-81415366D02*
X100613030Y-81354414D01*
X100613030Y-81354414D02*
X100643506Y-81323938D01*
X100643506Y-81323938D02*
X100704458Y-81293462D01*
X98211723Y-69663550D02*
X98516485Y-69450216D01*
X98211723Y-69297835D02*
X98851723Y-69297835D01*
X98851723Y-69297835D02*
X98851723Y-69541645D01*
X98851723Y-69541645D02*
X98821247Y-69602597D01*
X98821247Y-69602597D02*
X98790771Y-69633074D01*
X98790771Y-69633074D02*
X98729819Y-69663550D01*
X98729819Y-69663550D02*
X98638390Y-69663550D01*
X98638390Y-69663550D02*
X98577438Y-69633074D01*
X98577438Y-69633074D02*
X98546961Y-69602597D01*
X98546961Y-69602597D02*
X98516485Y-69541645D01*
X98516485Y-69541645D02*
X98516485Y-69297835D01*
X98211723Y-70273074D02*
X98211723Y-69907359D01*
X98211723Y-70090216D02*
X98851723Y-70090216D01*
X98851723Y-70090216D02*
X98760295Y-70029264D01*
X98760295Y-70029264D02*
X98699342Y-69968312D01*
X98699342Y-69968312D02*
X98668866Y-69907359D01*
X98851723Y-70486407D02*
X98851723Y-70913074D01*
X98851723Y-70913074D02*
X98211723Y-70638788D01*
X128036667Y-63537392D02*
X128036667Y-63994535D01*
X128036667Y-63994535D02*
X128006190Y-64085963D01*
X128006190Y-64085963D02*
X127945238Y-64146916D01*
X127945238Y-64146916D02*
X127853809Y-64177392D01*
X127853809Y-64177392D02*
X127792857Y-64177392D01*
X128371905Y-64177392D02*
X128493809Y-64177392D01*
X128493809Y-64177392D02*
X128554762Y-64146916D01*
X128554762Y-64146916D02*
X128585238Y-64116439D01*
X128585238Y-64116439D02*
X128646190Y-64025011D01*
X128646190Y-64025011D02*
X128676667Y-63903106D01*
X128676667Y-63903106D02*
X128676667Y-63659296D01*
X128676667Y-63659296D02*
X128646190Y-63598344D01*
X128646190Y-63598344D02*
X128615714Y-63567868D01*
X128615714Y-63567868D02*
X128554762Y-63537392D01*
X128554762Y-63537392D02*
X128432857Y-63537392D01*
X128432857Y-63537392D02*
X128371905Y-63567868D01*
X128371905Y-63567868D02*
X128341428Y-63598344D01*
X128341428Y-63598344D02*
X128310952Y-63659296D01*
X128310952Y-63659296D02*
X128310952Y-63811677D01*
X128310952Y-63811677D02*
X128341428Y-63872630D01*
X128341428Y-63872630D02*
X128371905Y-63903106D01*
X128371905Y-63903106D02*
X128432857Y-63933582D01*
X128432857Y-63933582D02*
X128554762Y-63933582D01*
X128554762Y-63933582D02*
X128615714Y-63903106D01*
X128615714Y-63903106D02*
X128646190Y-63872630D01*
X128646190Y-63872630D02*
X128676667Y-63811677D01*
X128851723Y-87942381D02*
X128851723Y-88308095D01*
X128211723Y-88125238D02*
X128851723Y-88125238D01*
X128211723Y-88521428D02*
X128851723Y-88521428D01*
X128851723Y-88521428D02*
X128851723Y-88765238D01*
X128851723Y-88765238D02*
X128821247Y-88826190D01*
X128821247Y-88826190D02*
X128790771Y-88856667D01*
X128790771Y-88856667D02*
X128729819Y-88887143D01*
X128729819Y-88887143D02*
X128638390Y-88887143D01*
X128638390Y-88887143D02*
X128577438Y-88856667D01*
X128577438Y-88856667D02*
X128546961Y-88826190D01*
X128546961Y-88826190D02*
X128516485Y-88765238D01*
X128516485Y-88765238D02*
X128516485Y-88521428D01*
X128790771Y-89130952D02*
X128821247Y-89161428D01*
X128821247Y-89161428D02*
X128851723Y-89222381D01*
X128851723Y-89222381D02*
X128851723Y-89374762D01*
X128851723Y-89374762D02*
X128821247Y-89435714D01*
X128821247Y-89435714D02*
X128790771Y-89466190D01*
X128790771Y-89466190D02*
X128729819Y-89496667D01*
X128729819Y-89496667D02*
X128668866Y-89496667D01*
X128668866Y-89496667D02*
X128577438Y-89466190D01*
X128577438Y-89466190D02*
X128211723Y-89100476D01*
X128211723Y-89100476D02*
X128211723Y-89496667D01*
X137393333Y-78538276D02*
X137179999Y-78233514D01*
X137027618Y-78538276D02*
X137027618Y-77898276D01*
X137027618Y-77898276D02*
X137271428Y-77898276D01*
X137271428Y-77898276D02*
X137332380Y-77928752D01*
X137332380Y-77928752D02*
X137362857Y-77959228D01*
X137362857Y-77959228D02*
X137393333Y-78020180D01*
X137393333Y-78020180D02*
X137393333Y-78111609D01*
X137393333Y-78111609D02*
X137362857Y-78172561D01*
X137362857Y-78172561D02*
X137332380Y-78203038D01*
X137332380Y-78203038D02*
X137271428Y-78233514D01*
X137271428Y-78233514D02*
X137027618Y-78233514D01*
X137941904Y-78111609D02*
X137941904Y-78538276D01*
X137789523Y-77867800D02*
X137637142Y-78324942D01*
X137637142Y-78324942D02*
X138033333Y-78324942D01*
X93838462Y-68328556D02*
X94143224Y-68115222D01*
X93838462Y-67962841D02*
X94478462Y-67962841D01*
X94478462Y-67962841D02*
X94478462Y-68206651D01*
X94478462Y-68206651D02*
X94447986Y-68267603D01*
X94447986Y-68267603D02*
X94417510Y-68298080D01*
X94417510Y-68298080D02*
X94356558Y-68328556D01*
X94356558Y-68328556D02*
X94265129Y-68328556D01*
X94265129Y-68328556D02*
X94204177Y-68298080D01*
X94204177Y-68298080D02*
X94173700Y-68267603D01*
X94173700Y-68267603D02*
X94143224Y-68206651D01*
X94143224Y-68206651D02*
X94143224Y-67962841D01*
X94417510Y-68572365D02*
X94447986Y-68602841D01*
X94447986Y-68602841D02*
X94478462Y-68663794D01*
X94478462Y-68663794D02*
X94478462Y-68816175D01*
X94478462Y-68816175D02*
X94447986Y-68877127D01*
X94447986Y-68877127D02*
X94417510Y-68907603D01*
X94417510Y-68907603D02*
X94356558Y-68938080D01*
X94356558Y-68938080D02*
X94295605Y-68938080D01*
X94295605Y-68938080D02*
X94204177Y-68907603D01*
X94204177Y-68907603D02*
X93838462Y-68541889D01*
X93838462Y-68541889D02*
X93838462Y-68938080D01*
X94478462Y-69151413D02*
X94478462Y-69547604D01*
X94478462Y-69547604D02*
X94234653Y-69334270D01*
X94234653Y-69334270D02*
X94234653Y-69425699D01*
X94234653Y-69425699D02*
X94204177Y-69486651D01*
X94204177Y-69486651D02*
X94173700Y-69517127D01*
X94173700Y-69517127D02*
X94112748Y-69547604D01*
X94112748Y-69547604D02*
X93960367Y-69547604D01*
X93960367Y-69547604D02*
X93899415Y-69517127D01*
X93899415Y-69517127D02*
X93868939Y-69486651D01*
X93868939Y-69486651D02*
X93838462Y-69425699D01*
X93838462Y-69425699D02*
X93838462Y-69242842D01*
X93838462Y-69242842D02*
X93868939Y-69181889D01*
X93868939Y-69181889D02*
X93899415Y-69151413D01*
X99652289Y-68913634D02*
X99438955Y-68608872D01*
X99286574Y-68913634D02*
X99286574Y-68273634D01*
X99286574Y-68273634D02*
X99530384Y-68273634D01*
X99530384Y-68273634D02*
X99591336Y-68304110D01*
X99591336Y-68304110D02*
X99621813Y-68334586D01*
X99621813Y-68334586D02*
X99652289Y-68395538D01*
X99652289Y-68395538D02*
X99652289Y-68486967D01*
X99652289Y-68486967D02*
X99621813Y-68547919D01*
X99621813Y-68547919D02*
X99591336Y-68578396D01*
X99591336Y-68578396D02*
X99530384Y-68608872D01*
X99530384Y-68608872D02*
X99286574Y-68608872D01*
X100261813Y-68913634D02*
X99896098Y-68913634D01*
X100078955Y-68913634D02*
X100078955Y-68273634D01*
X100078955Y-68273634D02*
X100018003Y-68365062D01*
X100018003Y-68365062D02*
X99957051Y-68426015D01*
X99957051Y-68426015D02*
X99896098Y-68456491D01*
X100840860Y-68273634D02*
X100536098Y-68273634D01*
X100536098Y-68273634D02*
X100505622Y-68578396D01*
X100505622Y-68578396D02*
X100536098Y-68547919D01*
X100536098Y-68547919D02*
X100597051Y-68517443D01*
X100597051Y-68517443D02*
X100749432Y-68517443D01*
X100749432Y-68517443D02*
X100810384Y-68547919D01*
X100810384Y-68547919D02*
X100840860Y-68578396D01*
X100840860Y-68578396D02*
X100871337Y-68639348D01*
X100871337Y-68639348D02*
X100871337Y-68791729D01*
X100871337Y-68791729D02*
X100840860Y-68852681D01*
X100840860Y-68852681D02*
X100810384Y-68883158D01*
X100810384Y-68883158D02*
X100749432Y-68913634D01*
X100749432Y-68913634D02*
X100597051Y-68913634D01*
X100597051Y-68913634D02*
X100536098Y-68883158D01*
X100536098Y-68883158D02*
X100505622Y-68852681D01*
X123810817Y-73861199D02*
X123810817Y-74379294D01*
X123810817Y-74379294D02*
X123841294Y-74440246D01*
X123841294Y-74440246D02*
X123871770Y-74470723D01*
X123871770Y-74470723D02*
X123932722Y-74501199D01*
X123932722Y-74501199D02*
X124054627Y-74501199D01*
X124054627Y-74501199D02*
X124115579Y-74470723D01*
X124115579Y-74470723D02*
X124146056Y-74440246D01*
X124146056Y-74440246D02*
X124176532Y-74379294D01*
X124176532Y-74379294D02*
X124176532Y-73861199D01*
X124816532Y-74501199D02*
X124450817Y-74501199D01*
X124633674Y-74501199D02*
X124633674Y-73861199D01*
X124633674Y-73861199D02*
X124572722Y-73952627D01*
X124572722Y-73952627D02*
X124511770Y-74013580D01*
X124511770Y-74013580D02*
X124450817Y-74044056D01*
X128561984Y-71367938D02*
X128531508Y-71398415D01*
X128531508Y-71398415D02*
X128440079Y-71428891D01*
X128440079Y-71428891D02*
X128379127Y-71428891D01*
X128379127Y-71428891D02*
X128287698Y-71398415D01*
X128287698Y-71398415D02*
X128226746Y-71337462D01*
X128226746Y-71337462D02*
X128196269Y-71276510D01*
X128196269Y-71276510D02*
X128165793Y-71154605D01*
X128165793Y-71154605D02*
X128165793Y-71063176D01*
X128165793Y-71063176D02*
X128196269Y-70941272D01*
X128196269Y-70941272D02*
X128226746Y-70880319D01*
X128226746Y-70880319D02*
X128287698Y-70819367D01*
X128287698Y-70819367D02*
X128379127Y-70788891D01*
X128379127Y-70788891D02*
X128440079Y-70788891D01*
X128440079Y-70788891D02*
X128531508Y-70819367D01*
X128531508Y-70819367D02*
X128561984Y-70849843D01*
X128775317Y-70788891D02*
X129171508Y-70788891D01*
X129171508Y-70788891D02*
X128958174Y-71032700D01*
X128958174Y-71032700D02*
X129049603Y-71032700D01*
X129049603Y-71032700D02*
X129110555Y-71063176D01*
X129110555Y-71063176D02*
X129141031Y-71093653D01*
X129141031Y-71093653D02*
X129171508Y-71154605D01*
X129171508Y-71154605D02*
X129171508Y-71306986D01*
X129171508Y-71306986D02*
X129141031Y-71367938D01*
X129141031Y-71367938D02*
X129110555Y-71398415D01*
X129110555Y-71398415D02*
X129049603Y-71428891D01*
X129049603Y-71428891D02*
X128866746Y-71428891D01*
X128866746Y-71428891D02*
X128805793Y-71398415D01*
X128805793Y-71398415D02*
X128775317Y-71367938D01*
X99838571Y-74038276D02*
X99625237Y-73733514D01*
X99472856Y-74038276D02*
X99472856Y-73398276D01*
X99472856Y-73398276D02*
X99716666Y-73398276D01*
X99716666Y-73398276D02*
X99777618Y-73428752D01*
X99777618Y-73428752D02*
X99808095Y-73459228D01*
X99808095Y-73459228D02*
X99838571Y-73520180D01*
X99838571Y-73520180D02*
X99838571Y-73611609D01*
X99838571Y-73611609D02*
X99808095Y-73672561D01*
X99808095Y-73672561D02*
X99777618Y-73703038D01*
X99777618Y-73703038D02*
X99716666Y-73733514D01*
X99716666Y-73733514D02*
X99472856Y-73733514D01*
X100448095Y-74038276D02*
X100082380Y-74038276D01*
X100265237Y-74038276D02*
X100265237Y-73398276D01*
X100265237Y-73398276D02*
X100204285Y-73489704D01*
X100204285Y-73489704D02*
X100143333Y-73550657D01*
X100143333Y-73550657D02*
X100082380Y-73581133D01*
X100996666Y-73398276D02*
X100874761Y-73398276D01*
X100874761Y-73398276D02*
X100813809Y-73428752D01*
X100813809Y-73428752D02*
X100783333Y-73459228D01*
X100783333Y-73459228D02*
X100722380Y-73550657D01*
X100722380Y-73550657D02*
X100691904Y-73672561D01*
X100691904Y-73672561D02*
X100691904Y-73916371D01*
X100691904Y-73916371D02*
X100722380Y-73977323D01*
X100722380Y-73977323D02*
X100752857Y-74007800D01*
X100752857Y-74007800D02*
X100813809Y-74038276D01*
X100813809Y-74038276D02*
X100935714Y-74038276D01*
X100935714Y-74038276D02*
X100996666Y-74007800D01*
X100996666Y-74007800D02*
X101027142Y-73977323D01*
X101027142Y-73977323D02*
X101057619Y-73916371D01*
X101057619Y-73916371D02*
X101057619Y-73763990D01*
X101057619Y-73763990D02*
X101027142Y-73703038D01*
X101027142Y-73703038D02*
X100996666Y-73672561D01*
X100996666Y-73672561D02*
X100935714Y-73642085D01*
X100935714Y-73642085D02*
X100813809Y-73642085D01*
X100813809Y-73642085D02*
X100752857Y-73672561D01*
X100752857Y-73672561D02*
X100722380Y-73703038D01*
X100722380Y-73703038D02*
X100691904Y-73763990D01*
X110571145Y-80859294D02*
X110540669Y-80889771D01*
X110540669Y-80889771D02*
X110449240Y-80920247D01*
X110449240Y-80920247D02*
X110388288Y-80920247D01*
X110388288Y-80920247D02*
X110296859Y-80889771D01*
X110296859Y-80889771D02*
X110235907Y-80828818D01*
X110235907Y-80828818D02*
X110205430Y-80767866D01*
X110205430Y-80767866D02*
X110174954Y-80645961D01*
X110174954Y-80645961D02*
X110174954Y-80554532D01*
X110174954Y-80554532D02*
X110205430Y-80432628D01*
X110205430Y-80432628D02*
X110235907Y-80371675D01*
X110235907Y-80371675D02*
X110296859Y-80310723D01*
X110296859Y-80310723D02*
X110388288Y-80280247D01*
X110388288Y-80280247D02*
X110449240Y-80280247D01*
X110449240Y-80280247D02*
X110540669Y-80310723D01*
X110540669Y-80310723D02*
X110571145Y-80341199D01*
X110814954Y-80341199D02*
X110845430Y-80310723D01*
X110845430Y-80310723D02*
X110906383Y-80280247D01*
X110906383Y-80280247D02*
X111058764Y-80280247D01*
X111058764Y-80280247D02*
X111119716Y-80310723D01*
X111119716Y-80310723D02*
X111150192Y-80341199D01*
X111150192Y-80341199D02*
X111180669Y-80402151D01*
X111180669Y-80402151D02*
X111180669Y-80463104D01*
X111180669Y-80463104D02*
X111150192Y-80554532D01*
X111150192Y-80554532D02*
X110784478Y-80920247D01*
X110784478Y-80920247D02*
X111180669Y-80920247D01*
X111576859Y-80280247D02*
X111637812Y-80280247D01*
X111637812Y-80280247D02*
X111698764Y-80310723D01*
X111698764Y-80310723D02*
X111729240Y-80341199D01*
X111729240Y-80341199D02*
X111759716Y-80402151D01*
X111759716Y-80402151D02*
X111790193Y-80524056D01*
X111790193Y-80524056D02*
X111790193Y-80676437D01*
X111790193Y-80676437D02*
X111759716Y-80798342D01*
X111759716Y-80798342D02*
X111729240Y-80859294D01*
X111729240Y-80859294D02*
X111698764Y-80889771D01*
X111698764Y-80889771D02*
X111637812Y-80920247D01*
X111637812Y-80920247D02*
X111576859Y-80920247D01*
X111576859Y-80920247D02*
X111515907Y-80889771D01*
X111515907Y-80889771D02*
X111485431Y-80859294D01*
X111485431Y-80859294D02*
X111454954Y-80798342D01*
X111454954Y-80798342D02*
X111424478Y-80676437D01*
X111424478Y-80676437D02*
X111424478Y-80524056D01*
X111424478Y-80524056D02*
X111454954Y-80402151D01*
X111454954Y-80402151D02*
X111485431Y-80341199D01*
X111485431Y-80341199D02*
X111515907Y-80310723D01*
X111515907Y-80310723D02*
X111576859Y-80280247D01*
X93146681Y-81082115D02*
X93116205Y-81051639D01*
X93116205Y-81051639D02*
X93085728Y-80960210D01*
X93085728Y-80960210D02*
X93085728Y-80899258D01*
X93085728Y-80899258D02*
X93116205Y-80807829D01*
X93116205Y-80807829D02*
X93177157Y-80746877D01*
X93177157Y-80746877D02*
X93238109Y-80716400D01*
X93238109Y-80716400D02*
X93360014Y-80685924D01*
X93360014Y-80685924D02*
X93451443Y-80685924D01*
X93451443Y-80685924D02*
X93573347Y-80716400D01*
X93573347Y-80716400D02*
X93634300Y-80746877D01*
X93634300Y-80746877D02*
X93695252Y-80807829D01*
X93695252Y-80807829D02*
X93725728Y-80899258D01*
X93725728Y-80899258D02*
X93725728Y-80960210D01*
X93725728Y-80960210D02*
X93695252Y-81051639D01*
X93695252Y-81051639D02*
X93664776Y-81082115D01*
X93725728Y-81295448D02*
X93725728Y-81691639D01*
X93725728Y-81691639D02*
X93481919Y-81478305D01*
X93481919Y-81478305D02*
X93481919Y-81569734D01*
X93481919Y-81569734D02*
X93451443Y-81630686D01*
X93451443Y-81630686D02*
X93420966Y-81661162D01*
X93420966Y-81661162D02*
X93360014Y-81691639D01*
X93360014Y-81691639D02*
X93207633Y-81691639D01*
X93207633Y-81691639D02*
X93146681Y-81661162D01*
X93146681Y-81661162D02*
X93116205Y-81630686D01*
X93116205Y-81630686D02*
X93085728Y-81569734D01*
X93085728Y-81569734D02*
X93085728Y-81386877D01*
X93085728Y-81386877D02*
X93116205Y-81325924D01*
X93116205Y-81325924D02*
X93146681Y-81295448D01*
X93725728Y-82087829D02*
X93725728Y-82148782D01*
X93725728Y-82148782D02*
X93695252Y-82209734D01*
X93695252Y-82209734D02*
X93664776Y-82240210D01*
X93664776Y-82240210D02*
X93603824Y-82270686D01*
X93603824Y-82270686D02*
X93481919Y-82301163D01*
X93481919Y-82301163D02*
X93329538Y-82301163D01*
X93329538Y-82301163D02*
X93207633Y-82270686D01*
X93207633Y-82270686D02*
X93146681Y-82240210D01*
X93146681Y-82240210D02*
X93116205Y-82209734D01*
X93116205Y-82209734D02*
X93085728Y-82148782D01*
X93085728Y-82148782D02*
X93085728Y-82087829D01*
X93085728Y-82087829D02*
X93116205Y-82026877D01*
X93116205Y-82026877D02*
X93146681Y-81996401D01*
X93146681Y-81996401D02*
X93207633Y-81965924D01*
X93207633Y-81965924D02*
X93329538Y-81935448D01*
X93329538Y-81935448D02*
X93481919Y-81935448D01*
X93481919Y-81935448D02*
X93603824Y-81965924D01*
X93603824Y-81965924D02*
X93664776Y-81996401D01*
X93664776Y-81996401D02*
X93695252Y-82026877D01*
X93695252Y-82026877D02*
X93725728Y-82087829D01*
X130588571Y-83538276D02*
X130375237Y-83233514D01*
X130222856Y-83538276D02*
X130222856Y-82898276D01*
X130222856Y-82898276D02*
X130466666Y-82898276D01*
X130466666Y-82898276D02*
X130527618Y-82928752D01*
X130527618Y-82928752D02*
X130558095Y-82959228D01*
X130558095Y-82959228D02*
X130588571Y-83020180D01*
X130588571Y-83020180D02*
X130588571Y-83111609D01*
X130588571Y-83111609D02*
X130558095Y-83172561D01*
X130558095Y-83172561D02*
X130527618Y-83203038D01*
X130527618Y-83203038D02*
X130466666Y-83233514D01*
X130466666Y-83233514D02*
X130222856Y-83233514D01*
X130832380Y-82959228D02*
X130862856Y-82928752D01*
X130862856Y-82928752D02*
X130923809Y-82898276D01*
X130923809Y-82898276D02*
X131076190Y-82898276D01*
X131076190Y-82898276D02*
X131137142Y-82928752D01*
X131137142Y-82928752D02*
X131167618Y-82959228D01*
X131167618Y-82959228D02*
X131198095Y-83020180D01*
X131198095Y-83020180D02*
X131198095Y-83081133D01*
X131198095Y-83081133D02*
X131167618Y-83172561D01*
X131167618Y-83172561D02*
X130801904Y-83538276D01*
X130801904Y-83538276D02*
X131198095Y-83538276D01*
X131746666Y-83111609D02*
X131746666Y-83538276D01*
X131594285Y-82867800D02*
X131441904Y-83324942D01*
X131441904Y-83324942D02*
X131838095Y-83324942D01*
X103984439Y-67007414D02*
X103953963Y-67037891D01*
X103953963Y-67037891D02*
X103862534Y-67068367D01*
X103862534Y-67068367D02*
X103801582Y-67068367D01*
X103801582Y-67068367D02*
X103710153Y-67037891D01*
X103710153Y-67037891D02*
X103649201Y-66976938D01*
X103649201Y-66976938D02*
X103618724Y-66915986D01*
X103618724Y-66915986D02*
X103588248Y-66794081D01*
X103588248Y-66794081D02*
X103588248Y-66702652D01*
X103588248Y-66702652D02*
X103618724Y-66580748D01*
X103618724Y-66580748D02*
X103649201Y-66519795D01*
X103649201Y-66519795D02*
X103710153Y-66458843D01*
X103710153Y-66458843D02*
X103801582Y-66428367D01*
X103801582Y-66428367D02*
X103862534Y-66428367D01*
X103862534Y-66428367D02*
X103953963Y-66458843D01*
X103953963Y-66458843D02*
X103984439Y-66489319D01*
X104593963Y-67068367D02*
X104228248Y-67068367D01*
X104411105Y-67068367D02*
X104411105Y-66428367D01*
X104411105Y-66428367D02*
X104350153Y-66519795D01*
X104350153Y-66519795D02*
X104289201Y-66580748D01*
X104289201Y-66580748D02*
X104228248Y-66611224D01*
X104807296Y-66428367D02*
X105203487Y-66428367D01*
X105203487Y-66428367D02*
X104990153Y-66672176D01*
X104990153Y-66672176D02*
X105081582Y-66672176D01*
X105081582Y-66672176D02*
X105142534Y-66702652D01*
X105142534Y-66702652D02*
X105173010Y-66733129D01*
X105173010Y-66733129D02*
X105203487Y-66794081D01*
X105203487Y-66794081D02*
X105203487Y-66946462D01*
X105203487Y-66946462D02*
X105173010Y-67007414D01*
X105173010Y-67007414D02*
X105142534Y-67037891D01*
X105142534Y-67037891D02*
X105081582Y-67068367D01*
X105081582Y-67068367D02*
X104898725Y-67068367D01*
X104898725Y-67068367D02*
X104837772Y-67037891D01*
X104837772Y-67037891D02*
X104807296Y-67007414D01*
X131399723Y-87942381D02*
X131399723Y-88308095D01*
X130759723Y-88125238D02*
X131399723Y-88125238D01*
X130759723Y-88521428D02*
X131399723Y-88521428D01*
X131399723Y-88521428D02*
X131399723Y-88765238D01*
X131399723Y-88765238D02*
X131369247Y-88826190D01*
X131369247Y-88826190D02*
X131338771Y-88856667D01*
X131338771Y-88856667D02*
X131277819Y-88887143D01*
X131277819Y-88887143D02*
X131186390Y-88887143D01*
X131186390Y-88887143D02*
X131125438Y-88856667D01*
X131125438Y-88856667D02*
X131094961Y-88826190D01*
X131094961Y-88826190D02*
X131064485Y-88765238D01*
X131064485Y-88765238D02*
X131064485Y-88521428D01*
X130759723Y-89496667D02*
X130759723Y-89130952D01*
X130759723Y-89313809D02*
X131399723Y-89313809D01*
X131399723Y-89313809D02*
X131308295Y-89252857D01*
X131308295Y-89252857D02*
X131247342Y-89191905D01*
X131247342Y-89191905D02*
X131216866Y-89130952D01*
X130534933Y-73228687D02*
X130504457Y-73259164D01*
X130504457Y-73259164D02*
X130413028Y-73289640D01*
X130413028Y-73289640D02*
X130352076Y-73289640D01*
X130352076Y-73289640D02*
X130260647Y-73259164D01*
X130260647Y-73259164D02*
X130199695Y-73198211D01*
X130199695Y-73198211D02*
X130169218Y-73137259D01*
X130169218Y-73137259D02*
X130138742Y-73015354D01*
X130138742Y-73015354D02*
X130138742Y-72923925D01*
X130138742Y-72923925D02*
X130169218Y-72802021D01*
X130169218Y-72802021D02*
X130199695Y-72741068D01*
X130199695Y-72741068D02*
X130260647Y-72680116D01*
X130260647Y-72680116D02*
X130352076Y-72649640D01*
X130352076Y-72649640D02*
X130413028Y-72649640D01*
X130413028Y-72649640D02*
X130504457Y-72680116D01*
X130504457Y-72680116D02*
X130534933Y-72710592D01*
X130839695Y-73289640D02*
X130961599Y-73289640D01*
X130961599Y-73289640D02*
X131022552Y-73259164D01*
X131022552Y-73259164D02*
X131053028Y-73228687D01*
X131053028Y-73228687D02*
X131113980Y-73137259D01*
X131113980Y-73137259D02*
X131144457Y-73015354D01*
X131144457Y-73015354D02*
X131144457Y-72771544D01*
X131144457Y-72771544D02*
X131113980Y-72710592D01*
X131113980Y-72710592D02*
X131083504Y-72680116D01*
X131083504Y-72680116D02*
X131022552Y-72649640D01*
X131022552Y-72649640D02*
X130900647Y-72649640D01*
X130900647Y-72649640D02*
X130839695Y-72680116D01*
X130839695Y-72680116D02*
X130809218Y-72710592D01*
X130809218Y-72710592D02*
X130778742Y-72771544D01*
X130778742Y-72771544D02*
X130778742Y-72923925D01*
X130778742Y-72923925D02*
X130809218Y-72984878D01*
X130809218Y-72984878D02*
X130839695Y-73015354D01*
X130839695Y-73015354D02*
X130900647Y-73045830D01*
X130900647Y-73045830D02*
X131022552Y-73045830D01*
X131022552Y-73045830D02*
X131083504Y-73015354D01*
X131083504Y-73015354D02*
X131113980Y-72984878D01*
X131113980Y-72984878D02*
X131144457Y-72923925D01*
X122588571Y-83253054D02*
X122558095Y-83283531D01*
X122558095Y-83283531D02*
X122466666Y-83314007D01*
X122466666Y-83314007D02*
X122405714Y-83314007D01*
X122405714Y-83314007D02*
X122314285Y-83283531D01*
X122314285Y-83283531D02*
X122253333Y-83222578D01*
X122253333Y-83222578D02*
X122222856Y-83161626D01*
X122222856Y-83161626D02*
X122192380Y-83039721D01*
X122192380Y-83039721D02*
X122192380Y-82948292D01*
X122192380Y-82948292D02*
X122222856Y-82826388D01*
X122222856Y-82826388D02*
X122253333Y-82765435D01*
X122253333Y-82765435D02*
X122314285Y-82704483D01*
X122314285Y-82704483D02*
X122405714Y-82674007D01*
X122405714Y-82674007D02*
X122466666Y-82674007D01*
X122466666Y-82674007D02*
X122558095Y-82704483D01*
X122558095Y-82704483D02*
X122588571Y-82734959D01*
X122832380Y-82734959D02*
X122862856Y-82704483D01*
X122862856Y-82704483D02*
X122923809Y-82674007D01*
X122923809Y-82674007D02*
X123076190Y-82674007D01*
X123076190Y-82674007D02*
X123137142Y-82704483D01*
X123137142Y-82704483D02*
X123167618Y-82734959D01*
X123167618Y-82734959D02*
X123198095Y-82795911D01*
X123198095Y-82795911D02*
X123198095Y-82856864D01*
X123198095Y-82856864D02*
X123167618Y-82948292D01*
X123167618Y-82948292D02*
X122801904Y-83314007D01*
X122801904Y-83314007D02*
X123198095Y-83314007D01*
X123746666Y-82674007D02*
X123624761Y-82674007D01*
X123624761Y-82674007D02*
X123563809Y-82704483D01*
X123563809Y-82704483D02*
X123533333Y-82734959D01*
X123533333Y-82734959D02*
X123472380Y-82826388D01*
X123472380Y-82826388D02*
X123441904Y-82948292D01*
X123441904Y-82948292D02*
X123441904Y-83192102D01*
X123441904Y-83192102D02*
X123472380Y-83253054D01*
X123472380Y-83253054D02*
X123502857Y-83283531D01*
X123502857Y-83283531D02*
X123563809Y-83314007D01*
X123563809Y-83314007D02*
X123685714Y-83314007D01*
X123685714Y-83314007D02*
X123746666Y-83283531D01*
X123746666Y-83283531D02*
X123777142Y-83253054D01*
X123777142Y-83253054D02*
X123807619Y-83192102D01*
X123807619Y-83192102D02*
X123807619Y-83039721D01*
X123807619Y-83039721D02*
X123777142Y-82978769D01*
X123777142Y-82978769D02*
X123746666Y-82948292D01*
X123746666Y-82948292D02*
X123685714Y-82917816D01*
X123685714Y-82917816D02*
X123563809Y-82917816D01*
X123563809Y-82917816D02*
X123502857Y-82948292D01*
X123502857Y-82948292D02*
X123472380Y-82978769D01*
X123472380Y-82978769D02*
X123441904Y-83039721D01*
X99054532Y-61660782D02*
X98841198Y-61356020D01*
X98688817Y-61660782D02*
X98688817Y-61020782D01*
X98688817Y-61020782D02*
X98932627Y-61020782D01*
X98932627Y-61020782D02*
X98993579Y-61051258D01*
X98993579Y-61051258D02*
X99024056Y-61081734D01*
X99024056Y-61081734D02*
X99054532Y-61142686D01*
X99054532Y-61142686D02*
X99054532Y-61234115D01*
X99054532Y-61234115D02*
X99024056Y-61295067D01*
X99024056Y-61295067D02*
X98993579Y-61325544D01*
X98993579Y-61325544D02*
X98932627Y-61356020D01*
X98932627Y-61356020D02*
X98688817Y-61356020D01*
X99359294Y-61660782D02*
X99481198Y-61660782D01*
X99481198Y-61660782D02*
X99542151Y-61630306D01*
X99542151Y-61630306D02*
X99572627Y-61599829D01*
X99572627Y-61599829D02*
X99633579Y-61508401D01*
X99633579Y-61508401D02*
X99664056Y-61386496D01*
X99664056Y-61386496D02*
X99664056Y-61142686D01*
X99664056Y-61142686D02*
X99633579Y-61081734D01*
X99633579Y-61081734D02*
X99603103Y-61051258D01*
X99603103Y-61051258D02*
X99542151Y-61020782D01*
X99542151Y-61020782D02*
X99420246Y-61020782D01*
X99420246Y-61020782D02*
X99359294Y-61051258D01*
X99359294Y-61051258D02*
X99328817Y-61081734D01*
X99328817Y-61081734D02*
X99298341Y-61142686D01*
X99298341Y-61142686D02*
X99298341Y-61295067D01*
X99298341Y-61295067D02*
X99328817Y-61356020D01*
X99328817Y-61356020D02*
X99359294Y-61386496D01*
X99359294Y-61386496D02*
X99420246Y-61416972D01*
X99420246Y-61416972D02*
X99542151Y-61416972D01*
X99542151Y-61416972D02*
X99603103Y-61386496D01*
X99603103Y-61386496D02*
X99633579Y-61356020D01*
X99633579Y-61356020D02*
X99664056Y-61295067D01*
X119466706Y-78788276D02*
X119253372Y-78483514D01*
X119100991Y-78788276D02*
X119100991Y-78148276D01*
X119100991Y-78148276D02*
X119344801Y-78148276D01*
X119344801Y-78148276D02*
X119405753Y-78178752D01*
X119405753Y-78178752D02*
X119436230Y-78209228D01*
X119436230Y-78209228D02*
X119466706Y-78270180D01*
X119466706Y-78270180D02*
X119466706Y-78361609D01*
X119466706Y-78361609D02*
X119436230Y-78422561D01*
X119436230Y-78422561D02*
X119405753Y-78453038D01*
X119405753Y-78453038D02*
X119344801Y-78483514D01*
X119344801Y-78483514D02*
X119100991Y-78483514D01*
X120076230Y-78788276D02*
X119710515Y-78788276D01*
X119893372Y-78788276D02*
X119893372Y-78148276D01*
X119893372Y-78148276D02*
X119832420Y-78239704D01*
X119832420Y-78239704D02*
X119771468Y-78300657D01*
X119771468Y-78300657D02*
X119710515Y-78331133D01*
X120685754Y-78788276D02*
X120320039Y-78788276D01*
X120502896Y-78788276D02*
X120502896Y-78148276D01*
X120502896Y-78148276D02*
X120441944Y-78239704D01*
X120441944Y-78239704D02*
X120380992Y-78300657D01*
X120380992Y-78300657D02*
X120320039Y-78331133D01*
X139599099Y-76272473D02*
X139385765Y-75967711D01*
X139233384Y-76272473D02*
X139233384Y-75632473D01*
X139233384Y-75632473D02*
X139477194Y-75632473D01*
X139477194Y-75632473D02*
X139538146Y-75662949D01*
X139538146Y-75662949D02*
X139568623Y-75693425D01*
X139568623Y-75693425D02*
X139599099Y-75754377D01*
X139599099Y-75754377D02*
X139599099Y-75845806D01*
X139599099Y-75845806D02*
X139568623Y-75906758D01*
X139568623Y-75906758D02*
X139538146Y-75937235D01*
X139538146Y-75937235D02*
X139477194Y-75967711D01*
X139477194Y-75967711D02*
X139233384Y-75967711D01*
X139812432Y-75632473D02*
X140208623Y-75632473D01*
X140208623Y-75632473D02*
X139995289Y-75876282D01*
X139995289Y-75876282D02*
X140086718Y-75876282D01*
X140086718Y-75876282D02*
X140147670Y-75906758D01*
X140147670Y-75906758D02*
X140178146Y-75937235D01*
X140178146Y-75937235D02*
X140208623Y-75998187D01*
X140208623Y-75998187D02*
X140208623Y-76150568D01*
X140208623Y-76150568D02*
X140178146Y-76211520D01*
X140178146Y-76211520D02*
X140147670Y-76241997D01*
X140147670Y-76241997D02*
X140086718Y-76272473D01*
X140086718Y-76272473D02*
X139903861Y-76272473D01*
X139903861Y-76272473D02*
X139842908Y-76241997D01*
X139842908Y-76241997D02*
X139812432Y-76211520D01*
X119585931Y-83272234D02*
X119555455Y-83302711D01*
X119555455Y-83302711D02*
X119464026Y-83333187D01*
X119464026Y-83333187D02*
X119403074Y-83333187D01*
X119403074Y-83333187D02*
X119311645Y-83302711D01*
X119311645Y-83302711D02*
X119250693Y-83241758D01*
X119250693Y-83241758D02*
X119220216Y-83180806D01*
X119220216Y-83180806D02*
X119189740Y-83058901D01*
X119189740Y-83058901D02*
X119189740Y-82967472D01*
X119189740Y-82967472D02*
X119220216Y-82845568D01*
X119220216Y-82845568D02*
X119250693Y-82784615D01*
X119250693Y-82784615D02*
X119311645Y-82723663D01*
X119311645Y-82723663D02*
X119403074Y-82693187D01*
X119403074Y-82693187D02*
X119464026Y-82693187D01*
X119464026Y-82693187D02*
X119555455Y-82723663D01*
X119555455Y-82723663D02*
X119585931Y-82754139D01*
X119829740Y-82754139D02*
X119860216Y-82723663D01*
X119860216Y-82723663D02*
X119921169Y-82693187D01*
X119921169Y-82693187D02*
X120073550Y-82693187D01*
X120073550Y-82693187D02*
X120134502Y-82723663D01*
X120134502Y-82723663D02*
X120164978Y-82754139D01*
X120164978Y-82754139D02*
X120195455Y-82815091D01*
X120195455Y-82815091D02*
X120195455Y-82876044D01*
X120195455Y-82876044D02*
X120164978Y-82967472D01*
X120164978Y-82967472D02*
X119799264Y-83333187D01*
X119799264Y-83333187D02*
X120195455Y-83333187D01*
X120774502Y-82693187D02*
X120469740Y-82693187D01*
X120469740Y-82693187D02*
X120439264Y-82997949D01*
X120439264Y-82997949D02*
X120469740Y-82967472D01*
X120469740Y-82967472D02*
X120530693Y-82936996D01*
X120530693Y-82936996D02*
X120683074Y-82936996D01*
X120683074Y-82936996D02*
X120744026Y-82967472D01*
X120744026Y-82967472D02*
X120774502Y-82997949D01*
X120774502Y-82997949D02*
X120804979Y-83058901D01*
X120804979Y-83058901D02*
X120804979Y-83211282D01*
X120804979Y-83211282D02*
X120774502Y-83272234D01*
X120774502Y-83272234D02*
X120744026Y-83302711D01*
X120744026Y-83302711D02*
X120683074Y-83333187D01*
X120683074Y-83333187D02*
X120530693Y-83333187D01*
X120530693Y-83333187D02*
X120469740Y-83302711D01*
X120469740Y-83302711D02*
X120439264Y-83272234D01*
X113567364Y-83293440D02*
X113536888Y-83323917D01*
X113536888Y-83323917D02*
X113445459Y-83354393D01*
X113445459Y-83354393D02*
X113384507Y-83354393D01*
X113384507Y-83354393D02*
X113293078Y-83323917D01*
X113293078Y-83323917D02*
X113232126Y-83262964D01*
X113232126Y-83262964D02*
X113201649Y-83202012D01*
X113201649Y-83202012D02*
X113171173Y-83080107D01*
X113171173Y-83080107D02*
X113171173Y-82988678D01*
X113171173Y-82988678D02*
X113201649Y-82866774D01*
X113201649Y-82866774D02*
X113232126Y-82805821D01*
X113232126Y-82805821D02*
X113293078Y-82744869D01*
X113293078Y-82744869D02*
X113384507Y-82714393D01*
X113384507Y-82714393D02*
X113445459Y-82714393D01*
X113445459Y-82714393D02*
X113536888Y-82744869D01*
X113536888Y-82744869D02*
X113567364Y-82775345D01*
X113811173Y-82775345D02*
X113841649Y-82744869D01*
X113841649Y-82744869D02*
X113902602Y-82714393D01*
X113902602Y-82714393D02*
X114054983Y-82714393D01*
X114054983Y-82714393D02*
X114115935Y-82744869D01*
X114115935Y-82744869D02*
X114146411Y-82775345D01*
X114146411Y-82775345D02*
X114176888Y-82836297D01*
X114176888Y-82836297D02*
X114176888Y-82897250D01*
X114176888Y-82897250D02*
X114146411Y-82988678D01*
X114146411Y-82988678D02*
X113780697Y-83354393D01*
X113780697Y-83354393D02*
X114176888Y-83354393D01*
X114390221Y-82714393D02*
X114786412Y-82714393D01*
X114786412Y-82714393D02*
X114573078Y-82958202D01*
X114573078Y-82958202D02*
X114664507Y-82958202D01*
X114664507Y-82958202D02*
X114725459Y-82988678D01*
X114725459Y-82988678D02*
X114755935Y-83019155D01*
X114755935Y-83019155D02*
X114786412Y-83080107D01*
X114786412Y-83080107D02*
X114786412Y-83232488D01*
X114786412Y-83232488D02*
X114755935Y-83293440D01*
X114755935Y-83293440D02*
X114725459Y-83323917D01*
X114725459Y-83323917D02*
X114664507Y-83354393D01*
X114664507Y-83354393D02*
X114481650Y-83354393D01*
X114481650Y-83354393D02*
X114420697Y-83323917D01*
X114420697Y-83323917D02*
X114390221Y-83293440D01*
X127537444Y-81583592D02*
X127506968Y-81614069D01*
X127506968Y-81614069D02*
X127415539Y-81644545D01*
X127415539Y-81644545D02*
X127354587Y-81644545D01*
X127354587Y-81644545D02*
X127263158Y-81614069D01*
X127263158Y-81614069D02*
X127202206Y-81553116D01*
X127202206Y-81553116D02*
X127171729Y-81492164D01*
X127171729Y-81492164D02*
X127141253Y-81370259D01*
X127141253Y-81370259D02*
X127141253Y-81278830D01*
X127141253Y-81278830D02*
X127171729Y-81156926D01*
X127171729Y-81156926D02*
X127202206Y-81095973D01*
X127202206Y-81095973D02*
X127263158Y-81035021D01*
X127263158Y-81035021D02*
X127354587Y-81004545D01*
X127354587Y-81004545D02*
X127415539Y-81004545D01*
X127415539Y-81004545D02*
X127506968Y-81035021D01*
X127506968Y-81035021D02*
X127537444Y-81065497D01*
X128146968Y-81644545D02*
X127781253Y-81644545D01*
X127964110Y-81644545D02*
X127964110Y-81004545D01*
X127964110Y-81004545D02*
X127903158Y-81095973D01*
X127903158Y-81095973D02*
X127842206Y-81156926D01*
X127842206Y-81156926D02*
X127781253Y-81187402D01*
X128390777Y-81065497D02*
X128421253Y-81035021D01*
X128421253Y-81035021D02*
X128482206Y-81004545D01*
X128482206Y-81004545D02*
X128634587Y-81004545D01*
X128634587Y-81004545D02*
X128695539Y-81035021D01*
X128695539Y-81035021D02*
X128726015Y-81065497D01*
X128726015Y-81065497D02*
X128756492Y-81126449D01*
X128756492Y-81126449D02*
X128756492Y-81187402D01*
X128756492Y-81187402D02*
X128726015Y-81278830D01*
X128726015Y-81278830D02*
X128360301Y-81644545D01*
X128360301Y-81644545D02*
X128756492Y-81644545D01*
X97618500Y-84034529D02*
X97405166Y-83729767D01*
X97252785Y-84034529D02*
X97252785Y-83394529D01*
X97252785Y-83394529D02*
X97496595Y-83394529D01*
X97496595Y-83394529D02*
X97557547Y-83425005D01*
X97557547Y-83425005D02*
X97588024Y-83455481D01*
X97588024Y-83455481D02*
X97618500Y-83516433D01*
X97618500Y-83516433D02*
X97618500Y-83607862D01*
X97618500Y-83607862D02*
X97588024Y-83668814D01*
X97588024Y-83668814D02*
X97557547Y-83699291D01*
X97557547Y-83699291D02*
X97496595Y-83729767D01*
X97496595Y-83729767D02*
X97252785Y-83729767D01*
X97862309Y-83455481D02*
X97892785Y-83425005D01*
X97892785Y-83425005D02*
X97953738Y-83394529D01*
X97953738Y-83394529D02*
X98106119Y-83394529D01*
X98106119Y-83394529D02*
X98167071Y-83425005D01*
X98167071Y-83425005D02*
X98197547Y-83455481D01*
X98197547Y-83455481D02*
X98228024Y-83516433D01*
X98228024Y-83516433D02*
X98228024Y-83577386D01*
X98228024Y-83577386D02*
X98197547Y-83668814D01*
X98197547Y-83668814D02*
X97831833Y-84034529D01*
X97831833Y-84034529D02*
X98228024Y-84034529D01*
X98471833Y-83455481D02*
X98502309Y-83425005D01*
X98502309Y-83425005D02*
X98563262Y-83394529D01*
X98563262Y-83394529D02*
X98715643Y-83394529D01*
X98715643Y-83394529D02*
X98776595Y-83425005D01*
X98776595Y-83425005D02*
X98807071Y-83455481D01*
X98807071Y-83455481D02*
X98837548Y-83516433D01*
X98837548Y-83516433D02*
X98837548Y-83577386D01*
X98837548Y-83577386D02*
X98807071Y-83668814D01*
X98807071Y-83668814D02*
X98441357Y-84034529D01*
X98441357Y-84034529D02*
X98837548Y-84034529D01*
%TO.C,U2*%
X136623600Y-77419059D02*
X132373600Y-77419059D01*
X132373600Y-74869059D01*
X136623600Y-74869059D01*
X136623600Y-77419059D01*
D12*
X136623600Y-77419059D02*
X136123600Y-77419059D01*
X136623600Y-76919059D01*
X136623600Y-77419059D01*
G36*
X136623600Y-77419059D02*
G01*
X136123600Y-77419059D01*
X136623600Y-76919059D01*
X136623600Y-77419059D01*
G37*
%TO.C,C22*%
D10*
X118498989Y-74949375D02*
X115498989Y-74949375D01*
X115498989Y-79849375D01*
X118498989Y-79849375D01*
X118498989Y-74949375D01*
%TO.C,U5*%
X128275000Y-65275000D02*
X130725000Y-65275000D01*
X130725000Y-67225000D01*
X128275000Y-67225000D01*
X128275000Y-65275000D01*
D13*
X128275000Y-65575000D02*
X128275000Y-65275000D01*
X128575000Y-65275000D01*
X128275000Y-65575000D01*
G36*
X128275000Y-65575000D02*
G01*
X128275000Y-65275000D01*
X128575000Y-65275000D01*
X128275000Y-65575000D01*
G37*
%TO.C,C4*%
D10*
X127373422Y-72307965D02*
X124373422Y-72307965D01*
X124373422Y-70807965D01*
X127373422Y-70807965D01*
X127373422Y-72307965D01*
%TO.C,U8*%
X94766849Y-67311053D02*
X97766849Y-67311053D01*
X97766849Y-64311053D01*
X94766849Y-64311053D01*
X94766849Y-67311053D01*
D13*
X95091849Y-67286053D02*
X94791849Y-67286053D01*
X94791849Y-66986053D01*
X95091849Y-67286053D01*
G36*
X95091849Y-67286053D02*
G01*
X94791849Y-67286053D01*
X94791849Y-66986053D01*
X95091849Y-67286053D01*
G37*
%TO.C,C18*%
D10*
X99111194Y-86085458D02*
X100061194Y-86085458D01*
X100061194Y-84235458D01*
X99111194Y-84235458D01*
X99111194Y-86085458D01*
%TO.C,C16*%
X103075000Y-88275000D02*
X104925000Y-88275000D01*
X104925000Y-89225000D01*
X103075000Y-89225000D01*
X103075000Y-88275000D01*
%TO.C,R10*%
X120953135Y-79025000D02*
X122803135Y-79025000D01*
X122803135Y-79975000D01*
X120953135Y-79975000D01*
X120953135Y-79025000D01*
%TO.C,R2*%
X137025946Y-74483569D02*
X138875946Y-74483569D01*
X138875946Y-75433569D01*
X137025946Y-75433569D01*
X137025946Y-74483569D01*
%TO.C,C21*%
X115500000Y-74949800D02*
X112500000Y-74949800D01*
X112500000Y-79849800D01*
X115500000Y-79849800D01*
X115500000Y-74949800D01*
%TO.C,R18*%
X103081456Y-68374277D02*
X101231456Y-68374277D01*
X101231456Y-67424277D01*
X103081456Y-67424277D01*
X103081456Y-68374277D01*
%TO.C,C2*%
X127367302Y-73257965D02*
X125517302Y-73257965D01*
X125517302Y-72307965D01*
X127367302Y-72307965D01*
X127367302Y-73257965D01*
%TO.C,C27*%
X102000000Y-74949800D02*
X99000000Y-74949800D01*
X99000000Y-79849800D01*
X102000000Y-79849800D01*
X102000000Y-74949800D01*
%TO.C,R6*%
X131025000Y-80175000D02*
X131975000Y-80175000D01*
X131975000Y-78325000D01*
X131025000Y-78325000D01*
X131025000Y-80175000D01*
%TO.C,C11*%
X122804206Y-77750000D02*
X119804206Y-77750000D01*
X119804206Y-76250000D01*
X122804206Y-76250000D01*
X122804206Y-77750000D01*
%TO.C,U9*%
X93650000Y-71300000D02*
X93775000Y-71300000D01*
X93775000Y-73200000D01*
X93650000Y-73200000D01*
X93650000Y-71300000D01*
X93775000Y-71300000D02*
X97725000Y-71300000D01*
X97725000Y-73200000D01*
X93775000Y-73200000D01*
X93775000Y-71300000D01*
D14*
%TO.C,J6*%
X115831600Y-63140776D02*
X115831600Y-65934776D01*
X115831600Y-65934776D02*
X121165600Y-65934776D01*
X121165600Y-63140776D02*
X115831600Y-63140776D01*
X121165600Y-65934776D02*
X121165600Y-63140776D01*
D10*
X121296600Y-65934776D02*
X121165600Y-65934776D01*
X121165600Y-63140776D01*
X121296600Y-63140776D01*
X121296600Y-65934776D01*
%TO.C,R14*%
X120325000Y-71217680D02*
X122175000Y-71217680D01*
X122175000Y-72167680D01*
X120325000Y-72167680D01*
X120325000Y-71217680D01*
%TO.C,R7*%
X95798125Y-69523269D02*
X96748125Y-69523269D01*
X96748125Y-67673269D01*
X95798125Y-67673269D01*
X95798125Y-69523269D01*
D14*
%TO.C,L1*%
X105867100Y-67928000D02*
X105867100Y-73871600D01*
X105867100Y-73871600D02*
X111632900Y-73871600D01*
X111632900Y-67928000D02*
X105867100Y-67928000D01*
X111632900Y-73871600D02*
X111632900Y-67928000D01*
%TO.C,U3*%
D10*
X117063332Y-73916959D02*
X114413332Y-73916959D01*
X114413332Y-71391959D01*
X117063332Y-71391959D01*
X117063332Y-73916959D01*
D13*
X117038332Y-73891959D02*
X116838332Y-73891959D01*
X117038332Y-73691959D01*
X117038332Y-73891959D01*
G36*
X117038332Y-73891959D02*
G01*
X116838332Y-73891959D01*
X117038332Y-73691959D01*
X117038332Y-73891959D01*
G37*
%TO.C,C19*%
D10*
X109500000Y-74949800D02*
X106500000Y-74949800D01*
X106500000Y-79849800D01*
X109500000Y-79849800D01*
X109500000Y-74949800D01*
%TO.C,R19*%
X103081456Y-83224477D02*
X101231456Y-83224477D01*
X101231456Y-82274477D01*
X103081456Y-82274477D01*
X103081456Y-83224477D01*
%TO.C,R13*%
X122803135Y-81975000D02*
X120953135Y-81975000D01*
X120953135Y-81025000D01*
X122803135Y-81025000D01*
X122803135Y-81975000D01*
D14*
%TO.C,J8*%
X109810200Y-63140776D02*
X109810200Y-65934776D01*
X109810200Y-65934776D02*
X115144200Y-65934776D01*
X115144200Y-63140776D02*
X109810200Y-63140776D01*
X115144200Y-65934776D02*
X115144200Y-63140776D01*
D10*
X115275200Y-65934776D02*
X115144200Y-65934776D01*
X115144200Y-63140776D01*
X115275200Y-63140776D01*
X115275200Y-65934776D01*
%TO.C,R12*%
X120953135Y-80025000D02*
X122803135Y-80025000D01*
X122803135Y-80975000D01*
X120953135Y-80975000D01*
X120953135Y-80025000D01*
%TO.C,C7*%
X112512549Y-73911786D02*
X114012549Y-73911786D01*
X114012549Y-70911786D01*
X112512549Y-70911786D01*
X112512549Y-73911786D01*
%TO.C,R1*%
X132394558Y-73525000D02*
X134244558Y-73525000D01*
X134244558Y-74475000D01*
X132394558Y-74475000D01*
X132394558Y-73525000D01*
%TO.C,R26*%
X128025000Y-85675000D02*
X128975000Y-85675000D01*
X128975000Y-83825000D01*
X128025000Y-83825000D01*
X128025000Y-85675000D01*
%TO.C,U6*%
X104934131Y-68694270D02*
X101334131Y-68694270D01*
X101334131Y-73094270D01*
X104934131Y-73094270D01*
X104934131Y-68694270D01*
D12*
X104934131Y-69294270D02*
X104334131Y-68694270D01*
X104934131Y-68694270D01*
X104934131Y-69294270D01*
G36*
X104934131Y-69294270D02*
G01*
X104334131Y-68694270D01*
X104934131Y-68694270D01*
X104934131Y-69294270D01*
G37*
D14*
%TO.C,L2*%
X105867100Y-82778200D02*
X105867100Y-88721800D01*
X105867100Y-88721800D02*
X111632900Y-88721800D01*
X111632900Y-82778200D02*
X105867100Y-82778200D01*
X111632900Y-88721800D02*
X111632900Y-82778200D01*
%TO.C,C28*%
D10*
X105000000Y-74949800D02*
X102000000Y-74949800D01*
X102000000Y-79849800D01*
X105000000Y-79849800D01*
X105000000Y-74949800D01*
%TO.C,C32*%
X98156510Y-62978982D02*
X100006510Y-62978982D01*
X100006510Y-63928982D01*
X98156510Y-63928982D01*
X98156510Y-62978982D01*
%TO.C,R8*%
X97711233Y-67673269D02*
X96761233Y-67673269D01*
X96761233Y-69523269D01*
X97711233Y-69523269D01*
X97711233Y-67673269D01*
D14*
%TO.C,J1*%
X101285100Y-62075000D02*
X101285100Y-65925000D01*
X101285100Y-65925000D02*
X109085100Y-65925000D01*
X109085100Y-62075000D02*
X101285100Y-62075000D01*
X109085100Y-65397000D02*
X109085100Y-62603000D01*
D10*
X109216100Y-65925000D02*
X109085100Y-65925000D01*
X109085100Y-62075000D01*
X109216100Y-62075000D01*
X109216100Y-65925000D01*
%TO.C,U7*%
X104934131Y-83544470D02*
X101334131Y-83544470D01*
X101334131Y-87944470D01*
X104934131Y-87944470D01*
X104934131Y-83544470D01*
D12*
X104934131Y-84144470D02*
X104334131Y-83544470D01*
X104934131Y-83544470D01*
X104934131Y-84144470D01*
G36*
X104934131Y-84144470D02*
G01*
X104334131Y-83544470D01*
X104934131Y-83544470D01*
X104934131Y-84144470D01*
G37*
%TO.C,C33*%
D10*
X93775000Y-65175000D02*
X94725000Y-65175000D01*
X94725000Y-63325000D01*
X93775000Y-63325000D01*
X93775000Y-65175000D01*
%TO.C,C14*%
X99078233Y-73099013D02*
X100028233Y-73099013D01*
X100028233Y-71249013D01*
X99078233Y-71249013D01*
X99078233Y-73099013D01*
%TO.C,C1*%
X132375670Y-77422910D02*
X134225670Y-77422910D01*
X134225670Y-78372910D01*
X132375670Y-78372910D01*
X132375670Y-77422910D01*
D14*
%TO.C,J7*%
X132353000Y-79084400D02*
X132353000Y-84418400D01*
X132353000Y-84418400D02*
X135147000Y-84418400D01*
X135147000Y-79084400D02*
X132353000Y-79084400D01*
X135147000Y-84418400D02*
X135147000Y-79084400D01*
D10*
X135147000Y-78953400D02*
X132353000Y-78953400D01*
X132353000Y-79084400D01*
X135147000Y-79084400D01*
X135147000Y-78953400D01*
%TO.C,C24*%
X115500000Y-88700000D02*
X118500000Y-88700000D01*
X118500000Y-83800000D01*
X115500000Y-83800000D01*
X115500000Y-88700000D01*
%TO.C,C6*%
X117474838Y-73921347D02*
X118974838Y-73921347D01*
X118974838Y-70921347D01*
X117474838Y-70921347D01*
X117474838Y-73921347D01*
%TO.C,C31*%
X98149800Y-67325000D02*
X99649800Y-67325000D01*
X99649800Y-64325000D01*
X98149800Y-64325000D01*
X98149800Y-67325000D01*
%TO.C,C15*%
X103075000Y-73424800D02*
X104925000Y-73424800D01*
X104925000Y-74374800D01*
X103075000Y-74374800D01*
X103075000Y-73424800D01*
%TO.C,R21*%
X101061194Y-84265458D02*
X100111194Y-84265458D01*
X100111194Y-86115458D01*
X101061194Y-86115458D01*
X101061194Y-84265458D01*
D14*
%TO.C,J5*%
X132103000Y-64544500D02*
X132103000Y-72164500D01*
X132103000Y-72164500D02*
X134897000Y-72164500D01*
X134897000Y-64544500D02*
X132103000Y-64544500D01*
X134897000Y-72164500D02*
X134897000Y-64544500D01*
D10*
X132103000Y-72295500D02*
X134897000Y-72295500D01*
X134897000Y-72164500D01*
X132103000Y-72164500D01*
X132103000Y-72295500D01*
%TO.C,U4*%
X124366482Y-68280382D02*
X127016482Y-68280382D01*
X127016482Y-70805382D01*
X124366482Y-70805382D01*
X124366482Y-68280382D01*
D13*
X124391482Y-68505382D02*
X124391482Y-68305382D01*
X124591482Y-68305382D01*
X124391482Y-68505382D01*
G36*
X124391482Y-68505382D02*
G01*
X124391482Y-68305382D01*
X124591482Y-68305382D01*
X124391482Y-68505382D01*
G37*
%TO.C,C17*%
D10*
X104925000Y-83225000D02*
X103075000Y-83225000D01*
X103075000Y-82275000D01*
X104925000Y-82275000D01*
X104925000Y-83225000D01*
%TO.C,C29*%
X94050000Y-77000000D02*
X98950000Y-77000000D01*
X98950000Y-80000000D01*
X94050000Y-80000000D01*
X94050000Y-77000000D01*
%TO.C,R25*%
X125525000Y-85675000D02*
X126475000Y-85675000D01*
X126475000Y-83825000D01*
X125525000Y-83825000D01*
X125525000Y-85675000D01*
%TO.C,C10*%
X128275000Y-74502973D02*
X129225000Y-74502973D01*
X129225000Y-72652973D01*
X128275000Y-72652973D01*
X128275000Y-74502973D01*
%TO.C,R5*%
X131975210Y-74868585D02*
X131025210Y-74868585D01*
X131025210Y-76718585D01*
X131975210Y-76718585D01*
X131975210Y-74868585D01*
%TO.C,R20*%
X101061194Y-82265458D02*
X100111194Y-82265458D01*
X100111194Y-84115458D01*
X101061194Y-84115458D01*
X101061194Y-82265458D01*
%TO.C,R17*%
X100027741Y-69249739D02*
X99077741Y-69249739D01*
X99077741Y-71099739D01*
X100027741Y-71099739D01*
X100027741Y-69249739D01*
%TO.C,J9*%
X123730000Y-55220000D02*
X123730000Y-56710000D01*
X123730000Y-60640000D02*
X123730000Y-59430000D01*
X132670000Y-55220000D02*
X123730000Y-55220000D01*
X132670000Y-56710000D02*
X132670000Y-55220000D01*
X132670000Y-60640000D02*
X132670000Y-59430000D01*
D15*
X132080000Y-63730000D02*
G75*
G02*
X131880000Y-63730000I-100000J0D01*
G01*
X131880000Y-63730000D02*
G75*
G02*
X132080000Y-63730000I100000J0D01*
G01*
%TO.C,R4*%
D10*
X137025946Y-76483569D02*
X138875946Y-76483569D01*
X138875946Y-77433569D01*
X137025946Y-77433569D01*
X137025946Y-76483569D01*
%TO.C,R23*%
X94844888Y-69523269D02*
X95794888Y-69523269D01*
X95794888Y-67673269D01*
X94844888Y-67673269D01*
X94844888Y-69523269D01*
%TO.C,R15*%
X101027741Y-69249928D02*
X100077741Y-69249928D01*
X100077741Y-71099928D01*
X101027741Y-71099928D01*
X101027741Y-69249928D01*
%TO.C,U1*%
X123790073Y-74876657D02*
X130590073Y-74876657D01*
X130590073Y-79676657D01*
X123790073Y-79676657D01*
X123790073Y-74876657D01*
D12*
X123790073Y-75476657D02*
X123790073Y-74876657D01*
X124390073Y-74876657D01*
X123790073Y-75476657D01*
G36*
X123790073Y-75476657D02*
G01*
X123790073Y-74876657D01*
X124390073Y-74876657D01*
X123790073Y-75476657D01*
G37*
%TO.C,C3*%
D10*
X127372192Y-71697397D02*
X129222192Y-71697397D01*
X129222192Y-72647397D01*
X127372192Y-72647397D01*
X127372192Y-71697397D01*
%TO.C,R16*%
X101027741Y-71249928D02*
X100077741Y-71249928D01*
X100077741Y-73099928D01*
X101027741Y-73099928D01*
X101027741Y-71249928D01*
%TO.C,C20*%
X112500000Y-74949800D02*
X109500000Y-74949800D01*
X109500000Y-79849800D01*
X112500000Y-79849800D01*
X112500000Y-74949800D01*
%TO.C,C30*%
X94050000Y-80000000D02*
X98950000Y-80000000D01*
X98950000Y-83000000D01*
X94050000Y-83000000D01*
X94050000Y-80000000D01*
%TO.C,R24*%
X130525000Y-85675000D02*
X131475000Y-85675000D01*
X131475000Y-83825000D01*
X130525000Y-83825000D01*
X130525000Y-85675000D01*
%TO.C,C13*%
X104925000Y-68374800D02*
X103075000Y-68374800D01*
X103075000Y-67424800D01*
X104925000Y-67424800D01*
X104925000Y-68374800D01*
%TO.C,C9*%
X129283424Y-73551657D02*
X131133424Y-73551657D01*
X131133424Y-74501657D01*
X129283424Y-74501657D01*
X129283424Y-73551657D01*
%TO.C,C26*%
X121500000Y-88700000D02*
X124500000Y-88700000D01*
X124500000Y-83800000D01*
X121500000Y-83800000D01*
X121500000Y-88700000D01*
%TO.C,R9*%
X98156510Y-62028860D02*
X100006510Y-62028860D01*
X100006510Y-62978860D01*
X98156510Y-62978860D01*
X98156510Y-62028860D01*
%TO.C,R11*%
X122803135Y-78975000D02*
X120953135Y-78975000D01*
X120953135Y-78025000D01*
X122803135Y-78025000D01*
X122803135Y-78975000D01*
%TO.C,R3*%
X137025946Y-75483569D02*
X138875946Y-75483569D01*
X138875946Y-76433569D01*
X137025946Y-76433569D01*
X137025946Y-75483569D01*
%TO.C,C25*%
X118500000Y-88700000D02*
X121500000Y-88700000D01*
X121500000Y-83800000D01*
X118500000Y-83800000D01*
X118500000Y-88700000D01*
%TO.C,C23*%
X112501011Y-88700425D02*
X115501011Y-88700425D01*
X115501011Y-83800425D01*
X112501011Y-83800425D01*
X112501011Y-88700425D01*
%TO.C,C12*%
X123772802Y-80606269D02*
X126772802Y-80606269D01*
X126772802Y-82106269D01*
X123772802Y-82106269D01*
X123772802Y-80606269D01*
%TO.C,R22*%
X100061194Y-82261529D02*
X99111194Y-82261529D01*
X99111194Y-84111529D01*
X100061194Y-84111529D01*
X100061194Y-82261529D01*
%TD*%
M02*
